<svg width="1200" height="630" viewBox="0 0 1200 630" xmlns="http://www.w3.org/2000/svg"><rect x="0" y="0" width="1200" height="630" fill="#fefbfb"/><defs><clipPath id="satori_bc-id-0"><path x="105" y="39" width="1056" height="504" d="M109,39 h1048 a4,4 0 0 1 4,4 v496 a4,4 0 0 1 -4,4 h-1048 a4,4 0 0 1 -4,-4 v-496 a4,4 0 0 1 4,-4"/></clipPath></defs><g opacity="0.9"><path x="105" y="39" width="1056" height="504" fill="#ecebeb" d="M109,39 h1048 a4,4 0 0 1 4,4 v496 a4,4 0 0 1 -4,4 h-1048 a4,4 0 0 1 -4,-4 v-496 a4,4 0 0 1 4,-4"/><path width="1056" height="504" clip-path="url(#satori_bc-id-0)" fill="none" stroke="#000" stroke-width="8" d="M106.172,40.172 A4,4 0 0 1 109,39 h1048 a4,4 0 0 1 4,4 v496 a4,4 0 0 1 -4,4 h-1048 a4,4 0 0 1 -4,-4 v-496 A4,4 0 0 1 106.172,40.172"/></g><defs><clipPath id="satori_bc-id-1"><path x="72" y="63" width="1056" height="504" d="M76,63 h1048 a4,4 0 0 1 4,4 v496 a4,4 0 0 1 -4,4 h-1048 a4,4 0 0 1 -4,-4 v-496 a4,4 0 0 1 4,-4"/></clipPath></defs><path x="72" y="63" width="1056" height="504" fill="#fefbfb" d="M76,63 h1048 a4,4 0 0 1 4,4 v496 a4,4 0 0 1 -4,4 h-1048 a4,4 0 0 1 -4,-4 v-496 a4,4 0 0 1 4,-4"/><path width="1056" height="504" clip-path="url(#satori_bc-id-1)" fill="none" stroke="#000" stroke-width="8" d="M73.172,64.172 A4,4 0 0 1 76,63 h1048 a4,4 0 0 1 4,4 v496 a4,4 0 0 1 -4,4 h-1048 a4,4 0 0 1 -4,-4 v-496 A4,4 0 0 1 73.172,64.172"/><clipPath id="satori_cp-id-1-0-0"><rect x="128" y="103" width="944" height="187"/></clipPath><mask id="satori_om-id-1-0-0"><rect x="128" y="103" width="944" height="187" fill="#fff"/></mask><path fill="black" d="M155.9 183.0L155.9 161.9L143.3 161.9L143.3 183.0L132.4 183.0L132.4 132.7L143.3 132.7L143.3 153.1L155.9 153.1L155.9 132.7L166.8 132.7L166.8 183.0L155.9 183.0ZM192.8 183.8L192.8 183.8Q188.5 183.8 185.0 182.5Q181.6 181.2 179.2 178.6Q176.7 176.1 175.4 172.5Q174.2 168.9 174.2 164.4L174.2 164.4Q174.2 159.8 175.4 156.2Q176.7 152.6 179.2 150.1Q181.6 147.6 185.0 146.3Q188.5 144.9 192.8 144.9L192.8 144.9Q197.1 144.9 200.6 146.3Q204.0 147.6 206.4 150.1Q208.9 152.6 210.2 156.2Q211.4 159.8 211.4 164.4L211.4 164.4Q211.4 168.9 210.2 172.5Q208.9 176.1 206.4 178.6Q204.0 181.2 200.6 182.5Q197.1 183.8 192.8 183.8ZM192.8 175.9L192.8 175.9Q196.4 175.9 198.4 173.7Q200.4 171.4 200.4 167.3L200.4 167.3L200.4 161.4Q200.4 157.3 198.4 155.1Q196.4 152.9 192.8 152.9L192.8 152.9Q189.2 152.9 187.2 155.1Q185.2 157.3 185.2 161.4L185.2 161.4L185.2 167.3Q185.2 171.4 187.2 173.7Q189.2 175.9 192.8 175.9ZM219.3 183.0L214.9 145.8L223.8 145.8L226.4 175.9L227.1 175.9L231.5 145.8L240.9 145.8L245.2 175.9L245.9 175.9L248.7 145.8L257.1 145.8L252.7 183.0L240.0 183.0L236.4 157.3L235.6 157.3L232.0 183.0L219.3 183.0Z M339.0 183.0L325.3 183.0Q319.5 183.0 316.7 179.9Q313.9 176.9 313.9 172.2L313.9 172.2L313.9 154.1L303.8 154.1L303.8 145.8L310.4 145.8Q312.8 145.8 313.8 144.9Q314.8 143.9 314.8 141.4L314.8 141.4L314.8 132.7L324.6 132.7L324.6 145.8L339.0 145.8L339.0 154.1L324.6 154.1L324.6 174.7L339.0 174.7L339.0 183.0ZM365.6 183.8L365.6 183.8Q361.3 183.8 357.8 182.5Q354.4 181.2 352.0 178.6Q349.5 176.1 348.2 172.5Q347.0 168.9 347.0 164.4L347.0 164.4Q347.0 159.8 348.2 156.2Q349.5 152.6 352.0 150.1Q354.4 147.6 357.8 146.3Q361.3 144.9 365.6 144.9L365.6 144.9Q369.9 144.9 373.4 146.3Q376.8 147.6 379.2 150.1Q381.7 152.6 383.0 156.2Q384.2 159.8 384.2 164.4L384.2 164.4Q384.2 168.9 383.0 172.5Q381.7 176.1 379.2 178.6Q376.8 181.2 373.4 182.5Q369.9 183.8 365.6 183.8ZM365.6 175.9L365.6 175.9Q369.2 175.9 371.2 173.7Q373.2 171.4 373.2 167.3L373.2 167.3L373.2 161.4Q373.2 157.3 371.2 155.1Q369.2 152.9 365.6 152.9L365.6 152.9Q362 152.9 360.0 155.1Q358.0 157.3 358.0 161.4L358.0 161.4L358.0 167.3Q358.0 171.4 360.0 173.7Q362 175.9 365.6 175.9Z M453.5 183.8L453.5 183.8Q449.1 183.8 445.6 182.5Q442.1 181.2 439.7 178.6Q437.3 176.1 436.0 172.5Q434.7 168.9 434.7 164.4L434.7 164.4Q434.7 159.8 436.0 156.2Q437.3 152.6 439.7 150.1Q442.1 147.6 445.6 146.3Q449.1 144.9 453.4 144.9L453.4 144.9Q459.6 144.9 463.3 147.4Q467.0 149.9 468.9 154.0L468.9 154.0L460.7 158.5Q459.7 156.3 458.1 154.9Q456.5 153.4 453.4 153.4L453.4 153.4Q449.8 153.4 447.8 155.6Q445.8 157.7 445.8 161.4L445.8 161.4L445.8 167.4Q445.8 171.1 447.8 173.2Q449.8 175.3 453.6 175.3L453.6 175.3Q456.7 175.3 458.4 173.9Q460.2 172.4 461.4 170.1L461.4 170.1L469.5 174.7Q467.5 178.8 463.6 181.3Q459.8 183.8 453.5 183.8ZM495.2 183.8L495.2 183.8Q490.9 183.8 487.4 182.5Q484.0 181.2 481.6 178.6Q479.1 176.1 477.8 172.5Q476.6 168.9 476.6 164.4L476.6 164.4Q476.6 159.8 477.8 156.2Q479.1 152.6 481.6 150.1Q484.0 147.6 487.4 146.3Q490.9 144.9 495.2 144.9L495.2 144.9Q499.5 144.9 503.0 146.3Q506.4 147.6 508.8 150.1Q511.3 152.6 512.6 156.2Q513.8 159.8 513.8 164.4L513.8 164.4Q513.8 168.9 512.6 172.5Q511.3 176.1 508.8 178.6Q506.4 181.2 503.0 182.5Q499.5 183.8 495.2 183.8ZM495.2 175.9L495.2 175.9Q498.8 175.9 500.8 173.7Q502.8 171.4 502.8 167.3L502.8 167.3L502.8 161.4Q502.8 157.3 500.8 155.1Q498.8 152.9 495.2 152.9L495.2 152.9Q491.6 152.9 489.6 155.1Q487.6 157.3 487.6 161.4L487.6 161.4L487.6 167.3Q487.6 171.4 489.6 173.7Q491.6 175.9 495.2 175.9ZM532.1 183.0L521.5 183.0L521.5 145.8L532.1 145.8L532.1 152.6L532.6 152.6Q533.2 151.0 534.2 149.6Q535.1 148.2 536.4 147.2Q537.8 146.2 539.5 145.5Q541.3 144.9 543.5 144.9L543.5 144.9Q546.2 144.9 548.4 145.8Q550.6 146.7 552.2 148.5Q553.8 150.3 554.7 152.9Q555.6 155.5 555.6 158.9L555.6 158.9L555.6 183.0L545.0 183.0L545.0 160.3Q545.0 153.1 538.7 153.1L538.7 153.1Q537.5 153.1 536.3 153.5Q535.1 153.8 534.2 154.5Q533.2 155.2 532.7 156.2Q532.1 157.2 532.1 158.5L532.1 158.5L532.1 183.0ZM565.1 183.0L565.1 174.7L576.1 174.7L576.1 154.1L564.4 154.1L564.4 145.8L576.1 145.8L576.1 140.4Q576.1 135.6 578.8 132.7Q581.6 129.7 587.4 129.7L587.4 129.7L600.0 129.7L600.0 138.0L586.7 138.0L586.7 145.8L600.0 145.8L600.0 154.1L586.7 154.1L586.7 174.7L598.4 174.7L598.4 183.0L565.1 183.0ZM627.1 141.0L627.1 141.0Q623.5 141.0 622.1 139.6Q620.7 138.1 620.7 136.0L620.7 136.0L620.7 133.9Q620.7 131.8 622.1 130.3Q623.5 128.9 627.1 128.9L627.1 128.9Q630.7 128.9 632.1 130.3Q633.5 131.8 633.5 133.9L633.5 133.9L633.5 136.0Q633.5 138.1 632.1 139.6Q630.7 141.0 627.1 141.0ZM610.0 183.0L610.0 174.7L621.8 174.7L621.8 154.1L610.0 154.1L610.0 145.8L632.4 145.8L632.4 174.7L643.4 174.7L643.4 183.0L610.0 183.0ZM688.4 186.7L688.4 186.7Q688.4 192.6 683.4 195.4Q678.4 198.2 667.8 198.2L667.8 198.2Q662.5 198.2 659.0 197.6Q655.5 197.0 653.5 195.8Q651.4 194.7 650.6 193.1Q649.8 191.5 649.8 189.6L649.8 189.6Q649.8 186.5 651.7 184.9Q653.5 183.2 656.9 182.4L656.9 182.4L656.9 181.9Q654.5 181.2 653.1 179.9Q651.7 178.6 651.7 176.1L651.7 176.1Q651.7 173.4 653.6 172.1Q655.4 170.8 658.4 170.1L658.4 170.1L658.4 169.6Q655.1 168.0 653.3 165.2Q651.4 162.3 651.4 158.2L651.4 158.2Q651.4 154.9 652.6 152.5Q653.7 150.0 655.9 148.3Q658.0 146.7 660.9 145.8Q663.9 144.9 667.6 144.9L667.6 144.9Q671.1 144.9 674.1 145.7L674.1 145.7L674.1 143.7Q674.1 141.6 675.6 140.1Q677.1 138.7 679.8 138.7L679.8 138.7L686.4 138.7L686.4 146.4L677.4 146.4L677.4 147.1Q680.5 148.7 682.1 151.5Q683.8 154.2 683.8 158.2L683.8 158.2Q683.8 161.4 682.7 163.9Q681.5 166.3 679.4 168.0Q677.2 169.7 674.2 170.6Q671.2 171.4 667.6 171.4L667.6 171.4Q665.9 171.4 664.4 171.3Q662.9 171.1 661.5 170.7L661.5 170.7Q660.7 171.1 660.2 171.8Q659.6 172.4 659.6 173.4L659.6 173.4Q659.6 174.3 660.1 174.8Q660.5 175.3 661.3 175.6Q662.0 175.8 663.0 175.9Q664.0 176.0 665.1 176.0L665.1 176.0L673.6 176.0Q677.6 176.0 680.4 176.8Q683.2 177.6 685.0 179.0Q686.8 180.4 687.6 182.4Q688.4 184.3 688.4 186.7ZM678.3 187.5L678.3 187.5Q678.3 186.0 677.1 185.2Q676.0 184.4 672.8 184.4L672.8 184.4L660.0 184.4Q658.6 185.6 658.6 187.4L658.6 187.4Q658.6 189.1 660.0 190.3Q661.5 191.4 665.0 191.4L665.0 191.4L671.3 191.4Q675.0 191.4 676.6 190.4Q678.3 189.4 678.3 187.5ZM667.6 164.7L667.6 164.7Q670.8 164.7 672.3 163.1Q673.8 161.5 673.8 159.0L673.8 159.0L673.8 157.3Q673.8 154.9 672.3 153.3Q670.8 151.7 667.6 151.7L667.6 151.7Q664.4 151.7 663.0 153.3Q661.5 154.9 661.5 157.3L661.5 157.3L661.5 159.0Q661.5 161.5 663.0 163.1Q664.4 164.7 667.6 164.7ZM717.5 183.0L717.5 176.2L717.0 176.2Q715.8 179.4 713.2 181.6Q710.6 183.8 706.1 183.8L706.1 183.8Q703.4 183.8 701.2 182.9Q699.0 182.0 697.4 180.2Q695.8 178.4 694.9 175.8Q694.0 173.2 694.0 169.8L694.0 169.8L694.0 145.8L704.6 145.8L704.6 168.4Q704.6 175.6 710.9 175.6L710.9 175.6Q712.1 175.6 713.3 175.3Q714.5 175.0 715.4 174.3Q716.3 173.6 716.9 172.6Q717.5 171.6 717.5 170.2L717.5 170.2L717.5 145.8L728.1 145.8L728.1 183.0L717.5 183.0ZM738.1 183.0L738.1 174.7L746.7 174.7L746.7 154.1L738.1 154.1L738.1 145.8L757.4 145.8L757.4 156.3L757.9 156.3Q758.4 154.3 759.3 152.4Q760.2 150.5 761.6 149.0Q763.0 147.5 765.0 146.7Q767.0 145.8 769.7 145.8L769.7 145.8L773.3 145.8L773.3 155.6L765.3 155.6Q761.4 155.6 759.4 157.9Q757.4 160.3 757.4 163.7L757.4 163.7L757.4 174.7L769.6 174.7L769.6 183.0L738.1 183.0ZM798.6 183.8L798.6 183.8Q789.2 183.8 784.4 178.6Q779.6 173.4 779.6 164.5L779.6 164.5Q779.6 160.0 780.9 156.3Q782.1 152.7 784.5 150.2Q786.8 147.6 790.1 146.3Q793.5 144.9 797.7 144.9L797.7 144.9Q801.8 144.9 805.2 146.3Q808.5 147.6 810.8 150.0Q813.1 152.5 814.3 156.0Q815.6 159.5 815.6 163.8L815.6 163.8L815.6 167.0L790.2 167.0L790.2 167.6Q790.2 171.2 792.4 173.4Q794.6 175.6 799.0 175.6L799.0 175.6Q802.3 175.6 804.7 174.3Q807.0 173.1 808.8 171.0L808.8 171.0L814.5 177.3Q812.4 179.9 808.5 181.9Q804.6 183.8 798.6 183.8ZM797.7 152.6L797.7 152.6Q794.3 152.6 792.2 154.7Q790.2 156.8 790.2 160.4L790.2 160.4L790.2 161.0L805.2 161.0L805.2 160.4Q805.2 156.7 803.2 154.7Q801.2 152.6 797.7 152.6Z M170.8 276.6L159.3 276.6L156.2 264.5L142.4 264.5L139.3 276.6L128.4 276.6L142.0 226.3L157.2 226.3L170.8 276.6ZM154.5 255.7L149.6 236.7L149.0 236.7L144.1 255.7L154.5 255.7ZM192.4 277.4L192.4 277.4Q186.2 277.4 181.6 275.5Q177.0 273.7 174.7 270.4L174.7 270.4L180.7 264.9Q182.9 267.3 185.8 268.6Q188.7 269.9 192.4 269.9L192.4 269.9Q195.6 269.9 197.4 269.0Q199.2 268.0 199.2 266.0L199.2 266.0Q199.2 264.4 198.0 263.8Q196.8 263.2 194.6 262.8L194.6 262.8L188.6 261.9Q186.1 261.5 183.9 260.7Q181.8 260.0 180.2 258.7Q178.6 257.4 177.7 255.5Q176.7 253.7 176.7 251.0L176.7 251.0Q176.7 245.2 181.2 241.8Q185.7 238.5 193.7 238.5L193.7 238.5Q199.2 238.5 203.1 240.0Q206.9 241.5 209.2 244.2L209.2 244.2L203.9 250.3Q202.2 248.5 199.6 247.2Q197.0 246.0 193.4 246.0L193.4 246.0Q187.2 246.0 187.2 249.8L187.2 249.8Q187.2 251.4 188.4 252.0Q189.6 252.6 191.8 253.0L191.8 253.0L197.7 253.9Q200.2 254.3 202.4 255.1Q204.5 255.8 206.2 257.1Q207.8 258.4 208.7 260.3Q209.6 262.2 209.6 264.8L209.6 264.8Q209.6 270.6 205.1 274.0Q200.6 277.4 192.4 277.4ZM252.6 276.6L238.9 276.6Q233.1 276.6 230.3 273.5Q227.5 270.5 227.5 265.8L227.5 265.8L227.5 247.7L217.4 247.7L217.4 239.4L224.0 239.4Q226.4 239.4 227.4 238.5Q228.4 237.5 228.4 235.0L228.4 235.0L228.4 226.3L238.2 226.3L238.2 239.4L252.6 239.4L252.6 247.7L238.2 247.7L238.2 268.3L252.6 268.3L252.6 276.6ZM262.9 276.6L262.9 268.3L271.5 268.3L271.5 247.7L262.9 247.7L262.9 239.4L282.2 239.4L282.2 249.9L282.7 249.9Q283.2 247.9 284.1 246.0Q285.0 244.1 286.4 242.6Q287.8 241.1 289.8 240.3Q291.8 239.4 294.5 239.4L294.5 239.4L298.1 239.4L298.1 249.2L290.1 249.2Q286.2 249.2 284.2 251.5Q282.2 253.9 282.2 257.3L282.2 257.3L282.2 268.3L294.4 268.3L294.4 276.6L262.9 276.6ZM322.4 277.4L322.4 277.4Q318.1 277.4 314.6 276.1Q311.2 274.8 308.8 272.2Q306.3 269.7 305.0 266.1Q303.8 262.5 303.8 258.0L303.8 258.0Q303.8 253.4 305.0 249.8Q306.3 246.2 308.8 243.7Q311.2 241.2 314.6 239.9Q318.1 238.5 322.4 238.5L322.4 238.5Q326.7 238.5 330.2 239.9Q333.6 241.2 336.0 243.7Q338.5 246.2 339.8 249.8Q341.0 253.4 341.0 258.0L341.0 258.0Q341.0 262.5 339.8 266.1Q338.5 269.7 336.0 272.2Q333.6 274.8 330.2 276.1Q326.7 277.4 322.4 277.4ZM322.4 269.5L322.4 269.5Q326.0 269.5 328.0 267.3Q330.0 265.0 330.0 260.9L330.0 260.9L330.0 255.0Q330.0 250.9 328.0 248.7Q326.0 246.5 322.4 246.5L322.4 246.5Q318.8 246.5 316.8 248.7Q314.8 250.9 314.8 255.0L314.8 255.0L314.8 260.9Q314.8 265.0 316.8 267.3Q318.8 269.5 322.4 269.5ZM360.3 276.6L349.5 276.6L349.5 226.3L368.9 226.3Q372.6 226.3 375.5 227.4Q378.3 228.5 380.3 230.6Q382.3 232.7 383.3 235.7Q384.3 238.6 384.3 242.3L384.3 242.3Q384.3 246.0 383.3 248.9Q382.3 251.9 380.3 253.9Q378.3 256.0 375.5 257.1Q372.6 258.3 368.9 258.3L368.9 258.3L360.3 258.3L360.3 276.6ZM360.3 235.0L360.3 249.6L366.2 249.6Q370.0 249.6 371.5 248.1Q372.9 246.7 372.9 243.4L372.9 243.4L372.9 241.2Q372.9 237.9 371.5 236.4Q370.0 235.0 366.2 235.0L366.2 235.0L360.3 235.0ZM428.4 276.6L422.3 276.6Q419.0 276.6 416.9 274.9Q414.9 273.2 414.6 270.0L414.6 270.0L414.2 270.0Q413.2 273.7 410.2 275.5Q407.2 277.4 402.9 277.4L402.9 277.4Q397.5 277.4 394.2 274.5Q390.9 271.6 390.9 266.3L390.9 266.3Q390.9 260.5 395.2 257.7Q399.4 254.9 407.6 254.9L407.6 254.9L413.6 254.9L413.6 253.0Q413.6 249.7 412.1 248.0Q410.5 246.3 406.9 246.3L406.9 246.3Q403.5 246.3 401.4 247.6Q399.3 248.9 397.8 251.0L397.8 251.0L392.0 245.8Q393.8 242.6 397.8 240.6Q401.8 238.5 408.1 238.5L408.1 238.5Q415.7 238.5 420.0 242.0Q424.3 245.5 424.3 252.6L424.3 252.6L424.3 268.8L428.4 268.8L428.4 276.6ZM406.9 270.4L406.9 270.4Q409.7 270.4 411.7 269.1Q413.6 267.7 413.6 265.1L413.6 265.1L413.6 260.6L407.9 260.6Q401.4 260.6 401.4 265.0L401.4 265.0L401.4 266.5Q401.4 268.4 402.9 269.4Q404.4 270.4 406.9 270.4ZM434.6 291.0L434.6 239.4L445.3 239.4L445.3 246.2L445.8 246.2Q447.2 242.9 449.8 240.7Q452.4 238.5 456.8 238.5L456.8 238.5Q459.9 238.5 462.5 239.7Q465.0 240.8 466.9 243.2Q468.7 245.6 469.7 249.3Q470.8 252.9 470.8 258.0L470.8 258.0Q470.8 263.0 469.7 266.7Q468.7 270.4 466.9 272.7Q465.0 275.1 462.5 276.3Q459.9 277.4 456.8 277.4L456.8 277.4Q452.4 277.4 449.8 275.3Q447.2 273.2 445.8 269.8L445.8 269.8L445.3 269.8L445.3 291.0L434.6 291.0ZM452.2 269.1L452.2 269.1Q455.8 269.1 457.8 266.9Q459.7 264.7 459.7 260.9L459.7 260.9L459.7 255.1Q459.7 251.2 457.8 249.0Q455.8 246.8 452.2 246.8L452.2 246.8Q449.4 246.8 447.4 248.2Q445.3 249.6 445.3 252.5L445.3 252.5L445.3 263.4Q445.3 266.4 447.4 267.8Q449.4 269.1 452.2 269.1ZM496.2 277.4L496.2 277.4Q486.8 277.4 482.0 272.2Q477.2 267.0 477.2 258.1L477.2 258.1Q477.2 253.6 478.5 249.9Q479.7 246.3 482.1 243.8Q484.4 241.2 487.7 239.9Q491.1 238.5 495.3 238.5L495.3 238.5Q499.4 238.5 502.8 239.9Q506.1 241.2 508.4 243.6Q510.7 246.1 511.9 249.6Q513.2 253.1 513.2 257.4L513.2 257.4L513.2 260.6L487.8 260.6L487.8 261.2Q487.8 264.8 490.0 267.0Q492.2 269.2 496.6 269.2L496.6 269.2Q499.9 269.2 502.3 267.9Q504.6 266.7 506.4 264.6L506.4 264.6L512.1 270.9Q510.0 273.5 506.1 275.5Q502.2 277.4 496.2 277.4ZM495.3 246.2L495.3 246.2Q491.9 246.2 489.8 248.3Q487.8 250.4 487.8 254.0L487.8 254.0L487.8 254.6L502.8 254.6L502.8 254.0Q502.8 250.3 500.8 248.3Q498.8 246.2 495.3 246.2ZM522.1 276.6L522.1 268.3L530.7 268.3L530.7 247.7L522.1 247.7L522.1 239.4L541.4 239.4L541.4 249.9L541.9 249.9Q542.4 247.9 543.3 246.0Q544.2 244.1 545.6 242.6Q547.0 241.1 549.0 240.3Q551 239.4 553.7 239.4L553.7 239.4L557.3 239.4L557.3 249.2L549.3 249.2Q545.4 249.2 543.4 251.5Q541.4 253.9 541.4 257.3L541.4 257.3L541.4 268.3L553.6 268.3L553.6 276.6L522.1 276.6Z M641.4 276.6L627.7 276.6Q621.9 276.6 619.1 273.5Q616.3 270.5 616.3 265.8L616.3 265.8L616.3 247.7L606.2 247.7L606.2 239.4L612.8 239.4Q615.2 239.4 616.2 238.5Q617.2 237.5 617.2 235.0L617.2 235.0L617.2 226.3L627.0 226.3L627.0 239.4L641.4 239.4L641.4 247.7L627.0 247.7L627.0 268.3L641.4 268.3L641.4 276.6ZM651.1 276.6L651.1 223.3L661.7 223.3L661.7 246.2L662.2 246.2Q662.8 244.6 663.8 243.2Q664.7 241.8 666.0 240.8Q667.4 239.8 669.1 239.1Q670.9 238.5 673.1 238.5L673.1 238.5Q675.8 238.5 678.0 239.4Q680.2 240.3 681.8 242.1Q683.4 243.9 684.3 246.5Q685.2 249.1 685.2 252.5L685.2 252.5L685.2 276.6L674.6 276.6L674.6 253.9Q674.6 246.7 668.3 246.7L668.3 246.7Q667.1 246.7 665.9 247.1Q664.7 247.4 663.8 248.1Q662.8 248.8 662.3 249.8Q661.7 250.8 661.7 252.1L661.7 252.1L661.7 276.6L651.1 276.6ZM712.2 277.4L712.2 277.4Q702.8 277.4 698.0 272.2Q693.2 267.0 693.2 258.1L693.2 258.1Q693.2 253.6 694.5 249.9Q695.7 246.3 698.1 243.8Q700.4 241.2 703.7 239.9Q707.1 238.5 711.3 238.5L711.3 238.5Q715.4 238.5 718.8 239.9Q722.1 241.2 724.4 243.6Q726.7 246.1 727.9 249.6Q729.2 253.1 729.2 257.4L729.2 257.4L729.2 260.6L703.8 260.6L703.8 261.2Q703.8 264.8 706.0 267.0Q708.2 269.2 712.6 269.2L712.6 269.2Q715.9 269.2 718.3 267.9Q720.6 266.7 722.4 264.6L722.4 264.6L728.1 270.9Q726.0 273.5 722.1 275.5Q718.2 277.4 712.2 277.4ZM711.3 246.2L711.3 246.2Q707.9 246.2 705.8 248.3Q703.8 250.4 703.8 254.0L703.8 254.0L703.8 254.6L718.8 254.6L718.8 254.0Q718.8 250.3 716.8 248.3Q714.8 246.2 711.3 246.2ZM743.5 276.6L735.0 276.6L735.0 239.4L743.5 239.4L743.5 244.9L744.0 244.9Q744.9 242.3 746.5 240.4Q748.1 238.5 751.1 238.5L751.1 238.5Q756.5 238.5 757.7 244.9L757.7 244.9L758.1 244.9Q758.6 243.6 759.2 242.4Q759.9 241.3 760.8 240.4Q761.7 239.5 763.0 239.0Q764.3 238.5 766.1 238.5L766.1 238.5Q773.8 238.5 773.8 250.0L773.8 250.0L773.8 276.6L765.3 276.6L765.3 251.1Q765.3 248.5 764.4 247.4Q763.5 246.4 762.0 246.4L762.0 246.4Q760.7 246.4 759.7 247.3Q758.7 248.2 758.7 250.1L758.7 250.1L758.7 276.6L750.1 276.6L750.1 251.1Q750.1 248.5 749.3 247.4Q748.4 246.4 747.0 246.4L747.0 246.4Q745.5 246.4 744.5 247.3Q743.5 248.2 743.5 250.1L743.5 250.1L743.5 276.6ZM798.6 277.4L798.6 277.4Q789.2 277.4 784.4 272.2Q779.6 267.0 779.6 258.1L779.6 258.1Q779.6 253.6 780.9 249.9Q782.1 246.3 784.5 243.8Q786.8 241.2 790.1 239.9Q793.5 238.5 797.7 238.5L797.7 238.5Q801.8 238.5 805.2 239.9Q808.5 241.2 810.8 243.6Q813.1 246.1 814.3 249.6Q815.6 253.1 815.6 257.4L815.6 257.4L815.6 260.6L790.2 260.6L790.2 261.2Q790.2 264.8 792.4 267.0Q794.6 269.2 799.0 269.2L799.0 269.2Q802.3 269.2 804.7 267.9Q807.0 266.7 808.8 264.6L808.8 264.6L814.5 270.9Q812.4 273.5 808.5 275.5Q804.6 277.4 798.6 277.4ZM797.7 246.2L797.7 246.2Q794.3 246.2 792.2 248.3Q790.2 250.4 790.2 254.0L790.2 254.0L790.2 254.6L805.2 254.6L805.2 254.0Q805.2 250.3 803.2 248.3Q801.2 246.2 797.7 246.2Z " clip-path="url(#satori_cp-id-1-0-0)" mask="url(#satori_om-id-1-0-0)"/><path fill="black" d="M130.7 520.3L130.7 499.6L132.9 499.6L132.9 508.2L133.0 508.2Q134.4 505.5 137.5 505.5L137.5 505.5Q140.1 505.5 141.6 507.5Q143.1 509.5 143.1 513.0L143.1 513.0Q143.1 516.6 141.6 518.6Q140.1 520.6 137.5 520.6L137.5 520.6Q134.4 520.6 133.0 517.9L133.0 517.9L132.9 517.9L132.9 520.3L130.7 520.3ZM136.6 518.6L136.6 518.6Q138.6 518.6 139.6 517.4Q140.7 516.2 140.7 514.3L140.7 514.3L140.7 511.8Q140.7 509.9 139.6 508.7Q138.6 507.5 136.6 507.5L136.6 507.5Q135.8 507.5 135.2 507.7Q134.5 507.9 134.0 508.2Q133.5 508.6 133.2 509.2Q132.9 509.7 132.9 510.4L132.9 510.4L132.9 515.7Q132.9 516.4 133.2 516.9Q133.5 517.5 134.0 517.8Q134.5 518.2 135.2 518.4Q135.8 518.6 136.6 518.6ZM155.4 511.9L157.9 505.8L160.1 505.8L152.9 523.4Q152.7 524.1 152.4 524.5Q152.1 525.0 151.7 525.3Q151.2 525.6 150.7 525.7Q150.1 525.9 149.3 525.9L149.3 525.9L147.1 525.9L147.1 524.0L150.5 524.0L152.1 520.0L146.3 505.8L148.6 505.8L151.0 511.9L153.2 517.4L153.3 517.4L155.4 511.9Z "/><clipPath id="satori_cp-id-1-0-1-0-2"><rect x="178" y="489" width="168" height="36"/></clipPath><mask id="satori_om-id-1-0-1-0-2"><rect x="178" y="489" width="168" height="36" fill="#fff"/></mask><path fill="black" d="M192.7 520.1L180.1 520.1L180.1 517.0L184.3 517.0L184.3 503.7L180.1 503.7L180.1 500.5L192.7 500.5L192.7 503.7L188.5 503.7L188.5 517.0L192.7 517.0L192.7 520.1ZM203.0 520.4L203.0 520.4Q200.6 520.4 198.8 519.7Q197.1 519.0 196.2 517.7L196.2 517.7L198.5 515.6Q199.3 516.5 200.5 517.0Q201.6 517.5 203.1 517.5L203.1 517.5Q204.3 517.5 205.0 517.1Q205.7 516.8 205.7 516.0L205.7 516.0Q205.7 515.4 205.2 515.1Q204.7 514.9 203.9 514.7L203.9 514.7L201.6 514.4Q200.6 514.2 199.8 513.9Q198.9 513.7 198.3 513.1Q197.7 512.6 197.3 511.9Q197.0 511.2 197.0 510.2L197.0 510.2Q197.0 507.9 198.7 506.6Q200.4 505.3 203.6 505.3L203.6 505.3Q205.7 505.3 207.2 505.9Q208.7 506.5 209.6 507.5L209.6 507.5L207.5 509.9Q206.9 509.2 205.9 508.7Q204.9 508.2 203.4 508.2L203.4 508.2Q201.0 508.2 201.0 509.7L201.0 509.7Q201.0 510.3 201.5 510.6Q202.0 510.8 202.8 510.9L202.8 510.9L205.1 511.3Q206.1 511.4 206.9 511.7Q207.8 512.0 208.4 512.5Q209.0 513.0 209.4 513.8Q209.8 514.5 209.8 515.5L209.8 515.5Q209.8 517.8 208.0 519.1Q206.3 520.4 203.0 520.4ZM227.6 520.1L225.2 520.1Q223.9 520.1 223.2 519.4Q222.4 518.8 222.2 517.5L222.2 517.5L222.1 517.5Q221.7 519.0 220.5 519.7Q219.4 520.4 217.7 520.4L217.7 520.4Q215.6 520.4 214.3 519.3Q213.1 518.2 213.1 516.1L213.1 516.1Q213.1 513.8 214.7 512.8Q216.4 511.7 219.6 511.7L219.6 511.7L221.9 511.7L221.9 510.9Q221.9 509.6 221.3 509.0Q220.7 508.3 219.2 508.3L219.2 508.3Q217.9 508.3 217.1 508.8Q216.3 509.3 215.7 510.2L215.7 510.2L213.4 508.1Q214.2 506.9 215.7 506.1Q217.3 505.3 219.7 505.3L219.7 505.3Q222.7 505.3 224.4 506.7Q226.0 508.0 226.0 510.8L226.0 510.8L226.0 517.1L227.6 517.1L227.6 520.1ZM219.3 517.7L219.3 517.7Q220.4 517.7 221.1 517.2Q221.9 516.6 221.9 515.6L221.9 515.6L221.9 513.9L219.7 513.9Q217.1 513.9 217.1 515.6L217.1 515.6L217.1 516.2Q217.1 516.9 217.7 517.3Q218.3 517.7 219.3 517.7ZM244.4 520.1L242.0 520.1Q240.7 520.1 240.0 519.4Q239.2 518.8 239.0 517.5L239.0 517.5L238.9 517.5Q238.5 519.0 237.3 519.7Q236.2 520.4 234.5 520.4L234.5 520.4Q232.4 520.4 231.1 519.3Q229.9 518.2 229.9 516.1L229.9 516.1Q229.9 513.8 231.5 512.8Q233.2 511.7 236.4 511.7L236.4 511.7L238.7 511.7L238.7 510.9Q238.7 509.6 238.1 509.0Q237.5 508.3 236.0 508.3L236.0 508.3Q234.7 508.3 233.9 508.8Q233.1 509.3 232.5 510.2L232.5 510.2L230.2 508.1Q231.0 506.9 232.5 506.1Q234.1 505.3 236.5 505.3L236.5 505.3Q239.5 505.3 241.2 506.7Q242.8 508.0 242.8 510.8L242.8 510.8L242.8 517.1L244.4 517.1L244.4 520.1ZM236.1 517.7L236.1 517.7Q237.2 517.7 237.9 517.2Q238.7 516.6 238.7 515.6L238.7 515.6L238.7 513.9L236.5 513.9Q233.9 513.9 233.9 515.6L233.9 515.6L233.9 516.2Q233.9 516.9 234.5 517.3Q235.1 517.7 236.1 517.7ZM254.2 520.4L254.2 520.4Q252.5 520.4 251.1 519.9Q249.8 519.4 248.8 518.4Q247.9 517.4 247.4 516.0Q246.9 514.6 246.9 512.9L246.9 512.9Q246.9 511.1 247.4 509.7Q247.9 508.3 248.8 507.3Q249.8 506.3 251.1 505.8Q252.5 505.3 254.2 505.3L254.2 505.3Q256.5 505.3 258.0 506.3Q259.4 507.2 260.2 508.8L260.2 508.8L257.0 510.6Q256.6 509.7 256.0 509.2Q255.3 508.6 254.2 508.6L254.2 508.6Q252.7 508.6 252.0 509.4Q251.2 510.3 251.2 511.7L251.2 511.7L251.2 514.0Q251.2 515.5 252.0 516.3Q252.7 517.1 254.2 517.1L254.2 517.1Q255.4 517.1 256.1 516.6Q256.8 516.0 257.3 515.1L257.3 515.1L260.4 516.9Q259.6 518.5 258.1 519.5Q256.6 520.4 254.2 520.4Z M280.6 520.1L280.6 500.5L286.9 500.5Q290.8 500.5 292.7 503.1Q294.6 505.6 294.6 510.3L294.6 510.3Q294.6 515.1 292.7 517.6Q290.8 520.1 286.9 520.1L286.9 520.1L280.6 520.1ZM284.7 516.8L286.6 516.8Q288.5 516.8 289.4 515.6Q290.2 514.4 290.2 512.1L290.2 512.1L290.2 508.5Q290.2 506.3 289.4 505.1Q288.5 503.9 286.6 503.9L286.6 503.9L284.7 503.9L284.7 516.8ZM311.6 520.1L309.2 520.1Q307.9 520.1 307.2 519.4Q306.4 518.8 306.2 517.5L306.2 517.5L306.1 517.5Q305.7 519.0 304.5 519.7Q303.4 520.4 301.7 520.4L301.7 520.4Q299.6 520.4 298.3 519.3Q297.1 518.2 297.1 516.1L297.1 516.1Q297.1 513.8 298.7 512.8Q300.4 511.7 303.6 511.7L303.6 511.7L305.9 511.7L305.9 510.9Q305.9 509.6 305.3 509.0Q304.7 508.3 303.2 508.3L303.2 508.3Q301.9 508.3 301.1 508.8Q300.3 509.3 299.7 510.2L299.7 510.2L297.4 508.1Q298.2 506.9 299.7 506.1Q301.3 505.3 303.7 505.3L303.7 505.3Q306.7 505.3 308.4 506.7Q310.0 508.0 310.0 510.8L310.0 510.8L310.0 517.1L311.6 517.1L311.6 520.1ZM303.3 517.7L303.3 517.7Q304.4 517.7 305.1 517.2Q305.9 516.6 305.9 515.6L305.9 515.6L305.9 513.9L303.7 513.9Q301.1 513.9 301.1 515.6L301.1 515.6L301.1 516.2Q301.1 516.9 301.7 517.3Q302.3 517.7 303.3 517.7ZM328.7 521.5L328.7 521.5Q328.7 523.8 326.8 524.9Q324.9 526.0 320.7 526.0L320.7 526.0Q318.6 526.0 317.3 525.8Q316.0 525.6 315.2 525.1Q314.4 524.7 314.0 524.0Q313.7 523.4 313.7 522.7L313.7 522.7Q313.7 521.5 314.4 520.8Q315.2 520.2 316.5 519.9L316.5 519.9L316.5 519.7Q315.6 519.4 315.0 518.9Q314.5 518.4 314.5 517.4L314.5 517.4Q314.5 516.4 315.2 515.9Q315.9 515.4 317.1 515.1L317.1 515.1L317.1 514.9Q315.8 514.3 315.1 513.2Q314.4 512.1 314.4 510.5L314.4 510.5Q314.4 509.2 314.8 508.2Q315.3 507.3 316.1 506.6Q316.9 506.0 318.1 505.6Q319.2 505.3 320.6 505.3L320.6 505.3Q322.0 505.3 323.2 505.6L323.2 505.6L323.2 504.8Q323.2 504.0 323.8 503.4Q324.4 502.9 325.4 502.9L325.4 502.9L327.9 502.9L327.9 505.9L324.5 505.9L324.5 506.1Q325.6 506.8 326.3 507.8Q327.0 508.9 327.0 510.5L327.0 510.5Q327.0 511.7 326.5 512.7Q326.1 513.6 325.2 514.3Q324.4 514.9 323.2 515.3Q322.1 515.6 320.6 515.6L320.6 515.6Q320.0 515.6 319.4 515.5Q318.8 515.5 318.3 515.3L318.3 515.3Q318.0 515.5 317.8 515.8Q317.6 516.0 317.6 516.4L317.6 516.4Q317.6 516.7 317.7 516.9Q317.9 517.1 318.2 517.2Q318.5 517.3 318.9 517.3Q319.3 517.4 319.7 517.4L319.7 517.4L323.0 517.4Q324.5 517.4 325.6 517.7Q326.7 518.0 327.4 518.6Q328.1 519.1 328.4 519.9Q328.7 520.6 328.7 521.5ZM324.8 521.9L324.8 521.9Q324.8 521.3 324.4 521.0Q323.9 520.7 322.6 520.7L322.6 520.7L317.7 520.7Q317.1 521.1 317.1 521.8L317.1 521.8Q317.1 522.5 317.7 522.9Q318.3 523.4 319.7 523.4L319.7 523.4L322.1 523.4Q323.5 523.4 324.2 523.0Q324.8 522.6 324.8 521.9ZM320.6 513.0L320.6 513.0Q321.9 513.0 322.5 512.4Q323.0 511.7 323.0 510.8L323.0 510.8L323.0 510.1Q323.0 509.2 322.5 508.6Q321.9 507.9 320.6 507.9L320.6 507.9Q319.4 507.9 318.8 508.6Q318.3 509.2 318.3 510.1L318.3 510.1L318.3 510.8Q318.3 511.7 318.8 512.4Q319.4 513.0 320.6 513.0ZM331.3 520.1L331.3 516.9L334.6 516.9L334.6 508.9L331.3 508.9L331.3 505.6L338.7 505.6L338.7 509.7L338.9 509.7Q339.1 508.9 339.5 508.2Q339.8 507.5 340.4 506.9Q340.9 506.3 341.7 506.0Q342.5 505.6 343.6 505.6L343.6 505.6L344.9 505.6L344.9 509.5L341.9 509.5Q340.3 509.5 339.5 510.4Q338.7 511.3 338.7 512.6L338.7 512.6L338.7 516.9L343.5 516.9L343.5 520.1L331.3 520.1Z " clip-path="url(#satori_cp-id-1-0-1-0-2)" mask="url(#satori_om-id-1-0-1-0-2)"/><clipPath id="satori_cp-id-1-0-1-1"><rect x="819" y="489" width="252" height="36"/></clipPath><mask id="satori_om-id-1-0-1-1"><rect x="819" y="489" width="252" height="36" fill="#fff"/></mask><path fill="black" d="M820.8 520.1L820.8 500.5L827.1 500.5Q831.0 500.5 832.9 503.1Q834.8 505.6 834.8 510.3L834.8 510.3Q834.8 515.1 832.9 517.6Q831.0 520.1 827.1 520.1L827.1 520.1L820.8 520.1ZM824.9 516.8L826.8 516.8Q828.7 516.8 829.6 515.6Q830.4 514.4 830.4 512.1L830.4 512.1L830.4 508.5Q830.4 506.3 829.6 505.1Q828.7 503.9 826.8 503.9L826.8 503.9L824.9 503.9L824.9 516.8ZM851.8 520.1L849.4 520.1Q848.1 520.1 847.4 519.4Q846.6 518.8 846.4 517.5L846.4 517.5L846.3 517.5Q845.9 519.0 844.7 519.7Q843.6 520.4 841.9 520.4L841.9 520.4Q839.8 520.4 838.5 519.3Q837.3 518.2 837.3 516.1L837.3 516.1Q837.3 513.8 838.9 512.8Q840.6 511.7 843.8 511.7L843.8 511.7L846.1 511.7L846.1 510.9Q846.1 509.6 845.5 509.0Q844.9 508.3 843.4 508.3L843.4 508.3Q842.1 508.3 841.3 508.8Q840.5 509.3 839.9 510.2L839.9 510.2L837.6 508.1Q838.4 506.9 839.9 506.1Q841.5 505.3 843.9 505.3L843.9 505.3Q846.9 505.3 848.6 506.7Q850.2 508.0 850.2 510.8L850.2 510.8L850.2 517.1L851.8 517.1L851.8 520.1ZM843.5 517.7L843.5 517.7Q844.6 517.7 845.3 517.2Q846.1 516.6 846.1 515.6L846.1 515.6L846.1 513.9L843.9 513.9Q841.3 513.9 841.3 515.6L841.3 515.6L841.3 516.2Q841.3 516.9 841.9 517.3Q842.5 517.7 843.5 517.7ZM868.9 521.5L868.9 521.5Q868.9 523.8 867.0 524.9Q865.1 526.0 860.9 526.0L860.9 526.0Q858.8 526.0 857.5 525.8Q856.2 525.6 855.4 525.1Q854.6 524.7 854.2 524.0Q853.9 523.4 853.9 522.7L853.9 522.7Q853.9 521.5 854.6 520.8Q855.4 520.2 856.7 519.9L856.7 519.9L856.7 519.7Q855.8 519.4 855.2 518.9Q854.7 518.4 854.7 517.4L854.7 517.4Q854.7 516.4 855.4 515.9Q856.1 515.4 857.3 515.1L857.3 515.1L857.3 514.9Q856.0 514.3 855.3 513.2Q854.6 512.1 854.6 510.5L854.6 510.5Q854.6 509.2 855.0 508.2Q855.5 507.3 856.3 506.6Q857.1 506.0 858.3 505.6Q859.4 505.3 860.8 505.3L860.8 505.3Q862.2 505.3 863.4 505.6L863.4 505.6L863.4 504.8Q863.4 504.0 864.0 503.4Q864.6 502.9 865.6 502.9L865.6 502.9L868.1 502.9L868.1 505.9L864.7 505.9L864.7 506.1Q865.8 506.8 866.5 507.8Q867.2 508.9 867.2 510.5L867.2 510.5Q867.2 511.7 866.7 512.7Q866.3 513.6 865.4 514.3Q864.6 514.9 863.4 515.3Q862.3 515.6 860.8 515.6L860.8 515.6Q860.2 515.6 859.6 515.5Q859.0 515.5 858.5 515.3L858.5 515.3Q858.2 515.5 858.0 515.8Q857.8 516.0 857.8 516.4L857.8 516.4Q857.8 516.7 857.9 516.9Q858.1 517.1 858.4 517.2Q858.7 517.3 859.1 517.3Q859.5 517.4 859.9 517.4L859.9 517.4L863.2 517.4Q864.7 517.4 865.8 517.7Q866.9 518.0 867.6 518.6Q868.3 519.1 868.6 519.9Q868.9 520.6 868.9 521.5ZM865.0 521.9L865.0 521.9Q865.0 521.3 864.6 521.0Q864.1 520.7 862.8 520.7L862.8 520.7L857.9 520.7Q857.3 521.1 857.3 521.8L857.3 521.8Q857.3 522.5 857.9 522.9Q858.5 523.4 859.9 523.4L859.9 523.4L862.3 523.4Q863.7 523.4 864.4 523.0Q865.0 522.6 865.0 521.9ZM860.8 513.0L860.8 513.0Q862.1 513.0 862.7 512.4Q863.2 511.7 863.2 510.8L863.2 510.8L863.2 510.1Q863.2 509.2 862.7 508.6Q862.1 507.9 860.8 507.9L860.8 507.9Q859.6 507.9 859.0 508.6Q858.5 509.2 858.5 510.1L858.5 510.1L858.5 510.8Q858.5 511.7 859.0 512.4Q859.6 513.0 860.8 513.0ZM871.5 520.1L871.5 516.9L874.8 516.9L874.8 508.9L871.5 508.9L871.5 505.6L878.9 505.6L878.9 509.7L879.1 509.7Q879.3 508.9 879.7 508.2Q880.0 507.5 880.6 506.9Q881.1 506.3 881.9 506.0Q882.7 505.6 883.8 505.6L883.8 505.6L885.1 505.6L885.1 509.5L882.1 509.5Q880.5 509.5 879.7 510.4Q878.9 511.3 878.9 512.6L878.9 512.6L878.9 516.9L883.7 516.9L883.7 520.1L871.5 520.1Z M919.7 520.1L915.2 520.1L913.9 515.4L908.6 515.4L907.4 520.1L903.1 520.1L908.4 500.5L914.4 500.5L919.7 520.1ZM913.3 512.0L911.4 504.6L911.2 504.6L909.3 512.0L913.3 512.0ZM928.0 520.4L928.0 520.4Q925.6 520.4 923.8 519.7Q922.1 519.0 921.2 517.7L921.2 517.7L923.5 515.6Q924.3 516.5 925.5 517.0Q926.6 517.5 928.1 517.5L928.1 517.5Q929.3 517.5 930.0 517.1Q930.7 516.8 930.7 516.0L930.7 516.0Q930.7 515.4 930.2 515.1Q929.7 514.9 928.9 514.7L928.9 514.7L926.6 514.4Q925.6 514.2 924.8 513.9Q923.9 513.7 923.3 513.1Q922.7 512.6 922.3 511.9Q922.0 511.2 922.0 510.2L922.0 510.2Q922.0 507.9 923.7 506.6Q925.4 505.3 928.6 505.3L928.6 505.3Q930.7 505.3 932.2 505.9Q933.7 506.5 934.6 507.5L934.6 507.5L932.5 509.9Q931.9 509.2 930.9 508.7Q929.9 508.2 928.4 508.2L928.4 508.2Q926.0 508.2 926.0 509.7L926.0 509.7Q926.0 510.3 926.5 510.6Q927.0 510.8 927.8 510.9L927.8 510.9L930.1 511.3Q931.1 511.4 931.9 511.7Q932.8 512.0 933.4 512.5Q934.0 513.0 934.4 513.8Q934.8 514.5 934.8 515.5L934.8 515.5Q934.8 517.8 933.0 519.1Q931.3 520.4 928.0 520.4ZM951.5 520.1L946.1 520.1Q943.9 520.1 942.8 518.9Q941.7 517.7 941.7 515.9L941.7 515.9L941.7 508.9L937.8 508.9L937.8 505.6L940.3 505.6Q941.2 505.6 941.6 505.3Q942.0 504.9 942.0 503.9L942.0 503.9L942.0 500.5L945.8 500.5L945.8 505.6L951.5 505.6L951.5 508.9L945.8 508.9L945.8 516.9L951.5 516.9L951.5 520.1ZM955.5 520.1L955.5 516.9L958.8 516.9L958.8 508.9L955.5 508.9L955.5 505.6L962.9 505.6L962.9 509.7L963.1 509.7Q963.3 508.9 963.7 508.2Q964.0 507.5 964.6 506.9Q965.1 506.3 965.9 506.0Q966.7 505.6 967.8 505.6L967.8 505.6L969.1 505.6L969.1 509.5L966.1 509.5Q964.5 509.5 963.7 510.4Q962.9 511.3 962.9 512.6L962.9 512.6L962.9 516.9L967.7 516.9L967.7 520.1L955.5 520.1ZM978.6 520.4L978.6 520.4Q976.9 520.4 975.6 519.9Q974.2 519.4 973.3 518.4Q972.4 517.4 971.9 516.0Q971.3 514.6 971.3 512.9L971.3 512.9Q971.3 511.1 971.9 509.7Q972.4 508.3 973.3 507.3Q974.2 506.3 975.6 505.8Q976.9 505.3 978.6 505.3L978.6 505.3Q980.3 505.3 981.6 505.8Q983.0 506.3 983.9 507.3Q984.8 508.3 985.3 509.7Q985.9 511.1 985.9 512.9L985.9 512.9Q985.9 514.6 985.3 516.0Q984.8 517.4 983.9 518.4Q983.0 519.4 981.6 519.9Q980.3 520.4 978.6 520.4ZM978.6 517.3L978.6 517.3Q980.0 517.3 980.8 516.5Q981.6 515.6 981.6 514.0L981.6 514.0L981.6 511.7Q981.6 510.1 980.8 509.3Q980.0 508.4 978.6 508.4L978.6 508.4Q977.2 508.4 976.4 509.3Q975.6 510.1 975.6 511.7L975.6 511.7L975.6 514.0Q975.6 515.6 976.4 516.5Q977.2 517.3 978.6 517.3Z M1006.0 520.1L1006.0 500.5L1012.8 500.5Q1015.7 500.5 1017.2 501.9Q1018.8 503.3 1018.8 505.8L1018.8 505.8Q1018.8 507.4 1017.9 508.4Q1017.1 509.4 1015.6 509.9L1015.6 509.9L1015.6 510.0Q1017.4 510.5 1018.4 511.6Q1019.4 512.7 1019.4 514.7L1019.4 514.7Q1019.4 517.2 1017.8 518.6Q1016.3 520.1 1013.5 520.1L1013.5 520.1L1006.0 520.1ZM1010.0 517.2L1012.2 517.2Q1013.7 517.2 1014.4 516.6Q1015.1 516.1 1015.1 514.8L1015.1 514.8L1015.1 514.0Q1015.1 512.6 1014.4 512.1Q1013.7 511.6 1012.2 511.6L1012.2 511.6L1010.0 511.6L1010.0 517.2ZM1010.0 508.8L1011.6 508.8Q1013.1 508.8 1013.8 508.3Q1014.5 507.9 1014.5 506.6L1014.5 506.6L1014.5 505.7Q1014.5 504.4 1013.8 504.0Q1013.1 503.5 1011.6 503.5L1011.6 503.5L1010.0 503.5L1010.0 508.8ZM1022.5 520.1L1022.5 516.9L1026.9 516.9L1026.9 502.6L1022.5 502.6L1022.5 499.4L1031.1 499.4L1031.1 516.9L1035.5 516.9L1035.5 520.1L1022.5 520.1ZM1045.8 520.4L1045.8 520.4Q1044.1 520.4 1042.8 519.9Q1041.4 519.4 1040.5 518.4Q1039.6 517.4 1039.1 516.0Q1038.5 514.6 1038.5 512.9L1038.5 512.9Q1038.5 511.1 1039.1 509.7Q1039.6 508.3 1040.5 507.3Q1041.4 506.3 1042.8 505.8Q1044.1 505.3 1045.8 505.3L1045.8 505.3Q1047.5 505.3 1048.8 505.8Q1050.2 506.3 1051.1 507.3Q1052.0 508.3 1052.5 509.7Q1053.1 511.1 1053.1 512.9L1053.1 512.9Q1053.1 514.6 1052.5 516.0Q1052.0 517.4 1051.1 518.4Q1050.2 519.4 1048.8 519.9Q1047.5 520.4 1045.8 520.4ZM1045.8 517.3L1045.8 517.3Q1047.2 517.3 1048.0 516.5Q1048.8 515.6 1048.8 514.0L1048.8 514.0L1048.8 511.7Q1048.8 510.1 1048.0 509.3Q1047.2 508.4 1045.8 508.4L1045.8 508.4Q1044.4 508.4 1043.6 509.3Q1042.8 510.1 1042.8 511.7L1042.8 511.7L1042.8 514.0Q1042.8 515.6 1043.6 516.5Q1044.4 517.3 1045.8 517.3ZM1070.5 521.5L1070.5 521.5Q1070.5 523.8 1068.6 524.9Q1066.7 526.0 1062.5 526.0L1062.5 526.0Q1060.4 526.0 1059.1 525.8Q1057.8 525.6 1057.0 525.1Q1056.2 524.7 1055.8 524.0Q1055.5 523.4 1055.5 522.7L1055.5 522.7Q1055.5 521.5 1056.2 520.8Q1057.0 520.2 1058.3 519.9L1058.3 519.9L1058.3 519.7Q1057.4 519.4 1056.8 518.9Q1056.3 518.4 1056.3 517.4L1056.3 517.4Q1056.3 516.4 1057.0 515.9Q1057.7 515.4 1058.9 515.1L1058.9 515.1L1058.9 514.9Q1057.6 514.3 1056.9 513.2Q1056.2 512.1 1056.2 510.5L1056.2 510.5Q1056.2 509.2 1056.6 508.2Q1057.1 507.3 1057.9 506.6Q1058.7 506.0 1059.9 505.6Q1061.0 505.3 1062.4 505.3L1062.4 505.3Q1063.8 505.3 1065.0 505.6L1065.0 505.6L1065.0 504.8Q1065.0 504.0 1065.6 503.4Q1066.2 502.9 1067.2 502.9L1067.2 502.9L1069.7 502.9L1069.7 505.9L1066.3 505.9L1066.3 506.1Q1067.4 506.8 1068.1 507.8Q1068.8 508.9 1068.8 510.5L1068.8 510.5Q1068.8 511.7 1068.3 512.7Q1067.9 513.6 1067.0 514.3Q1066.2 514.9 1065.0 515.3Q1063.9 515.6 1062.4 515.6L1062.4 515.6Q1061.8 515.6 1061.2 515.5Q1060.6 515.5 1060.1 515.3L1060.1 515.3Q1059.8 515.5 1059.6 515.8Q1059.4 516.0 1059.4 516.4L1059.4 516.4Q1059.4 516.7 1059.5 516.9Q1059.7 517.1 1060.0 517.2Q1060.3 517.3 1060.7 517.3Q1061.1 517.4 1061.5 517.4L1061.5 517.4L1064.8 517.4Q1066.3 517.4 1067.4 517.7Q1068.5 518.0 1069.2 518.6Q1069.9 519.1 1070.2 519.9Q1070.5 520.6 1070.5 521.5ZM1066.6 521.9L1066.6 521.9Q1066.6 521.3 1066.2 521.0Q1065.7 520.7 1064.4 520.7L1064.4 520.7L1059.5 520.7Q1058.9 521.1 1058.9 521.8L1058.9 521.8Q1058.9 522.5 1059.5 522.9Q1060.1 523.4 1061.5 523.4L1061.5 523.4L1063.9 523.4Q1065.3 523.4 1066.0 523.0Q1066.6 522.6 1066.6 521.9ZM1062.4 513.0L1062.4 513.0Q1063.7 513.0 1064.3 512.4Q1064.8 511.7 1064.8 510.8L1064.8 510.8L1064.8 510.1Q1064.8 509.2 1064.3 508.6Q1063.7 507.9 1062.4 507.9L1062.4 507.9Q1061.2 507.9 1060.6 508.6Q1060.1 509.2 1060.1 510.1L1060.1 510.1L1060.1 510.8Q1060.1 511.7 1060.6 512.4Q1061.2 513.0 1062.4 513.0Z " clip-path="url(#satori_cp-id-1-0-1-1)" mask="url(#satori_om-id-1-0-1-1)"/></svg>