<svg width="1200" height="630" viewBox="0 0 1200 630" xmlns="http://www.w3.org/2000/svg"><rect x="0" y="0" width="1200" height="630" fill="#fefbfb"/><defs><clipPath id="satori_bc-id-0"><path x="105" y="39" width="1056" height="504" d="M109,39 h1048 a4,4 0 0 1 4,4 v496 a4,4 0 0 1 -4,4 h-1048 a4,4 0 0 1 -4,-4 v-496 a4,4 0 0 1 4,-4"/></clipPath></defs><g opacity="0.9"><path x="105" y="39" width="1056" height="504" fill="#ecebeb" d="M109,39 h1048 a4,4 0 0 1 4,4 v496 a4,4 0 0 1 -4,4 h-1048 a4,4 0 0 1 -4,-4 v-496 a4,4 0 0 1 4,-4"/><path width="1056" height="504" clip-path="url(#satori_bc-id-0)" fill="none" stroke="#000" stroke-width="8" d="M106.172,40.172 A4,4 0 0 1 109,39 h1048 a4,4 0 0 1 4,4 v496 a4,4 0 0 1 -4,4 h-1048 a4,4 0 0 1 -4,-4 v-496 A4,4 0 0 1 106.172,40.172"/></g><defs><clipPath id="satori_bc-id-1"><path x="72" y="63" width="1056" height="504" d="M76,63 h1048 a4,4 0 0 1 4,4 v496 a4,4 0 0 1 -4,4 h-1048 a4,4 0 0 1 -4,-4 v-496 a4,4 0 0 1 4,-4"/></clipPath></defs><path x="72" y="63" width="1056" height="504" fill="#fefbfb" d="M76,63 h1048 a4,4 0 0 1 4,4 v496 a4,4 0 0 1 -4,4 h-1048 a4,4 0 0 1 -4,-4 v-496 a4,4 0 0 1 4,-4"/><path width="1056" height="504" clip-path="url(#satori_bc-id-1)" fill="none" stroke="#000" stroke-width="8" d="M73.172,64.172 A4,4 0 0 1 76,63 h1048 a4,4 0 0 1 4,4 v496 a4,4 0 0 1 -4,4 h-1048 a4,4 0 0 1 -4,-4 v-496 A4,4 0 0 1 73.172,64.172"/><clipPath id="satori_cp-id-1-0-0"><rect x="128" y="103" width="944" height="281"/></clipPath><mask id="satori_om-id-1-0-0"><rect x="128" y="103" width="944" height="281" fill="#fff"/></mask><path fill="black" d="M155.9 183.0L155.9 161.9L143.3 161.9L143.3 183.0L132.4 183.0L132.4 132.7L143.3 132.7L143.3 153.1L155.9 153.1L155.9 132.7L166.8 132.7L166.8 183.0L155.9 183.0ZM192.8 183.8L192.8 183.8Q188.5 183.8 185.0 182.5Q181.6 181.2 179.2 178.6Q176.7 176.1 175.4 172.5Q174.2 168.9 174.2 164.4L174.2 164.4Q174.2 159.8 175.4 156.2Q176.7 152.6 179.2 150.1Q181.6 147.6 185.0 146.3Q188.5 144.9 192.8 144.9L192.8 144.9Q197.1 144.9 200.6 146.3Q204.0 147.6 206.4 150.1Q208.9 152.6 210.2 156.2Q211.4 159.8 211.4 164.4L211.4 164.4Q211.4 168.9 210.2 172.5Q208.9 176.1 206.4 178.6Q204.0 181.2 200.6 182.5Q197.1 183.8 192.8 183.8ZM192.8 175.9L192.8 175.9Q196.4 175.9 198.4 173.7Q200.4 171.4 200.4 167.3L200.4 167.3L200.4 161.4Q200.4 157.3 198.4 155.1Q196.4 152.9 192.8 152.9L192.8 152.9Q189.2 152.9 187.2 155.1Q185.2 157.3 185.2 161.4L185.2 161.4L185.2 167.3Q185.2 171.4 187.2 173.7Q189.2 175.9 192.8 175.9ZM219.3 183.0L214.9 145.8L223.8 145.8L226.4 175.9L227.1 175.9L231.5 145.8L240.9 145.8L245.2 175.9L245.9 175.9L248.7 145.8L257.1 145.8L252.7 183.0L240.0 183.0L236.4 157.3L235.6 157.3L232.0 183.0L219.3 183.0Z M305.4 183.0L305.4 132.7L321.6 132.7Q331.8 132.7 336.7 139.2Q341.6 145.7 341.6 157.8L341.6 157.8Q341.6 170.0 336.7 176.5Q331.8 183.0 321.6 183.0L321.6 183.0L305.4 183.0ZM316.1 174.5L320.9 174.5Q325.7 174.5 327.9 171.4Q330.2 168.3 330.2 162.4L330.2 162.4L330.2 153.2Q330.2 147.4 327.9 144.3Q325.7 141.2 320.9 141.2L320.9 141.2L316.1 141.2L316.1 174.5ZM365.6 183.8L365.6 183.8Q361.3 183.8 357.8 182.5Q354.4 181.2 352.0 178.6Q349.5 176.1 348.2 172.5Q347.0 168.9 347.0 164.4L347.0 164.4Q347.0 159.8 348.2 156.2Q349.5 152.6 352.0 150.1Q354.4 147.6 357.8 146.3Q361.3 144.9 365.6 144.9L365.6 144.9Q369.9 144.9 373.4 146.3Q376.8 147.6 379.2 150.1Q381.7 152.6 383.0 156.2Q384.2 159.8 384.2 164.4L384.2 164.4Q384.2 168.9 383.0 172.5Q381.7 176.1 379.2 178.6Q376.8 181.2 373.4 182.5Q369.9 183.8 365.6 183.8ZM365.6 175.9L365.6 175.9Q369.2 175.9 371.2 173.7Q373.2 171.4 373.2 167.3L373.2 167.3L373.2 161.4Q373.2 157.3 371.2 155.1Q369.2 152.9 365.6 152.9L365.6 152.9Q362 152.9 360.0 155.1Q358.0 157.3 358.0 161.4L358.0 161.4L358.0 167.3Q358.0 171.4 360.0 173.7Q362 175.9 365.6 175.9Z M468.2 183.0L435.8 183.0L435.8 175.0L446.6 175.0L446.6 140.7L435.8 140.7L435.8 132.7L468.2 132.7L468.2 140.7L457.4 140.7L457.4 175.0L468.2 175.0L468.2 183.0Z M521.4 183.0L521.4 132.7L537.6 132.7Q547.8 132.7 552.7 139.2Q557.6 145.7 557.6 157.8L557.6 157.8Q557.6 170.0 552.7 176.5Q547.8 183.0 537.6 183.0L537.6 183.0L521.4 183.0ZM532.1 174.5L536.9 174.5Q541.7 174.5 543.9 171.4Q546.2 168.3 546.2 162.4L546.2 162.4L546.2 153.2Q546.2 147.4 543.9 144.3Q541.7 141.2 536.9 141.2L536.9 141.2L532.1 141.2L532.1 174.5ZM582.6 183.8L582.6 183.8Q573.2 183.8 568.4 178.6Q563.6 173.4 563.6 164.5L563.6 164.5Q563.6 160.0 564.9 156.3Q566.1 152.7 568.5 150.2Q570.8 147.6 574.1 146.3Q577.5 144.9 581.7 144.9L581.7 144.9Q585.8 144.9 589.2 146.3Q592.5 147.6 594.8 150.0Q597.1 152.5 598.3 156.0Q599.6 159.5 599.6 163.8L599.6 163.8L599.6 167.0L574.2 167.0L574.2 167.6Q574.2 171.2 576.4 173.4Q578.6 175.6 583.0 175.6L583.0 175.6Q586.3 175.6 588.7 174.3Q591.0 173.1 592.8 171.0L592.8 171.0L598.5 177.3Q596.4 179.9 592.5 181.9Q588.6 183.8 582.6 183.8ZM581.7 152.6L581.7 152.6Q578.3 152.6 576.2 154.7Q574.2 156.8 574.2 160.4L574.2 160.4L574.2 161.0L589.2 161.0L589.2 160.4Q589.2 156.7 587.2 154.7Q585.2 152.6 581.7 152.6ZM631.1 183.0L618.5 183.0L605.1 145.8L616.4 145.8L621.2 161.7L624.7 174.1L625.3 174.1L628.8 161.7L633.7 145.8L644.5 145.8L631.1 183.0ZM669.0 183.8L669.0 183.8Q659.6 183.8 654.8 178.6Q650.0 173.4 650.0 164.5L650.0 164.5Q650.0 160.0 651.3 156.3Q652.5 152.7 654.9 150.2Q657.2 147.6 660.5 146.3Q663.9 144.9 668.1 144.9L668.1 144.9Q672.2 144.9 675.6 146.3Q678.9 147.6 681.2 150.0Q683.5 152.5 684.7 156.0Q686.0 159.5 686.0 163.8L686.0 163.8L686.0 167.0L660.6 167.0L660.6 167.6Q660.6 171.2 662.8 173.4Q665.0 175.6 669.4 175.6L669.4 175.6Q672.7 175.6 675.1 174.3Q677.4 173.1 679.2 171.0L679.2 171.0L684.9 177.3Q682.8 179.9 678.9 181.9Q675.0 183.8 669.0 183.8ZM668.1 152.6L668.1 152.6Q664.7 152.6 662.6 154.7Q660.6 156.8 660.6 160.4L660.6 160.4L660.6 161.0L675.6 161.0L675.6 160.4Q675.6 156.7 673.6 154.7Q671.6 152.6 668.1 152.6ZM694.5 183.0L694.5 174.7L705.9 174.7L705.9 138.0L694.5 138.0L694.5 129.7L716.5 129.7L716.5 174.7L727.9 174.7L727.9 183.0L694.5 183.0ZM754.4 183.8L754.4 183.8Q750.1 183.8 746.6 182.5Q743.2 181.2 740.8 178.6Q738.3 176.1 737.0 172.5Q735.8 168.9 735.8 164.4L735.8 164.4Q735.8 159.8 737.0 156.2Q738.3 152.6 740.8 150.1Q743.2 147.6 746.6 146.3Q750.1 144.9 754.4 144.9L754.4 144.9Q758.7 144.9 762.2 146.3Q765.6 147.6 768.0 150.1Q770.5 152.6 771.8 156.2Q773.0 159.8 773.0 164.4L773.0 164.4Q773.0 168.9 771.8 172.5Q770.5 176.1 768.0 178.6Q765.6 181.2 762.2 182.5Q758.7 183.8 754.4 183.8ZM754.4 175.9L754.4 175.9Q758.0 175.9 760.0 173.7Q762.0 171.4 762.0 167.3L762.0 167.3L762.0 161.4Q762.0 157.3 760.0 155.1Q758.0 152.9 754.4 152.9L754.4 152.9Q750.8 152.9 748.8 155.1Q746.8 157.3 746.8 161.4L746.8 161.4L746.8 167.3Q746.8 171.4 748.8 173.7Q750.8 175.9 754.4 175.9ZM780.2 197.4L780.2 145.8L790.9 145.8L790.9 152.6L791.4 152.6Q792.8 149.3 795.4 147.1Q798.0 144.9 802.4 144.9L802.4 144.9Q805.5 144.9 808.1 146.1Q810.6 147.2 812.5 149.6Q814.3 152.0 815.3 155.7Q816.4 159.3 816.4 164.4L816.4 164.4Q816.4 169.4 815.3 173.1Q814.3 176.8 812.5 179.1Q810.6 181.5 808.1 182.7Q805.5 183.8 802.4 183.8L802.4 183.8Q798.0 183.8 795.4 181.7Q792.8 179.6 791.4 176.2L791.4 176.2L790.9 176.2L790.9 197.4L780.2 197.4ZM797.8 175.5L797.8 175.5Q801.4 175.5 803.4 173.3Q805.3 171.1 805.3 167.3L805.3 167.3L805.3 161.5Q805.3 157.6 803.4 155.4Q801.4 153.2 797.8 153.2L797.8 153.2Q795.0 153.2 793.0 154.6Q790.9 156.0 790.9 158.9L790.9 158.9L790.9 169.8Q790.9 172.8 793.0 174.2Q795.0 175.5 797.8 175.5Z M893.4 183.0L893.4 160.6L894.0 146.5L893.4 146.5L884.0 172.4L874.6 146.5L874.0 146.5L874.6 160.6L874.6 183.0L865.2 183.0L865.2 132.7L878.0 132.7L884.1 149.6L884.7 149.6L890.9 132.7L902.8 132.7L902.8 183.0L893.4 183.0ZM931.0 161.4L936.6 145.8L947.4 145.8L929.9 188.9Q928.3 193.0 925.5 195.2Q922.8 197.4 918.1 197.4L918.1 197.4L910.7 197.4L910.7 189.1L919.6 189.1L921.9 182.7L907.0 145.8L918.4 145.8L923.8 161.4L927.2 172.2L927.8 172.2L931.0 161.4Z M169.5 235.2L155 235.2L155 276.6L144.2 276.6L144.2 235.2L129.7 235.2L129.7 226.3L169.5 226.3L169.5 235.2ZM193.8 277.4L193.8 277.4Q184.4 277.4 179.6 272.2Q174.8 267.0 174.8 258.1L174.8 258.1Q174.8 253.6 176.1 249.9Q177.3 246.3 179.7 243.8Q182 241.2 185.3 239.9Q188.7 238.5 192.9 238.5L192.9 238.5Q197.0 238.5 200.4 239.9Q203.7 241.2 206.0 243.6Q208.3 246.1 209.5 249.6Q210.8 253.1 210.8 257.4L210.8 257.4L210.8 260.6L185.4 260.6L185.4 261.2Q185.4 264.8 187.6 267.0Q189.8 269.2 194.2 269.2L194.2 269.2Q197.5 269.2 199.9 267.9Q202.2 266.7 204.0 264.6L204.0 264.6L209.7 270.9Q207.6 273.5 203.7 275.5Q199.8 277.4 193.8 277.4ZM192.9 246.2L192.9 246.2Q189.5 246.2 187.4 248.3Q185.4 250.4 185.4 254.0L185.4 254.0L185.4 254.6L200.4 254.6L200.4 254.0Q200.4 250.3 198.4 248.3Q196.4 246.2 192.9 246.2ZM219.7 276.6L219.7 268.3L228.3 268.3L228.3 247.7L219.7 247.7L219.7 239.4L239.0 239.4L239.0 249.9L239.5 249.9Q240.0 247.9 240.9 246.0Q241.8 244.1 243.2 242.6Q244.6 241.1 246.6 240.3Q248.6 239.4 251.3 239.4L251.3 239.4L254.9 239.4L254.9 249.2L246.9 249.2Q243.0 249.2 241.0 251.5Q239.0 253.9 239.0 257.3L239.0 257.3L239.0 268.3L251.2 268.3L251.2 276.6L219.7 276.6ZM268.3 276.6L259.8 276.6L259.8 239.4L268.3 239.4L268.3 244.9L268.8 244.9Q269.7 242.3 271.3 240.4Q272.9 238.5 275.9 238.5L275.9 238.5Q281.3 238.5 282.5 244.9L282.5 244.9L282.9 244.9Q283.4 243.6 284.0 242.4Q284.7 241.3 285.6 240.4Q286.5 239.5 287.8 239.0Q289.1 238.5 290.9 238.5L290.9 238.5Q298.6 238.5 298.6 250.0L298.6 250.0L298.6 276.6L290.1 276.6L290.1 251.1Q290.1 248.5 289.2 247.4Q288.3 246.4 286.8 246.4L286.8 246.4Q285.5 246.4 284.5 247.3Q283.5 248.2 283.5 250.1L283.5 250.1L283.5 276.6L274.9 276.6L274.9 251.1Q274.9 248.5 274.1 247.4Q273.2 246.4 271.8 246.4L271.8 246.4Q270.3 246.4 269.3 247.3Q268.3 248.2 268.3 250.1L268.3 250.1L268.3 276.6ZM324.7 234.6L324.7 234.6Q321.1 234.6 319.7 233.2Q318.3 231.7 318.3 229.6L318.3 229.6L318.3 227.5Q318.3 225.4 319.7 223.9Q321.1 222.5 324.7 222.5L324.7 222.5Q328.3 222.5 329.7 223.9Q331.1 225.4 331.1 227.5L331.1 227.5L331.1 229.6Q331.1 231.7 329.7 233.2Q328.3 234.6 324.7 234.6ZM307.6 276.6L307.6 268.3L319.4 268.3L319.4 247.7L307.6 247.7L307.6 239.4L330.0 239.4L330.0 268.3L341.0 268.3L341.0 276.6L307.6 276.6ZM359.3 276.6L348.7 276.6L348.7 239.4L359.3 239.4L359.3 246.2L359.8 246.2Q360.4 244.6 361.4 243.2Q362.3 241.8 363.6 240.8Q365.0 239.8 366.7 239.1Q368.5 238.5 370.7 238.5L370.7 238.5Q373.4 238.5 375.6 239.4Q377.8 240.3 379.4 242.1Q381.0 243.9 381.9 246.5Q382.8 249.1 382.8 252.5L382.8 252.5L382.8 276.6L372.2 276.6L372.2 253.9Q372.2 246.7 365.9 246.7L365.9 246.7Q364.7 246.7 363.5 247.1Q362.3 247.4 361.4 248.1Q360.4 248.8 359.9 249.8Q359.3 250.8 359.3 252.1L359.3 252.1L359.3 276.6ZM428.4 276.6L422.3 276.6Q419.0 276.6 416.9 274.9Q414.9 273.2 414.6 270.0L414.6 270.0L414.2 270.0Q413.2 273.7 410.2 275.5Q407.2 277.4 402.9 277.4L402.9 277.4Q397.5 277.4 394.2 274.5Q390.9 271.6 390.9 266.3L390.9 266.3Q390.9 260.5 395.2 257.7Q399.4 254.9 407.6 254.9L407.6 254.9L413.6 254.9L413.6 253.0Q413.6 249.7 412.1 248.0Q410.5 246.3 406.9 246.3L406.9 246.3Q403.5 246.3 401.4 247.6Q399.3 248.9 397.8 251.0L397.8 251.0L392.0 245.8Q393.8 242.6 397.8 240.6Q401.8 238.5 408.1 238.5L408.1 238.5Q415.7 238.5 420.0 242.0Q424.3 245.5 424.3 252.6L424.3 252.6L424.3 268.8L428.4 268.8L428.4 276.6ZM406.9 270.4L406.9 270.4Q409.7 270.4 411.7 269.1Q413.6 267.7 413.6 265.1L413.6 265.1L413.6 260.6L407.9 260.6Q401.4 260.6 401.4 265.0L401.4 265.0L401.4 266.5Q401.4 268.4 402.9 269.4Q404.4 270.4 406.9 270.4ZM435.3 276.6L435.3 268.3L446.7 268.3L446.7 231.6L435.3 231.6L435.3 223.3L457.3 223.3L457.3 268.3L468.7 268.3L468.7 276.6L435.3 276.6Z M533.1 276.6L522.3 276.6L522.3 226.3L541.7 226.3Q545.4 226.3 548.3 227.4Q551.1 228.5 553.1 230.6Q555.1 232.7 556.1 235.7Q557.1 238.6 557.1 242.3L557.1 242.3Q557.1 246.0 556.1 248.9Q555.1 251.9 553.1 253.9Q551.1 256.0 548.3 257.1Q545.4 258.3 541.7 258.3L541.7 258.3L533.1 258.3L533.1 276.6ZM533.1 235.0L533.1 249.6L539.0 249.6Q542.8 249.6 544.3 248.1Q545.7 246.7 545.7 243.4L545.7 243.4L545.7 241.2Q545.7 237.9 544.3 236.4Q542.8 235.0 539.0 235.0L539.0 235.0L533.1 235.0ZM581.6 277.4L581.6 277.4Q577.3 277.4 573.8 276.1Q570.4 274.8 568.0 272.2Q565.5 269.7 564.2 266.1Q563.0 262.5 563.0 258.0L563.0 258.0Q563.0 253.4 564.2 249.8Q565.5 246.2 568.0 243.7Q570.4 241.2 573.8 239.9Q577.3 238.5 581.6 238.5L581.6 238.5Q585.9 238.5 589.4 239.9Q592.8 241.2 595.2 243.7Q597.7 246.2 599.0 249.8Q600.2 253.4 600.2 258.0L600.2 258.0Q600.2 262.5 599.0 266.1Q597.7 269.7 595.2 272.2Q592.8 274.8 589.4 276.1Q585.9 277.4 581.6 277.4ZM581.6 269.5L581.6 269.5Q585.2 269.5 587.2 267.3Q589.2 265.0 589.2 260.9L589.2 260.9L589.2 255.0Q589.2 250.9 587.2 248.7Q585.2 246.5 581.6 246.5L581.6 246.5Q578 246.5 576.0 248.7Q574.0 250.9 574.0 255.0L574.0 255.0L574.0 260.9Q574.0 265.0 576.0 267.3Q578 269.5 581.6 269.5ZM608.5 276.6L608.5 268.3L617.1 268.3L617.1 247.7L608.5 247.7L608.5 239.4L627.8 239.4L627.8 249.9L628.3 249.9Q628.8 247.9 629.7 246.0Q630.6 244.1 632.0 242.6Q633.4 241.1 635.4 240.3Q637.4 239.4 640.1 239.4L640.1 239.4L643.7 239.4L643.7 249.2L635.7 249.2Q631.8 249.2 629.8 251.5Q627.8 253.9 627.8 257.3L627.8 257.3L627.8 268.3L640.0 268.3L640.0 276.6L608.5 276.6ZM684.6 276.6L670.9 276.6Q665.1 276.6 662.3 273.5Q659.5 270.5 659.5 265.8L659.5 265.8L659.5 247.7L649.4 247.7L649.4 239.4L656.0 239.4Q658.4 239.4 659.4 238.5Q660.4 237.5 660.4 235.0L660.4 235.0L660.4 226.3L670.2 226.3L670.2 239.4L684.6 239.4L684.6 247.7L670.2 247.7L670.2 268.3L684.6 268.3L684.6 276.6ZM694.7 276.6L694.7 268.3L705.7 268.3L705.7 247.7L694.0 247.7L694.0 239.4L705.7 239.4L705.7 234.0Q705.7 229.2 708.4 226.3Q711.2 223.3 717.0 223.3L717.0 223.3L729.6 223.3L729.6 231.6L716.3 231.6L716.3 239.4L729.6 239.4L729.6 247.7L716.3 247.7L716.3 268.3L728.0 268.3L728.0 276.6L694.7 276.6ZM754.4 277.4L754.4 277.4Q750.1 277.4 746.6 276.1Q743.2 274.8 740.8 272.2Q738.3 269.7 737.0 266.1Q735.8 262.5 735.8 258.0L735.8 258.0Q735.8 253.4 737.0 249.8Q738.3 246.2 740.8 243.7Q743.2 241.2 746.6 239.9Q750.1 238.5 754.4 238.5L754.4 238.5Q758.7 238.5 762.2 239.9Q765.6 241.2 768.0 243.7Q770.5 246.2 771.8 249.8Q773.0 253.4 773.0 258.0L773.0 258.0Q773.0 262.5 771.8 266.1Q770.5 269.7 768.0 272.2Q765.6 274.8 762.2 276.1Q758.7 277.4 754.4 277.4ZM754.4 269.5L754.4 269.5Q758.0 269.5 760.0 267.3Q762.0 265.0 762.0 260.9L762.0 260.9L762.0 255.0Q762.0 250.9 760.0 248.7Q758.0 246.5 754.4 246.5L754.4 246.5Q750.8 246.5 748.8 248.7Q746.8 250.9 746.8 255.0L746.8 255.0L746.8 260.9Q746.8 265.0 748.8 267.3Q750.8 269.5 754.4 269.5ZM780.9 276.6L780.9 268.3L792.3 268.3L792.3 231.6L780.9 231.6L780.9 223.3L802.9 223.3L802.9 268.3L814.3 268.3L814.3 276.6L780.9 276.6ZM843.1 234.6L843.1 234.6Q839.5 234.6 838.1 233.2Q836.7 231.7 836.7 229.6L836.7 229.6L836.7 227.5Q836.7 225.4 838.1 223.9Q839.5 222.5 843.1 222.5L843.1 222.5Q846.7 222.5 848.1 223.9Q849.5 225.4 849.5 227.5L849.5 227.5L849.5 229.6Q849.5 231.7 848.1 233.2Q846.7 234.6 843.1 234.6ZM826.0 276.6L826.0 268.3L837.8 268.3L837.8 247.7L826.0 247.7L826.0 239.4L848.4 239.4L848.4 268.3L859.4 268.3L859.4 276.6L826.0 276.6ZM884.0 277.4L884.0 277.4Q879.7 277.4 876.2 276.1Q872.8 274.8 870.4 272.2Q867.9 269.7 866.6 266.1Q865.4 262.5 865.4 258.0L865.4 258.0Q865.4 253.4 866.6 249.8Q867.9 246.2 870.4 243.7Q872.8 241.2 876.2 239.9Q879.7 238.5 884.0 238.5L884.0 238.5Q888.3 238.5 891.8 239.9Q895.2 241.2 897.6 243.7Q900.1 246.2 901.4 249.8Q902.6 253.4 902.6 258.0L902.6 258.0Q902.6 262.5 901.4 266.1Q900.1 269.7 897.6 272.2Q895.2 274.8 891.8 276.1Q888.3 277.4 884.0 277.4ZM884.0 269.5L884.0 269.5Q887.6 269.5 889.6 267.3Q891.6 265.0 891.6 260.9L891.6 260.9L891.6 255.0Q891.6 250.9 889.6 248.7Q887.6 246.5 884.0 246.5L884.0 246.5Q880.4 246.5 878.4 248.7Q876.4 250.9 876.4 255.0L876.4 255.0L876.4 260.9Q876.4 265.0 878.4 267.3Q880.4 269.5 884.0 269.5Z M145.6 370.2L131.9 370.2L128.8 319.9L138.1 319.9L139.5 350.0L140.0 359.5L140.6 359.5L144.9 330.8L154.6 330.8L159.0 359.5L159.6 359.5L160.0 350.3L161.5 319.9L170.4 319.9L167.3 370.2L153.6 370.2L150.0 342.4L149.2 342.4L145.6 370.2ZM193.8 371.0L193.8 371.0Q184.4 371.0 179.6 365.8Q174.8 360.6 174.8 351.7L174.8 351.7Q174.8 347.2 176.1 343.5Q177.3 339.9 179.7 337.4Q182 334.8 185.3 333.5Q188.7 332.1 192.9 332.1L192.9 332.1Q197.0 332.1 200.4 333.5Q203.7 334.8 206.0 337.2Q208.3 339.7 209.5 343.2Q210.8 346.7 210.8 351.0L210.8 351.0L210.8 354.2L185.4 354.2L185.4 354.8Q185.4 358.4 187.6 360.6Q189.8 362.8 194.2 362.8L194.2 362.8Q197.5 362.8 199.9 361.5Q202.2 360.3 204.0 358.2L204.0 358.2L209.7 364.5Q207.6 367.1 203.7 369.1Q199.8 371.0 193.8 371.0ZM192.9 339.8L192.9 339.8Q189.5 339.8 187.4 341.9Q185.4 344.0 185.4 347.6L185.4 347.6L185.4 348.2L200.4 348.2L200.4 347.6Q200.4 343.9 198.4 341.9Q196.4 339.8 192.9 339.8ZM218.6 370.2L218.6 316.9L229.3 316.9L229.3 339.8L229.8 339.8Q231.2 336.5 233.8 334.3Q236.4 332.1 240.8 332.1L240.8 332.1Q243.9 332.1 246.5 333.3Q249.0 334.4 250.9 336.8Q252.7 339.2 253.7 342.9Q254.8 346.5 254.8 351.6L254.8 351.6Q254.8 356.6 253.7 360.3Q252.7 364.0 250.9 366.3Q249.0 368.7 246.5 369.9Q243.9 371.0 240.8 371.0L240.8 371.0Q236.4 371.0 233.8 368.9Q231.2 366.8 229.8 363.4L229.8 363.4L229.3 363.4L229.3 370.2L218.6 370.2ZM236.2 362.7L236.2 362.7Q239.8 362.7 241.8 360.5Q243.7 358.3 243.7 354.5L243.7 354.5L243.7 348.7Q243.7 344.8 241.8 342.6Q239.8 340.4 236.2 340.4L236.2 340.4Q233.4 340.4 231.4 341.8Q229.3 343.2 229.3 346.1L229.3 346.1L229.3 357.0Q229.3 360.0 231.4 361.4Q233.4 362.7 236.2 362.7ZM278.8 371.0L278.8 371.0Q272.6 371.0 268.0 369.1Q263.4 367.3 261.1 364.0L261.1 364.0L267.1 358.5Q269.3 360.9 272.2 362.2Q275.1 363.5 278.8 363.5L278.8 363.5Q282.0 363.5 283.8 362.6Q285.6 361.6 285.6 359.6L285.6 359.6Q285.6 358.0 284.4 357.4Q283.2 356.8 281.0 356.4L281.0 356.4L275.0 355.5Q272.5 355.1 270.3 354.3Q268.2 353.6 266.6 352.3Q265.0 351.0 264.1 349.1Q263.1 347.3 263.1 344.6L263.1 344.6Q263.1 338.8 267.6 335.4Q272.1 332.1 280.1 332.1L280.1 332.1Q285.6 332.1 289.5 333.6Q293.3 335.1 295.6 337.8L295.6 337.8L290.3 343.9Q288.6 342.1 286.0 340.8Q283.4 339.6 279.8 339.6L279.8 339.6Q273.6 339.6 273.6 343.4L273.6 343.4Q273.6 345.0 274.8 345.6Q276.0 346.2 278.2 346.6L278.2 346.6L284.1 347.5Q286.6 347.9 288.8 348.7Q290.9 349.4 292.6 350.7Q294.2 352.0 295.1 353.9Q296.0 355.8 296.0 358.4L296.0 358.4Q296.0 364.2 291.5 367.6Q287.0 371.0 278.8 371.0ZM324.7 328.2L324.7 328.2Q321.1 328.2 319.7 326.8Q318.3 325.3 318.3 323.2L318.3 323.2L318.3 321.1Q318.3 319.0 319.7 317.5Q321.1 316.1 324.7 316.1L324.7 316.1Q328.3 316.1 329.7 317.5Q331.1 319.0 331.1 321.1L331.1 321.1L331.1 323.2Q331.1 325.3 329.7 326.8Q328.3 328.2 324.7 328.2ZM307.6 370.2L307.6 361.9L319.4 361.9L319.4 341.3L307.6 341.3L307.6 333.0L330.0 333.0L330.0 361.9L341.0 361.9L341.0 370.2L307.6 370.2ZM382.2 370.2L368.5 370.2Q362.7 370.2 359.9 367.1Q357.1 364.1 357.1 359.4L357.1 359.4L357.1 341.3L347.0 341.3L347.0 333.0L353.6 333.0Q356.0 333.0 357.0 332.1Q358.0 331.1 358.0 328.6L358.0 328.6L358.0 319.9L367.8 319.9L367.8 333.0L382.2 333.0L382.2 341.3L367.8 341.3L367.8 361.9L382.2 361.9L382.2 370.2ZM409.8 371.0L409.8 371.0Q400.4 371.0 395.6 365.8Q390.8 360.6 390.8 351.7L390.8 351.7Q390.8 347.2 392.1 343.5Q393.3 339.9 395.7 337.4Q398.0 334.8 401.3 333.5Q404.7 332.1 408.9 332.1L408.9 332.1Q413.0 332.1 416.4 333.5Q419.7 334.8 422.0 337.2Q424.3 339.7 425.5 343.2Q426.8 346.7 426.8 351.0L426.8 351.0L426.8 354.2L401.4 354.2L401.4 354.8Q401.4 358.4 403.6 360.6Q405.8 362.8 410.2 362.8L410.2 362.8Q413.5 362.8 415.9 361.5Q418.2 360.3 420.0 358.2L420.0 358.2L425.7 364.5Q423.6 367.1 419.7 369.1Q415.8 371.0 409.8 371.0ZM408.9 339.8L408.9 339.8Q405.5 339.8 403.4 341.9Q401.4 344.0 401.4 347.6L401.4 347.6L401.4 348.2L416.4 348.2L416.4 347.6Q416.4 343.9 414.4 341.9Q412.4 339.8 408.9 339.8Z M478.5 370.2L474.1 333.0L483.0 333.0L485.6 363.1L486.3 363.1L490.7 333.0L500.1 333.0L504.4 363.1L505.1 363.1L507.9 333.0L516.3 333.0L511.9 370.2L499.2 370.2L495.6 344.5L494.8 344.5L491.2 370.2L478.5 370.2ZM540.7 328.2L540.7 328.2Q537.1 328.2 535.7 326.8Q534.3 325.3 534.3 323.2L534.3 323.2L534.3 321.1Q534.3 319.0 535.7 317.5Q537.1 316.1 540.7 316.1L540.7 316.1Q544.3 316.1 545.7 317.5Q547.1 319.0 547.1 321.1L547.1 321.1L547.1 323.2Q547.1 325.3 545.7 326.8Q544.3 328.2 540.7 328.2ZM523.6 370.2L523.6 361.9L535.4 361.9L535.4 341.3L523.6 341.3L523.6 333.0L546.0 333.0L546.0 361.9L557.0 361.9L557.0 370.2L523.6 370.2ZM598.2 370.2L584.5 370.2Q578.7 370.2 575.9 367.1Q573.1 364.1 573.1 359.4L573.1 359.4L573.1 341.3L563.0 341.3L563.0 333.0L569.6 333.0Q572.0 333.0 573.0 332.1Q574.0 331.1 574.0 328.6L574.0 328.6L574.0 319.9L583.8 319.9L583.8 333.0L598.2 333.0L598.2 341.3L583.8 341.3L583.8 361.9L598.2 361.9L598.2 370.2ZM607.9 370.2L607.9 316.9L618.5 316.9L618.5 339.8L619.0 339.8Q619.6 338.2 620.6 336.8Q621.5 335.4 622.8 334.4Q624.2 333.4 625.9 332.7Q627.7 332.1 629.9 332.1L629.9 332.1Q632.6 332.1 634.8 333.0Q637.0 333.9 638.6 335.7Q640.2 337.5 641.1 340.1Q642.0 342.7 642.0 346.1L642.0 346.1L642.0 370.2L631.4 370.2L631.4 347.5Q631.4 340.3 625.1 340.3L625.1 340.3Q623.9 340.3 622.7 340.7Q621.5 341.0 620.6 341.7Q619.6 342.4 619.1 343.4Q618.5 344.4 618.5 345.7L618.5 345.7L618.5 370.2L607.9 370.2Z M705.7 351.5L705.7 370.2L695.1 370.2L695.1 319.9L714.5 319.9Q718.2 319.9 721.1 321.0Q723.9 322.1 725.9 324.2Q727.9 326.3 728.9 329.3Q729.9 332.2 729.9 335.9L729.9 335.9Q729.9 341.2 727.6 345.0Q725.3 348.8 721.1 350.1L721.1 350.1L730.9 370.2L719.1 370.2L710.7 351.5L705.7 351.5ZM705.7 343.2L711.9 343.2Q715.7 343.2 717.2 341.7Q718.7 340.3 718.7 337.0L718.7 337.0L718.7 334.8Q718.7 331.5 717.2 330.0Q715.7 328.6 711.9 328.6L711.9 328.6L705.7 328.6L705.7 343.2ZM755.4 371.0L755.4 371.0Q746.0 371.0 741.2 365.8Q736.4 360.6 736.4 351.7L736.4 351.7Q736.4 347.2 737.7 343.5Q738.9 339.9 741.3 337.4Q743.6 334.8 746.9 333.5Q750.3 332.1 754.5 332.1L754.5 332.1Q758.6 332.1 762.0 333.5Q765.3 334.8 767.6 337.2Q769.9 339.7 771.1 343.2Q772.4 346.7 772.4 351.0L772.4 351.0L772.4 354.2L747.0 354.2L747.0 354.8Q747.0 358.4 749.2 360.6Q751.4 362.8 755.8 362.8L755.8 362.8Q759.1 362.8 761.5 361.5Q763.8 360.3 765.6 358.2L765.6 358.2L771.3 364.5Q769.2 367.1 765.3 369.1Q761.4 371.0 755.4 371.0ZM754.5 339.8L754.5 339.8Q751.1 339.8 749.0 341.9Q747.0 344.0 747.0 347.6L747.0 347.6L747.0 348.2L762.0 348.2L762.0 347.6Q762.0 343.9 760.0 341.9Q758 339.8 754.5 339.8ZM817.2 370.2L811.1 370.2Q807.8 370.2 805.7 368.5Q803.7 366.8 803.4 363.6L803.4 363.6L803 363.6Q802.0 367.3 799.0 369.1Q796.0 371.0 791.7 371.0L791.7 371.0Q786.3 371.0 783.0 368.1Q779.7 365.2 779.7 359.9L779.7 359.9Q779.7 354.1 784.0 351.3Q788.2 348.5 796.4 348.5L796.4 348.5L802.4 348.5L802.4 346.6Q802.4 343.3 800.9 341.6Q799.3 339.9 795.7 339.9L795.7 339.9Q792.3 339.9 790.2 341.2Q788.1 342.5 786.6 344.6L786.6 344.6L780.8 339.4Q782.6 336.2 786.6 334.2Q790.6 332.1 796.9 332.1L796.9 332.1Q804.5 332.1 808.8 335.6Q813.1 339.1 813.1 346.2L813.1 346.2L813.1 362.4L817.2 362.4L817.2 370.2ZM795.7 364.0L795.7 364.0Q798.5 364.0 800.5 362.7Q802.4 361.3 802.4 358.7L802.4 358.7L802.4 354.2L796.7 354.2Q790.2 354.2 790.2 358.6L790.2 358.6L790.2 360.1Q790.2 362.0 791.7 363.0Q793.2 364.0 795.7 364.0ZM842.3 371.0L842.3 371.0Q837.9 371.0 834.4 369.7Q830.9 368.4 828.5 365.8Q826.1 363.3 824.8 359.7Q823.5 356.1 823.5 351.6L823.5 351.6Q823.5 347.0 824.8 343.4Q826.1 339.8 828.5 337.3Q830.9 334.8 834.4 333.5Q837.9 332.1 842.2 332.1L842.2 332.1Q848.4 332.1 852.1 334.6Q855.8 337.1 857.7 341.2L857.7 341.2L849.5 345.7Q848.5 343.5 846.9 342.1Q845.3 340.6 842.2 340.6L842.2 340.6Q838.6 340.6 836.6 342.8Q834.6 344.9 834.6 348.6L834.6 348.6L834.6 354.6Q834.6 358.3 836.6 360.4Q838.6 362.5 842.4 362.5L842.4 362.5Q845.5 362.5 847.2 361.1Q849.0 359.6 850.2 357.3L850.2 357.3L858.3 361.9Q856.3 366.0 852.4 368.5Q848.6 371.0 842.3 371.0ZM900.6 370.2L886.9 370.2Q881.1 370.2 878.3 367.1Q875.5 364.1 875.5 359.4L875.5 359.4L875.5 341.3L865.4 341.3L865.4 333.0L872.0 333.0Q874.4 333.0 875.4 332.1Q876.4 331.1 876.4 328.6L876.4 328.6L876.4 319.9L886.2 319.9L886.2 333.0L900.6 333.0L900.6 341.3L886.2 341.3L886.2 361.9L900.6 361.9L900.6 370.2Z " clip-path="url(#satori_cp-id-1-0-0)" mask="url(#satori_om-id-1-0-0)"/><path fill="black" d="M130.7 520.3L130.7 499.6L132.9 499.6L132.9 508.2L133.0 508.2Q134.4 505.5 137.5 505.5L137.5 505.5Q140.1 505.5 141.6 507.5Q143.1 509.5 143.1 513.0L143.1 513.0Q143.1 516.6 141.6 518.6Q140.1 520.6 137.5 520.6L137.5 520.6Q134.4 520.6 133.0 517.9L133.0 517.9L132.9 517.9L132.9 520.3L130.7 520.3ZM136.6 518.6L136.6 518.6Q138.6 518.6 139.6 517.4Q140.7 516.2 140.7 514.3L140.7 514.3L140.7 511.8Q140.7 509.9 139.6 508.7Q138.6 507.5 136.6 507.5L136.6 507.5Q135.8 507.5 135.2 507.7Q134.5 507.9 134.0 508.2Q133.5 508.6 133.2 509.2Q132.9 509.7 132.9 510.4L132.9 510.4L132.9 515.7Q132.9 516.4 133.2 516.9Q133.5 517.5 134.0 517.8Q134.5 518.2 135.2 518.4Q135.8 518.6 136.6 518.6ZM155.4 511.9L157.9 505.8L160.1 505.8L152.9 523.4Q152.7 524.1 152.4 524.5Q152.1 525.0 151.7 525.3Q151.2 525.6 150.7 525.7Q150.1 525.9 149.3 525.9L149.3 525.9L147.1 525.9L147.1 524.0L150.5 524.0L152.1 520.0L146.3 505.8L148.6 505.8L151.0 511.9L153.2 517.4L153.3 517.4L155.4 511.9Z "/><clipPath id="satori_cp-id-1-0-1-0-2"><rect x="178" y="489" width="168" height="36"/></clipPath><mask id="satori_om-id-1-0-1-0-2"><rect x="178" y="489" width="168" height="36" fill="#fff"/></mask><path fill="black" d="M192.7 520.1L180.1 520.1L180.1 517.0L184.3 517.0L184.3 503.7L180.1 503.7L180.1 500.5L192.7 500.5L192.7 503.7L188.5 503.7L188.5 517.0L192.7 517.0L192.7 520.1ZM203.0 520.4L203.0 520.4Q200.6 520.4 198.8 519.7Q197.1 519.0 196.2 517.7L196.2 517.7L198.5 515.6Q199.3 516.5 200.5 517.0Q201.6 517.5 203.1 517.5L203.1 517.5Q204.3 517.5 205.0 517.1Q205.7 516.8 205.7 516.0L205.7 516.0Q205.7 515.4 205.2 515.1Q204.7 514.9 203.9 514.7L203.9 514.7L201.6 514.4Q200.6 514.2 199.8 513.9Q198.9 513.7 198.3 513.1Q197.7 512.6 197.3 511.9Q197.0 511.2 197.0 510.2L197.0 510.2Q197.0 507.9 198.7 506.6Q200.4 505.3 203.6 505.3L203.6 505.3Q205.7 505.3 207.2 505.9Q208.7 506.5 209.6 507.5L209.6 507.5L207.5 509.9Q206.9 509.2 205.9 508.7Q204.9 508.2 203.4 508.2L203.4 508.2Q201.0 508.2 201.0 509.7L201.0 509.7Q201.0 510.3 201.5 510.6Q202.0 510.8 202.8 510.9L202.8 510.9L205.1 511.3Q206.1 511.4 206.9 511.7Q207.8 512.0 208.4 512.5Q209.0 513.0 209.4 513.8Q209.8 514.5 209.8 515.5L209.8 515.5Q209.8 517.8 208.0 519.1Q206.3 520.4 203.0 520.4ZM227.6 520.1L225.2 520.1Q223.9 520.1 223.2 519.4Q222.4 518.8 222.2 517.5L222.2 517.5L222.1 517.5Q221.7 519.0 220.5 519.7Q219.4 520.4 217.7 520.4L217.7 520.4Q215.6 520.4 214.3 519.3Q213.1 518.2 213.1 516.1L213.1 516.1Q213.1 513.8 214.7 512.8Q216.4 511.7 219.6 511.7L219.6 511.7L221.9 511.7L221.9 510.9Q221.9 509.6 221.3 509.0Q220.7 508.3 219.2 508.3L219.2 508.3Q217.9 508.3 217.1 508.8Q216.3 509.3 215.7 510.2L215.7 510.2L213.4 508.1Q214.2 506.9 215.7 506.1Q217.3 505.3 219.7 505.3L219.7 505.3Q222.7 505.3 224.4 506.7Q226.0 508.0 226.0 510.8L226.0 510.8L226.0 517.1L227.6 517.1L227.6 520.1ZM219.3 517.7L219.3 517.7Q220.4 517.7 221.1 517.2Q221.9 516.6 221.9 515.6L221.9 515.6L221.9 513.9L219.7 513.9Q217.1 513.9 217.1 515.6L217.1 515.6L217.1 516.2Q217.1 516.9 217.7 517.3Q218.3 517.7 219.3 517.7ZM244.4 520.1L242.0 520.1Q240.7 520.1 240.0 519.4Q239.2 518.8 239.0 517.5L239.0 517.5L238.9 517.5Q238.5 519.0 237.3 519.7Q236.2 520.4 234.5 520.4L234.5 520.4Q232.4 520.4 231.1 519.3Q229.9 518.2 229.9 516.1L229.9 516.1Q229.9 513.8 231.5 512.8Q233.2 511.7 236.4 511.7L236.4 511.7L238.7 511.7L238.7 510.9Q238.7 509.6 238.1 509.0Q237.5 508.3 236.0 508.3L236.0 508.3Q234.7 508.3 233.9 508.8Q233.1 509.3 232.5 510.2L232.5 510.2L230.2 508.1Q231.0 506.9 232.5 506.1Q234.1 505.3 236.5 505.3L236.5 505.3Q239.5 505.3 241.2 506.7Q242.8 508.0 242.8 510.8L242.8 510.8L242.8 517.1L244.4 517.1L244.4 520.1ZM236.1 517.7L236.1 517.7Q237.2 517.7 237.9 517.2Q238.7 516.6 238.7 515.6L238.7 515.6L238.7 513.9L236.5 513.9Q233.9 513.9 233.9 515.6L233.9 515.6L233.9 516.2Q233.9 516.9 234.5 517.3Q235.1 517.7 236.1 517.7ZM254.2 520.4L254.2 520.4Q252.5 520.4 251.1 519.9Q249.8 519.4 248.8 518.4Q247.9 517.4 247.4 516.0Q246.9 514.6 246.9 512.9L246.9 512.9Q246.9 511.1 247.4 509.7Q247.9 508.3 248.8 507.3Q249.8 506.3 251.1 505.8Q252.5 505.3 254.2 505.3L254.2 505.3Q256.5 505.3 258.0 506.3Q259.4 507.2 260.2 508.8L260.2 508.8L257.0 510.6Q256.6 509.7 256.0 509.2Q255.3 508.6 254.2 508.6L254.2 508.6Q252.7 508.6 252.0 509.4Q251.2 510.3 251.2 511.7L251.2 511.7L251.2 514.0Q251.2 515.5 252.0 516.3Q252.7 517.1 254.2 517.1L254.2 517.1Q255.4 517.1 256.1 516.6Q256.8 516.0 257.3 515.1L257.3 515.1L260.4 516.9Q259.6 518.5 258.1 519.5Q256.6 520.4 254.2 520.4Z M280.6 520.1L280.6 500.5L286.9 500.5Q290.8 500.5 292.7 503.1Q294.6 505.6 294.6 510.3L294.6 510.3Q294.6 515.1 292.7 517.6Q290.8 520.1 286.9 520.1L286.9 520.1L280.6 520.1ZM284.7 516.8L286.6 516.8Q288.5 516.8 289.4 515.6Q290.2 514.4 290.2 512.1L290.2 512.1L290.2 508.5Q290.2 506.3 289.4 505.1Q288.5 503.9 286.6 503.9L286.6 503.9L284.7 503.9L284.7 516.8ZM311.6 520.1L309.2 520.1Q307.9 520.1 307.2 519.4Q306.4 518.8 306.2 517.5L306.2 517.5L306.1 517.5Q305.7 519.0 304.5 519.7Q303.4 520.4 301.7 520.4L301.7 520.4Q299.6 520.4 298.3 519.3Q297.1 518.2 297.1 516.1L297.1 516.1Q297.1 513.8 298.7 512.8Q300.4 511.7 303.6 511.7L303.6 511.7L305.9 511.7L305.9 510.9Q305.9 509.6 305.3 509.0Q304.7 508.3 303.2 508.3L303.2 508.3Q301.9 508.3 301.1 508.8Q300.3 509.3 299.7 510.2L299.7 510.2L297.4 508.1Q298.2 506.9 299.7 506.1Q301.3 505.3 303.7 505.3L303.7 505.3Q306.7 505.3 308.4 506.7Q310.0 508.0 310.0 510.8L310.0 510.8L310.0 517.1L311.6 517.1L311.6 520.1ZM303.3 517.7L303.3 517.7Q304.4 517.7 305.1 517.2Q305.9 516.6 305.9 515.6L305.9 515.6L305.9 513.9L303.7 513.9Q301.1 513.9 301.1 515.6L301.1 515.6L301.1 516.2Q301.1 516.9 301.7 517.3Q302.3 517.7 303.3 517.7ZM328.7 521.5L328.7 521.5Q328.7 523.8 326.8 524.9Q324.9 526.0 320.7 526.0L320.7 526.0Q318.6 526.0 317.3 525.8Q316.0 525.6 315.2 525.1Q314.4 524.7 314.0 524.0Q313.7 523.4 313.7 522.7L313.7 522.7Q313.7 521.5 314.4 520.8Q315.2 520.2 316.5 519.9L316.5 519.9L316.5 519.7Q315.6 519.4 315.0 518.9Q314.5 518.4 314.5 517.4L314.5 517.4Q314.5 516.4 315.2 515.9Q315.9 515.4 317.1 515.1L317.1 515.1L317.1 514.9Q315.8 514.3 315.1 513.2Q314.4 512.1 314.4 510.5L314.4 510.5Q314.4 509.2 314.8 508.2Q315.3 507.3 316.1 506.6Q316.9 506.0 318.1 505.6Q319.2 505.3 320.6 505.3L320.6 505.3Q322.0 505.3 323.2 505.6L323.2 505.6L323.2 504.8Q323.2 504.0 323.8 503.4Q324.4 502.9 325.4 502.9L325.4 502.9L327.9 502.9L327.9 505.9L324.5 505.9L324.5 506.1Q325.6 506.8 326.3 507.8Q327.0 508.9 327.0 510.5L327.0 510.5Q327.0 511.7 326.5 512.7Q326.1 513.6 325.2 514.3Q324.4 514.9 323.2 515.3Q322.1 515.6 320.6 515.6L320.6 515.6Q320.0 515.6 319.4 515.5Q318.8 515.5 318.3 515.3L318.3 515.3Q318.0 515.5 317.8 515.8Q317.6 516.0 317.6 516.4L317.6 516.4Q317.6 516.7 317.7 516.9Q317.9 517.1 318.2 517.2Q318.5 517.3 318.9 517.3Q319.3 517.4 319.7 517.4L319.7 517.4L323.0 517.4Q324.5 517.4 325.6 517.7Q326.7 518.0 327.4 518.6Q328.1 519.1 328.4 519.9Q328.7 520.6 328.7 521.5ZM324.8 521.9L324.8 521.9Q324.8 521.3 324.4 521.0Q323.9 520.7 322.6 520.7L322.6 520.7L317.7 520.7Q317.1 521.1 317.1 521.8L317.1 521.8Q317.1 522.5 317.7 522.9Q318.3 523.4 319.7 523.4L319.7 523.4L322.1 523.4Q323.5 523.4 324.2 523.0Q324.8 522.6 324.8 521.9ZM320.6 513.0L320.6 513.0Q321.9 513.0 322.5 512.4Q323.0 511.7 323.0 510.8L323.0 510.8L323.0 510.1Q323.0 509.2 322.5 508.6Q321.9 507.9 320.6 507.9L320.6 507.9Q319.4 507.9 318.8 508.6Q318.3 509.2 318.3 510.1L318.3 510.1L318.3 510.8Q318.3 511.7 318.8 512.4Q319.4 513.0 320.6 513.0ZM331.3 520.1L331.3 516.9L334.6 516.9L334.6 508.9L331.3 508.9L331.3 505.6L338.7 505.6L338.7 509.7L338.9 509.7Q339.1 508.9 339.5 508.2Q339.8 507.5 340.4 506.9Q340.9 506.3 341.7 506.0Q342.5 505.6 343.6 505.6L343.6 505.6L344.9 505.6L344.9 509.5L341.9 509.5Q340.3 509.5 339.5 510.4Q338.7 511.3 338.7 512.6L338.7 512.6L338.7 516.9L343.5 516.9L343.5 520.1L331.3 520.1Z " clip-path="url(#satori_cp-id-1-0-1-0-2)" mask="url(#satori_om-id-1-0-1-0-2)"/><clipPath id="satori_cp-id-1-0-1-1"><rect x="819" y="489" width="252" height="36"/></clipPath><mask id="satori_om-id-1-0-1-1"><rect x="819" y="489" width="252" height="36" fill="#fff"/></mask><path fill="black" d="M820.8 520.1L820.8 500.5L827.1 500.5Q831.0 500.5 832.9 503.1Q834.8 505.6 834.8 510.3L834.8 510.3Q834.8 515.1 832.9 517.6Q831.0 520.1 827.1 520.1L827.1 520.1L820.8 520.1ZM824.9 516.8L826.8 516.8Q828.7 516.8 829.6 515.6Q830.4 514.4 830.4 512.1L830.4 512.1L830.4 508.5Q830.4 506.3 829.6 505.1Q828.7 503.9 826.8 503.9L826.8 503.9L824.9 503.9L824.9 516.8ZM851.8 520.1L849.4 520.1Q848.1 520.1 847.4 519.4Q846.6 518.8 846.4 517.5L846.4 517.5L846.3 517.5Q845.9 519.0 844.7 519.7Q843.6 520.4 841.9 520.4L841.9 520.4Q839.8 520.4 838.5 519.3Q837.3 518.2 837.3 516.1L837.3 516.1Q837.3 513.8 838.9 512.8Q840.6 511.7 843.8 511.7L843.8 511.7L846.1 511.7L846.1 510.9Q846.1 509.6 845.5 509.0Q844.9 508.3 843.4 508.3L843.4 508.3Q842.1 508.3 841.3 508.8Q840.5 509.3 839.9 510.2L839.9 510.2L837.6 508.1Q838.4 506.9 839.9 506.1Q841.5 505.3 843.9 505.3L843.9 505.3Q846.9 505.3 848.6 506.7Q850.2 508.0 850.2 510.8L850.2 510.8L850.2 517.1L851.8 517.1L851.8 520.1ZM843.5 517.7L843.5 517.7Q844.6 517.7 845.3 517.2Q846.1 516.6 846.1 515.6L846.1 515.6L846.1 513.9L843.9 513.9Q841.3 513.9 841.3 515.6L841.3 515.6L841.3 516.2Q841.3 516.9 841.9 517.3Q842.5 517.7 843.5 517.7ZM868.9 521.5L868.9 521.5Q868.9 523.8 867.0 524.9Q865.1 526.0 860.9 526.0L860.9 526.0Q858.8 526.0 857.5 525.8Q856.2 525.6 855.4 525.1Q854.6 524.7 854.2 524.0Q853.9 523.4 853.9 522.7L853.9 522.7Q853.9 521.5 854.6 520.8Q855.4 520.2 856.7 519.9L856.7 519.9L856.7 519.7Q855.8 519.4 855.2 518.9Q854.7 518.4 854.7 517.4L854.7 517.4Q854.7 516.4 855.4 515.9Q856.1 515.4 857.3 515.1L857.3 515.1L857.3 514.9Q856.0 514.3 855.3 513.2Q854.6 512.1 854.6 510.5L854.6 510.5Q854.6 509.2 855.0 508.2Q855.5 507.3 856.3 506.6Q857.1 506.0 858.3 505.6Q859.4 505.3 860.8 505.3L860.8 505.3Q862.2 505.3 863.4 505.6L863.4 505.6L863.4 504.8Q863.4 504.0 864.0 503.4Q864.6 502.9 865.6 502.9L865.6 502.9L868.1 502.9L868.1 505.9L864.7 505.9L864.7 506.1Q865.8 506.8 866.5 507.8Q867.2 508.9 867.2 510.5L867.2 510.5Q867.2 511.7 866.7 512.7Q866.3 513.6 865.4 514.3Q864.6 514.9 863.4 515.3Q862.3 515.6 860.8 515.6L860.8 515.6Q860.2 515.6 859.6 515.5Q859.0 515.5 858.5 515.3L858.5 515.3Q858.2 515.5 858.0 515.8Q857.8 516.0 857.8 516.4L857.8 516.4Q857.8 516.7 857.9 516.9Q858.1 517.1 858.4 517.2Q858.7 517.3 859.1 517.3Q859.5 517.4 859.9 517.4L859.9 517.4L863.2 517.4Q864.7 517.4 865.8 517.7Q866.9 518.0 867.6 518.6Q868.3 519.1 868.6 519.9Q868.9 520.6 868.9 521.5ZM865.0 521.9L865.0 521.9Q865.0 521.3 864.6 521.0Q864.1 520.7 862.8 520.7L862.8 520.7L857.9 520.7Q857.3 521.1 857.3 521.8L857.3 521.8Q857.3 522.5 857.9 522.9Q858.5 523.4 859.9 523.4L859.9 523.4L862.3 523.4Q863.7 523.4 864.4 523.0Q865.0 522.6 865.0 521.9ZM860.8 513.0L860.8 513.0Q862.1 513.0 862.7 512.4Q863.2 511.7 863.2 510.8L863.2 510.8L863.2 510.1Q863.2 509.2 862.7 508.6Q862.1 507.9 860.8 507.9L860.8 507.9Q859.6 507.9 859.0 508.6Q858.5 509.2 858.5 510.1L858.5 510.1L858.5 510.8Q858.5 511.7 859.0 512.4Q859.6 513.0 860.8 513.0ZM871.5 520.1L871.5 516.9L874.8 516.9L874.8 508.9L871.5 508.9L871.5 505.6L878.9 505.6L878.9 509.7L879.1 509.7Q879.3 508.9 879.7 508.2Q880.0 507.5 880.6 506.9Q881.1 506.3 881.9 506.0Q882.7 505.6 883.8 505.6L883.8 505.6L885.1 505.6L885.1 509.5L882.1 509.5Q880.5 509.5 879.7 510.4Q878.9 511.3 878.9 512.6L878.9 512.6L878.9 516.9L883.7 516.9L883.7 520.1L871.5 520.1Z M919.7 520.1L915.2 520.1L913.9 515.4L908.6 515.4L907.4 520.1L903.1 520.1L908.4 500.5L914.4 500.5L919.7 520.1ZM913.3 512.0L911.4 504.6L911.2 504.6L909.3 512.0L913.3 512.0ZM928.0 520.4L928.0 520.4Q925.6 520.4 923.8 519.7Q922.1 519.0 921.2 517.7L921.2 517.7L923.5 515.6Q924.3 516.5 925.5 517.0Q926.6 517.5 928.1 517.5L928.1 517.5Q929.3 517.5 930.0 517.1Q930.7 516.8 930.7 516.0L930.7 516.0Q930.7 515.4 930.2 515.1Q929.7 514.9 928.9 514.7L928.9 514.7L926.6 514.4Q925.6 514.2 924.8 513.9Q923.9 513.7 923.3 513.1Q922.7 512.6 922.3 511.9Q922.0 511.2 922.0 510.2L922.0 510.2Q922.0 507.9 923.7 506.6Q925.4 505.3 928.6 505.3L928.6 505.3Q930.7 505.3 932.2 505.9Q933.7 506.5 934.6 507.5L934.6 507.5L932.5 509.9Q931.9 509.2 930.9 508.7Q929.9 508.2 928.4 508.2L928.4 508.2Q926.0 508.2 926.0 509.7L926.0 509.7Q926.0 510.3 926.5 510.6Q927.0 510.8 927.8 510.9L927.8 510.9L930.1 511.3Q931.1 511.4 931.9 511.7Q932.8 512.0 933.4 512.5Q934.0 513.0 934.4 513.8Q934.8 514.5 934.8 515.5L934.8 515.5Q934.8 517.8 933.0 519.1Q931.3 520.4 928.0 520.4ZM951.5 520.1L946.1 520.1Q943.9 520.1 942.8 518.9Q941.7 517.7 941.7 515.9L941.7 515.9L941.7 508.9L937.8 508.9L937.8 505.6L940.3 505.6Q941.2 505.6 941.6 505.3Q942.0 504.9 942.0 503.9L942.0 503.9L942.0 500.5L945.8 500.5L945.8 505.6L951.5 505.6L951.5 508.9L945.8 508.9L945.8 516.9L951.5 516.9L951.5 520.1ZM955.5 520.1L955.5 516.9L958.8 516.9L958.8 508.9L955.5 508.9L955.5 505.6L962.9 505.6L962.9 509.7L963.1 509.7Q963.3 508.9 963.7 508.2Q964.0 507.5 964.6 506.9Q965.1 506.3 965.9 506.0Q966.7 505.6 967.8 505.6L967.8 505.6L969.1 505.6L969.1 509.5L966.1 509.5Q964.5 509.5 963.7 510.4Q962.9 511.3 962.9 512.6L962.9 512.6L962.9 516.9L967.7 516.9L967.7 520.1L955.5 520.1ZM978.6 520.4L978.6 520.4Q976.9 520.4 975.6 519.9Q974.2 519.4 973.3 518.4Q972.4 517.4 971.9 516.0Q971.3 514.6 971.3 512.9L971.3 512.9Q971.3 511.1 971.9 509.7Q972.4 508.3 973.3 507.3Q974.2 506.3 975.6 505.8Q976.9 505.3 978.6 505.3L978.6 505.3Q980.3 505.3 981.6 505.8Q983.0 506.3 983.9 507.3Q984.8 508.3 985.3 509.7Q985.9 511.1 985.9 512.9L985.9 512.9Q985.9 514.6 985.3 516.0Q984.8 517.4 983.9 518.4Q983.0 519.4 981.6 519.9Q980.3 520.4 978.6 520.4ZM978.6 517.3L978.6 517.3Q980.0 517.3 980.8 516.5Q981.6 515.6 981.6 514.0L981.6 514.0L981.6 511.7Q981.6 510.1 980.8 509.3Q980.0 508.4 978.6 508.4L978.6 508.4Q977.2 508.4 976.4 509.3Q975.6 510.1 975.6 511.7L975.6 511.7L975.6 514.0Q975.6 515.6 976.4 516.5Q977.2 517.3 978.6 517.3Z M1006.0 520.1L1006.0 500.5L1012.8 500.5Q1015.7 500.5 1017.2 501.9Q1018.8 503.3 1018.8 505.8L1018.8 505.8Q1018.8 507.4 1017.9 508.4Q1017.1 509.4 1015.6 509.9L1015.6 509.9L1015.6 510.0Q1017.4 510.5 1018.4 511.6Q1019.4 512.7 1019.4 514.7L1019.4 514.7Q1019.4 517.2 1017.8 518.6Q1016.3 520.1 1013.5 520.1L1013.5 520.1L1006.0 520.1ZM1010.0 517.2L1012.2 517.2Q1013.7 517.2 1014.4 516.6Q1015.1 516.1 1015.1 514.8L1015.1 514.8L1015.1 514.0Q1015.1 512.6 1014.4 512.1Q1013.7 511.6 1012.2 511.6L1012.2 511.6L1010.0 511.6L1010.0 517.2ZM1010.0 508.8L1011.6 508.8Q1013.1 508.8 1013.8 508.3Q1014.5 507.9 1014.5 506.6L1014.5 506.6L1014.5 505.7Q1014.5 504.4 1013.8 504.0Q1013.1 503.5 1011.6 503.5L1011.6 503.5L1010.0 503.5L1010.0 508.8ZM1022.5 520.1L1022.5 516.9L1026.9 516.9L1026.9 502.6L1022.5 502.6L1022.5 499.4L1031.1 499.4L1031.1 516.9L1035.5 516.9L1035.5 520.1L1022.5 520.1ZM1045.8 520.4L1045.8 520.4Q1044.1 520.4 1042.8 519.9Q1041.4 519.4 1040.5 518.4Q1039.6 517.4 1039.1 516.0Q1038.5 514.6 1038.5 512.9L1038.5 512.9Q1038.5 511.1 1039.1 509.7Q1039.6 508.3 1040.5 507.3Q1041.4 506.3 1042.8 505.8Q1044.1 505.3 1045.8 505.3L1045.8 505.3Q1047.5 505.3 1048.8 505.8Q1050.2 506.3 1051.1 507.3Q1052.0 508.3 1052.5 509.7Q1053.1 511.1 1053.1 512.9L1053.1 512.9Q1053.1 514.6 1052.5 516.0Q1052.0 517.4 1051.1 518.4Q1050.2 519.4 1048.8 519.9Q1047.5 520.4 1045.8 520.4ZM1045.8 517.3L1045.8 517.3Q1047.2 517.3 1048.0 516.5Q1048.8 515.6 1048.8 514.0L1048.8 514.0L1048.8 511.7Q1048.8 510.1 1048.0 509.3Q1047.2 508.4 1045.8 508.4L1045.8 508.4Q1044.4 508.4 1043.6 509.3Q1042.8 510.1 1042.8 511.7L1042.8 511.7L1042.8 514.0Q1042.8 515.6 1043.6 516.5Q1044.4 517.3 1045.8 517.3ZM1070.5 521.5L1070.5 521.5Q1070.5 523.8 1068.6 524.9Q1066.7 526.0 1062.5 526.0L1062.5 526.0Q1060.4 526.0 1059.1 525.8Q1057.8 525.6 1057.0 525.1Q1056.2 524.7 1055.8 524.0Q1055.5 523.4 1055.5 522.7L1055.5 522.7Q1055.5 521.5 1056.2 520.8Q1057.0 520.2 1058.3 519.9L1058.3 519.9L1058.3 519.7Q1057.4 519.4 1056.8 518.9Q1056.3 518.4 1056.3 517.4L1056.3 517.4Q1056.3 516.4 1057.0 515.9Q1057.7 515.4 1058.9 515.1L1058.9 515.1L1058.9 514.9Q1057.6 514.3 1056.9 513.2Q1056.2 512.1 1056.2 510.5L1056.2 510.5Q1056.2 509.2 1056.6 508.2Q1057.1 507.3 1057.9 506.6Q1058.7 506.0 1059.9 505.6Q1061.0 505.3 1062.4 505.3L1062.4 505.3Q1063.8 505.3 1065.0 505.6L1065.0 505.6L1065.0 504.8Q1065.0 504.0 1065.6 503.4Q1066.2 502.9 1067.2 502.9L1067.2 502.9L1069.7 502.9L1069.7 505.9L1066.3 505.9L1066.3 506.1Q1067.4 506.8 1068.1 507.8Q1068.8 508.9 1068.8 510.5L1068.8 510.5Q1068.8 511.7 1068.3 512.7Q1067.9 513.6 1067.0 514.3Q1066.2 514.9 1065.0 515.3Q1063.9 515.6 1062.4 515.6L1062.4 515.6Q1061.8 515.6 1061.2 515.5Q1060.6 515.5 1060.1 515.3L1060.1 515.3Q1059.8 515.5 1059.6 515.8Q1059.4 516.0 1059.4 516.4L1059.4 516.4Q1059.4 516.7 1059.5 516.9Q1059.7 517.1 1060.0 517.2Q1060.3 517.3 1060.7 517.3Q1061.1 517.4 1061.5 517.4L1061.5 517.4L1064.8 517.4Q1066.3 517.4 1067.4 517.7Q1068.5 518.0 1069.2 518.6Q1069.9 519.1 1070.2 519.9Q1070.5 520.6 1070.5 521.5ZM1066.6 521.9L1066.6 521.9Q1066.6 521.3 1066.2 521.0Q1065.7 520.7 1064.4 520.7L1064.4 520.7L1059.5 520.7Q1058.9 521.1 1058.9 521.8L1058.9 521.8Q1058.9 522.5 1059.5 522.9Q1060.1 523.4 1061.5 523.4L1061.5 523.4L1063.9 523.4Q1065.3 523.4 1066.0 523.0Q1066.6 522.6 1066.6 521.9ZM1062.4 513.0L1062.4 513.0Q1063.7 513.0 1064.3 512.4Q1064.8 511.7 1064.8 510.8L1064.8 510.8L1064.8 510.1Q1064.8 509.2 1064.3 508.6Q1063.7 507.9 1062.4 507.9L1062.4 507.9Q1061.2 507.9 1060.6 508.6Q1060.1 509.2 1060.1 510.1L1060.1 510.1L1060.1 510.8Q1060.1 511.7 1060.6 512.4Q1061.2 513.0 1062.4 513.0Z " clip-path="url(#satori_cp-id-1-0-1-1)" mask="url(#satori_om-id-1-0-1-1)"/></svg>