<svg width="1200" height="630" viewBox="0 0 1200 630" xmlns="http://www.w3.org/2000/svg"><rect x="0" y="0" width="1200" height="630" fill="#fefbfb"/><defs><clipPath id="satori_bc-id-0"><path x="105" y="39" width="1056" height="504" d="M109,39 h1048 a4,4 0 0 1 4,4 v496 a4,4 0 0 1 -4,4 h-1048 a4,4 0 0 1 -4,-4 v-496 a4,4 0 0 1 4,-4"/></clipPath></defs><g opacity="0.9"><path x="105" y="39" width="1056" height="504" fill="#ecebeb" d="M109,39 h1048 a4,4 0 0 1 4,4 v496 a4,4 0 0 1 -4,4 h-1048 a4,4 0 0 1 -4,-4 v-496 a4,4 0 0 1 4,-4"/><path width="1056" height="504" clip-path="url(#satori_bc-id-0)" fill="none" stroke="#000" stroke-width="8" d="M106.172,40.172 A4,4 0 0 1 109,39 h1048 a4,4 0 0 1 4,4 v496 a4,4 0 0 1 -4,4 h-1048 a4,4 0 0 1 -4,-4 v-496 A4,4 0 0 1 106.172,40.172"/></g><defs><clipPath id="satori_bc-id-1"><path x="72" y="63" width="1056" height="504" d="M76,63 h1048 a4,4 0 0 1 4,4 v496 a4,4 0 0 1 -4,4 h-1048 a4,4 0 0 1 -4,-4 v-496 a4,4 0 0 1 4,-4"/></clipPath></defs><path x="72" y="63" width="1056" height="504" fill="#fefbfb" d="M76,63 h1048 a4,4 0 0 1 4,4 v496 a4,4 0 0 1 -4,4 h-1048 a4,4 0 0 1 -4,-4 v-496 a4,4 0 0 1 4,-4"/><path width="1056" height="504" clip-path="url(#satori_bc-id-1)" fill="none" stroke="#000" stroke-width="8" d="M73.172,64.172 A4,4 0 0 1 76,63 h1048 a4,4 0 0 1 4,4 v496 a4,4 0 0 1 -4,4 h-1048 a4,4 0 0 1 -4,-4 v-496 A4,4 0 0 1 73.172,64.172"/><clipPath id="satori_cp-id-1-0-0"><rect x="128" y="103" width="944" height="187"/></clipPath><mask id="satori_om-id-1-0-0"><rect x="128" y="103" width="944" height="187" fill="#fff"/></mask><path fill="black" d="M144.3 183.0L133.5 183.0L133.5 132.7L152.9 132.7Q156.6 132.7 159.5 133.8Q162.3 134.9 164.3 137.0Q166.3 139.1 167.3 142.1Q168.3 145.0 168.3 148.7L168.3 148.7Q168.3 152.4 167.3 155.3Q166.3 158.3 164.3 160.3Q162.3 162.4 159.5 163.5Q156.6 164.7 152.9 164.7L152.9 164.7L144.3 164.7L144.3 183.0ZM144.3 141.4L144.3 156.0L150.2 156.0Q154.0 156.0 155.5 154.5Q156.9 153.1 156.9 149.8L156.9 149.8L156.9 147.6Q156.9 144.3 155.5 142.8Q154.0 141.4 150.2 141.4L150.2 141.4L144.3 141.4ZM176.5 183.0L176.5 174.7L185.1 174.7L185.1 154.1L176.5 154.1L176.5 145.8L195.8 145.8L195.8 156.3L196.3 156.3Q196.8 154.3 197.7 152.4Q198.6 150.5 200.0 149.0Q201.4 147.5 203.4 146.7Q205.4 145.8 208.1 145.8L208.1 145.8L211.7 145.8L211.7 155.6L203.7 155.6Q199.8 155.6 197.8 157.9Q195.8 160.3 195.8 163.7L195.8 163.7L195.8 174.7L208.0 174.7L208.0 183.0L176.5 183.0ZM237.0 183.8L237.0 183.8Q227.6 183.8 222.8 178.6Q218.0 173.4 218.0 164.5L218.0 164.5Q218.0 160.0 219.3 156.3Q220.5 152.7 222.9 150.2Q225.2 147.6 228.5 146.3Q231.9 144.9 236.1 144.9L236.1 144.9Q240.2 144.9 243.6 146.3Q246.9 147.6 249.2 150.0Q251.5 152.5 252.7 156.0Q254.0 159.5 254.0 163.8L254.0 163.8L254.0 167.0L228.6 167.0L228.6 167.6Q228.6 171.2 230.8 173.4Q233.0 175.6 237.4 175.6L237.4 175.6Q240.7 175.6 243.1 174.3Q245.4 173.1 247.2 171.0L247.2 171.0L252.9 177.3Q250.8 179.9 246.9 181.9Q243.0 183.8 237.0 183.8ZM236.1 152.6L236.1 152.6Q232.7 152.6 230.6 154.7Q228.6 156.8 228.6 160.4L228.6 160.4L228.6 161.0L243.6 161.0L243.6 160.4Q243.6 156.7 241.6 154.7Q239.6 152.6 236.1 152.6ZM285.9 183.0L285.9 176.2L285.4 176.2Q284.0 179.6 281.4 181.7Q278.8 183.8 274.4 183.8L274.4 183.8Q271.3 183.8 268.7 182.7Q266.2 181.5 264.3 179.1Q262.5 176.8 261.5 173.1Q260.4 169.4 260.4 164.4L260.4 164.4Q260.4 159.3 261.5 155.7Q262.5 152.0 264.3 149.6Q266.2 147.2 268.7 146.1Q271.3 144.9 274.4 144.9L274.4 144.9Q276.6 144.9 278.3 145.5Q280.1 146.1 281.4 147.1Q282.7 148.1 283.7 149.5Q284.7 150.9 285.4 152.6L285.4 152.6L285.9 152.6L285.9 129.7L296.6 129.7L296.6 183.0L285.9 183.0ZM279.0 175.5L279.0 175.5Q281.8 175.5 283.8 174.2Q285.9 172.8 285.9 169.8L285.9 169.8L285.9 158.9Q285.9 156.0 283.8 154.6Q281.8 153.2 279.0 153.2L279.0 153.2Q275.4 153.2 273.4 155.4Q271.5 157.6 271.5 161.5L271.5 161.5L271.5 167.3Q271.5 171.1 273.4 173.3Q275.4 175.5 279.0 175.5ZM323.4 183.8L323.4 183.8Q314.0 183.8 309.2 178.6Q304.4 173.4 304.4 164.5L304.4 164.5Q304.4 160.0 305.7 156.3Q306.9 152.7 309.3 150.2Q311.6 147.6 314.9 146.3Q318.3 144.9 322.5 144.9L322.5 144.9Q326.6 144.9 330.0 146.3Q333.3 147.6 335.6 150.0Q337.9 152.5 339.1 156.0Q340.4 159.5 340.4 163.8L340.4 163.8L340.4 167.0L315.0 167.0L315.0 167.6Q315.0 171.2 317.2 173.4Q319.4 175.6 323.8 175.6L323.8 175.6Q327.1 175.6 329.5 174.3Q331.8 173.1 333.6 171.0L333.6 171.0L339.3 177.3Q337.2 179.9 333.3 181.9Q329.4 183.8 323.4 183.8ZM322.5 152.6L322.5 152.6Q319.1 152.6 317.0 154.7Q315.0 156.8 315.0 160.4L315.0 160.4L315.0 161.0L330.0 161.0L330.0 160.4Q330.0 156.7 328.0 154.7Q326.0 152.6 322.5 152.6ZM349.1 183.0L349.1 174.7L360.1 174.7L360.1 154.1L348.4 154.1L348.4 145.8L360.1 145.8L360.1 140.4Q360.1 135.6 362.8 132.7Q365.6 129.7 371.4 129.7L371.4 129.7L384.0 129.7L384.0 138.0L370.7 138.0L370.7 145.8L384.0 145.8L384.0 154.1L370.7 154.1L370.7 174.7L382.4 174.7L382.4 183.0L349.1 183.0ZM411.1 141.0L411.1 141.0Q407.5 141.0 406.1 139.6Q404.7 138.1 404.7 136.0L404.7 136.0L404.7 133.9Q404.7 131.8 406.1 130.3Q407.5 128.9 411.1 128.9L411.1 128.9Q414.7 128.9 416.1 130.3Q417.5 131.8 417.5 133.9L417.5 133.9L417.5 136.0Q417.5 138.1 416.1 139.6Q414.7 141.0 411.1 141.0ZM394.0 183.0L394.0 174.7L405.8 174.7L405.8 154.1L394.0 154.1L394.0 145.8L416.4 145.8L416.4 174.7L427.4 174.7L427.4 183.0L394.0 183.0ZM445.7 183.0L435.1 183.0L435.1 145.8L445.7 145.8L445.7 152.6L446.2 152.6Q446.8 151.0 447.8 149.6Q448.7 148.2 450.0 147.2Q451.4 146.2 453.1 145.5Q454.9 144.9 457.1 144.9L457.1 144.9Q459.8 144.9 462.0 145.8Q464.2 146.7 465.8 148.5Q467.4 150.3 468.3 152.9Q469.2 155.5 469.2 158.9L469.2 158.9L469.2 183.0L458.6 183.0L458.6 160.3Q458.6 153.1 452.3 153.1L452.3 153.1Q451.1 153.1 449.9 153.5Q448.7 153.8 447.8 154.5Q446.8 155.2 446.3 156.2Q445.7 157.2 445.7 158.5L445.7 158.5L445.7 183.0ZM496.2 183.8L496.2 183.8Q486.8 183.8 482.0 178.6Q477.2 173.4 477.2 164.5L477.2 164.5Q477.2 160.0 478.5 156.3Q479.7 152.7 482.1 150.2Q484.4 147.6 487.7 146.3Q491.1 144.9 495.3 144.9L495.3 144.9Q499.4 144.9 502.8 146.3Q506.1 147.6 508.4 150.0Q510.7 152.5 511.9 156.0Q513.2 159.5 513.2 163.8L513.2 163.8L513.2 167.0L487.8 167.0L487.8 167.6Q487.8 171.2 490.0 173.4Q492.2 175.6 496.6 175.6L496.6 175.6Q499.9 175.6 502.3 174.3Q504.6 173.1 506.4 171.0L506.4 171.0L512.1 177.3Q510.0 179.9 506.1 181.9Q502.2 183.8 496.2 183.8ZM495.3 152.6L495.3 152.6Q491.9 152.6 489.8 154.7Q487.8 156.8 487.8 160.4L487.8 160.4L487.8 161.0L502.8 161.0L502.8 160.4Q502.8 156.7 500.8 154.7Q498.8 152.6 495.3 152.6ZM545.1 183.0L545.1 176.2L544.6 176.2Q543.2 179.6 540.6 181.7Q538.0 183.8 533.6 183.8L533.6 183.8Q530.5 183.8 527.9 182.7Q525.4 181.5 523.5 179.1Q521.7 176.8 520.7 173.1Q519.6 169.4 519.6 164.4L519.6 164.4Q519.6 159.3 520.7 155.7Q521.7 152.0 523.5 149.6Q525.4 147.2 527.9 146.1Q530.5 144.9 533.6 144.9L533.6 144.9Q535.8 144.9 537.5 145.5Q539.3 146.1 540.6 147.1Q541.9 148.1 542.9 149.5Q543.9 150.9 544.6 152.6L544.6 152.6L545.1 152.6L545.1 129.7L555.8 129.7L555.8 183.0L545.1 183.0ZM538.2 175.5L538.2 175.5Q541.0 175.5 543.0 174.2Q545.1 172.8 545.1 169.8L545.1 169.8L545.1 158.9Q545.1 156.0 543.0 154.6Q541.0 153.2 538.2 153.2L538.2 153.2Q534.6 153.2 532.6 155.4Q530.7 157.6 530.7 161.5L530.7 161.5L530.7 167.3Q530.7 171.1 532.6 173.3Q534.6 175.5 538.2 175.5Z M626.3 183.8L626.3 183.8Q621.9 183.8 618.4 182.5Q614.9 181.2 612.5 178.6Q610.1 176.1 608.8 172.5Q607.5 168.9 607.5 164.4L607.5 164.4Q607.5 159.8 608.8 156.2Q610.1 152.6 612.5 150.1Q614.9 147.6 618.4 146.3Q621.9 144.9 626.2 144.9L626.2 144.9Q632.4 144.9 636.1 147.4Q639.8 149.9 641.7 154.0L641.7 154.0L633.5 158.5Q632.5 156.3 630.9 154.9Q629.3 153.4 626.2 153.4L626.2 153.4Q622.6 153.4 620.6 155.6Q618.6 157.7 618.6 161.4L618.6 161.4L618.6 167.4Q618.6 171.1 620.6 173.2Q622.6 175.3 626.4 175.3L626.4 175.3Q629.5 175.3 631.2 173.9Q633.0 172.4 634.2 170.1L634.2 170.1L642.3 174.7Q640.3 178.8 636.4 181.3Q632.6 183.8 626.3 183.8ZM668.0 183.8L668.0 183.8Q663.7 183.8 660.2 182.5Q656.8 181.2 654.4 178.6Q651.9 176.1 650.6 172.5Q649.4 168.9 649.4 164.4L649.4 164.4Q649.4 159.8 650.6 156.2Q651.9 152.6 654.4 150.1Q656.8 147.6 660.2 146.3Q663.7 144.9 668.0 144.9L668.0 144.9Q672.3 144.9 675.8 146.3Q679.2 147.6 681.6 150.1Q684.1 152.6 685.4 156.2Q686.6 159.8 686.6 164.4L686.6 164.4Q686.6 168.9 685.4 172.5Q684.1 176.1 681.6 178.6Q679.2 181.2 675.8 182.5Q672.3 183.8 668.0 183.8ZM668.0 175.9L668.0 175.9Q671.6 175.9 673.6 173.7Q675.6 171.4 675.6 167.3L675.6 167.3L675.6 161.4Q675.6 157.3 673.6 155.1Q671.6 152.9 668.0 152.9L668.0 152.9Q664.4 152.9 662.4 155.1Q660.4 157.3 660.4 161.4L660.4 161.4L660.4 167.3Q660.4 171.4 662.4 173.7Q664.4 175.9 668.0 175.9ZM694.5 183.0L694.5 174.7L705.9 174.7L705.9 138.0L694.5 138.0L694.5 129.7L716.5 129.7L716.5 174.7L727.9 174.7L727.9 183.0L694.5 183.0ZM754.4 183.8L754.4 183.8Q750.1 183.8 746.6 182.5Q743.2 181.2 740.8 178.6Q738.3 176.1 737.0 172.5Q735.8 168.9 735.8 164.4L735.8 164.4Q735.8 159.8 737.0 156.2Q738.3 152.6 740.8 150.1Q743.2 147.6 746.6 146.3Q750.1 144.9 754.4 144.9L754.4 144.9Q758.7 144.9 762.2 146.3Q765.6 147.6 768.0 150.1Q770.5 152.6 771.8 156.2Q773.0 159.8 773.0 164.4L773.0 164.4Q773.0 168.9 771.8 172.5Q770.5 176.1 768.0 178.6Q765.6 181.2 762.2 182.5Q758.7 183.8 754.4 183.8ZM754.4 175.9L754.4 175.9Q758 175.9 760.0 173.7Q762.0 171.4 762.0 167.3L762.0 167.3L762.0 161.4Q762.0 157.3 760.0 155.1Q758 152.9 754.4 152.9L754.4 152.9Q750.8 152.9 748.8 155.1Q746.8 157.3 746.8 161.4L746.8 161.4L746.8 167.3Q746.8 171.4 748.8 173.7Q750.8 175.9 754.4 175.9ZM781.3 183.0L781.3 174.7L789.9 174.7L789.9 154.1L781.3 154.1L781.3 145.8L800.6 145.8L800.6 156.3L801.1 156.3Q801.6 154.3 802.5 152.4Q803.4 150.5 804.8 149.0Q806.2 147.5 808.2 146.7Q810.2 145.8 812.9 145.8L812.9 145.8L816.5 145.8L816.5 155.6L808.5 155.6Q804.6 155.6 802.6 157.9Q800.6 160.3 800.6 163.7L800.6 163.7L800.6 174.7L812.8 174.7L812.8 183.0L781.3 183.0Z M149.2 277.4L149.2 277.4Q143.0 277.4 138.4 275.5Q133.8 273.7 131.5 270.4L131.5 270.4L137.5 264.9Q139.7 267.3 142.6 268.6Q145.5 269.9 149.2 269.9L149.2 269.9Q152.4 269.9 154.2 269.0Q156.0 268.0 156.0 266.0L156.0 266.0Q156.0 264.4 154.8 263.8Q153.6 263.2 151.4 262.8L151.4 262.8L145.4 261.9Q142.9 261.5 140.7 260.7Q138.6 260.0 137 258.7Q135.4 257.4 134.5 255.5Q133.5 253.7 133.5 251.0L133.5 251.0Q133.5 245.2 138.0 241.8Q142.5 238.5 150.5 238.5L150.5 238.5Q156.0 238.5 159.9 240.0Q163.7 241.5 166.0 244.2L166.0 244.2L160.7 250.3Q159.0 248.5 156.4 247.2Q153.8 246.0 150.2 246.0L150.2 246.0Q144.0 246.0 144.0 249.8L144.0 249.8Q144.0 251.4 145.2 252.0Q146.4 252.6 148.6 253.0L148.6 253.0L154.5 253.9Q157.0 254.3 159.2 255.1Q161.3 255.8 163.0 257.1Q164.6 258.4 165.5 260.3Q166.4 262.2 166.4 264.8L166.4 264.8Q166.4 270.6 161.9 274.0Q157.4 277.4 149.2 277.4ZM194.3 277.4L194.3 277.4Q189.9 277.4 186.4 276.1Q182.9 274.8 180.5 272.2Q178.1 269.7 176.8 266.1Q175.5 262.5 175.5 258.0L175.5 258.0Q175.5 253.4 176.8 249.8Q178.1 246.2 180.5 243.7Q182.9 241.2 186.4 239.9Q189.9 238.5 194.2 238.5L194.2 238.5Q200.4 238.5 204.1 241.0Q207.8 243.5 209.7 247.6L209.7 247.6L201.5 252.1Q200.5 249.9 198.9 248.5Q197.3 247.0 194.2 247.0L194.2 247.0Q190.6 247.0 188.6 249.2Q186.6 251.3 186.6 255.0L186.6 255.0L186.6 261.0Q186.6 264.7 188.6 266.8Q190.6 268.9 194.4 268.9L194.4 268.9Q197.5 268.9 199.2 267.5Q201.0 266.0 202.2 263.7L202.2 263.7L210.3 268.3Q208.3 272.4 204.4 274.9Q200.6 277.4 194.3 277.4ZM219.1 276.6L219.1 223.3L229.7 223.3L229.7 246.2L230.2 246.2Q230.8 244.6 231.8 243.2Q232.7 241.8 234.0 240.8Q235.4 239.8 237.1 239.1Q238.9 238.5 241.1 238.5L241.1 238.5Q243.8 238.5 246.0 239.4Q248.2 240.3 249.8 242.1Q251.4 243.9 252.3 246.5Q253.2 249.1 253.2 252.5L253.2 252.5L253.2 276.6L242.6 276.6L242.6 253.9Q242.6 246.7 236.3 246.7L236.3 246.7Q235.1 246.7 233.9 247.1Q232.7 247.4 231.8 248.1Q230.8 248.8 230.3 249.8Q229.7 250.8 229.7 252.1L229.7 252.1L229.7 276.6L219.1 276.6ZM280.2 277.4L280.2 277.4Q270.8 277.4 266.0 272.2Q261.2 267.0 261.2 258.1L261.2 258.1Q261.2 253.6 262.5 249.9Q263.7 246.3 266.1 243.8Q268.4 241.2 271.7 239.9Q275.1 238.5 279.3 238.5L279.3 238.5Q283.4 238.5 286.8 239.9Q290.1 241.2 292.4 243.6Q294.7 246.1 295.9 249.6Q297.2 253.1 297.2 257.4L297.2 257.4L297.2 260.6L271.8 260.6L271.8 261.2Q271.8 264.8 274.0 267.0Q276.2 269.2 280.6 269.2L280.6 269.2Q283.9 269.2 286.3 267.9Q288.6 266.7 290.4 264.6L290.4 264.6L296.1 270.9Q294.0 273.5 290.1 275.5Q286.2 277.4 280.2 277.4ZM279.3 246.2L279.3 246.2Q275.9 246.2 273.8 248.3Q271.8 250.4 271.8 254.0L271.8 254.0L271.8 254.6L286.8 254.6L286.8 254.0Q286.8 250.3 284.8 248.3Q282.8 246.2 279.3 246.2ZM311.5 276.6L303.0 276.6L303.0 239.4L311.5 239.4L311.5 244.9L312.0 244.9Q312.9 242.3 314.5 240.4Q316.1 238.5 319.1 238.5L319.1 238.5Q324.5 238.5 325.7 244.9L325.7 244.9L326.1 244.9Q326.6 243.6 327.2 242.4Q327.9 241.3 328.8 240.4Q329.7 239.5 331.0 239.0Q332.3 238.5 334.1 238.5L334.1 238.5Q341.8 238.5 341.8 250.0L341.8 250.0L341.8 276.6L333.3 276.6L333.3 251.1Q333.3 248.5 332.4 247.4Q331.5 246.4 330.0 246.4L330.0 246.4Q328.7 246.4 327.7 247.3Q326.7 248.2 326.7 250.1L326.7 250.1L326.7 276.6L318.1 276.6L318.1 251.1Q318.1 248.5 317.3 247.4Q316.4 246.4 315.0 246.4L315.0 246.4Q313.5 246.4 312.5 247.3Q311.5 248.2 311.5 250.1L311.5 250.1L311.5 276.6ZM366.6 277.4L366.6 277.4Q357.2 277.4 352.4 272.2Q347.6 267.0 347.6 258.1L347.6 258.1Q347.6 253.6 348.9 249.9Q350.1 246.3 352.5 243.8Q354.8 241.2 358.1 239.9Q361.5 238.5 365.7 238.5L365.7 238.5Q369.8 238.5 373.2 239.9Q376.5 241.2 378.8 243.6Q381.1 246.1 382.3 249.6Q383.6 253.1 383.6 257.4L383.6 257.4L383.6 260.6L358.2 260.6L358.2 261.2Q358.2 264.8 360.4 267.0Q362.6 269.2 367.0 269.2L367.0 269.2Q370.3 269.2 372.7 267.9Q375.0 266.7 376.8 264.6L376.8 264.6L382.5 270.9Q380.4 273.5 376.5 275.5Q372.6 277.4 366.6 277.4ZM365.7 246.2L365.7 246.2Q362.3 246.2 360.2 248.3Q358.2 250.4 358.2 254.0L358.2 254.0L358.2 254.6L373.2 254.6L373.2 254.0Q373.2 250.3 371.2 248.3Q369.2 246.2 365.7 246.2ZM408.4 277.4L408.4 277.4Q402.2 277.4 397.6 275.5Q393.0 273.7 390.7 270.4L390.7 270.4L396.7 264.9Q398.9 267.3 401.8 268.6Q404.7 269.9 408.4 269.9L408.4 269.9Q411.6 269.9 413.4 269.0Q415.2 268.0 415.2 266.0L415.2 266.0Q415.2 264.4 414.0 263.8Q412.8 263.2 410.6 262.8L410.6 262.8L404.6 261.9Q402.1 261.5 399.9 260.7Q397.8 260.0 396.2 258.7Q394.6 257.4 393.7 255.5Q392.7 253.7 392.7 251.0L392.7 251.0Q392.7 245.2 397.2 241.8Q401.7 238.5 409.7 238.5L409.7 238.5Q415.2 238.5 419.1 240.0Q422.9 241.5 425.2 244.2L425.2 244.2L419.9 250.3Q418.2 248.5 415.6 247.2Q413.0 246.0 409.4 246.0L409.4 246.0Q403.2 246.0 403.2 249.8L403.2 249.8Q403.2 251.4 404.4 252.0Q405.6 252.6 407.8 253.0L407.8 253.0L413.7 253.9Q416.2 254.3 418.4 255.1Q420.5 255.8 422.2 257.1Q423.8 258.4 424.7 260.3Q425.6 262.2 425.6 264.8L425.6 264.8Q425.6 270.6 421.1 274.0Q416.6 277.4 408.4 277.4Z " clip-path="url(#satori_cp-id-1-0-0)" mask="url(#satori_om-id-1-0-0)"/><path fill="black" d="M130.7 520.3L130.7 499.6L132.9 499.6L132.9 508.2L133.0 508.2Q134.4 505.5 137.5 505.5L137.5 505.5Q140.1 505.5 141.6 507.5Q143.1 509.5 143.1 513.0L143.1 513.0Q143.1 516.6 141.6 518.6Q140.1 520.6 137.5 520.6L137.5 520.6Q134.4 520.6 133.0 517.9L133.0 517.9L132.9 517.9L132.9 520.3L130.7 520.3ZM136.6 518.6L136.6 518.6Q138.6 518.6 139.6 517.4Q140.7 516.2 140.7 514.3L140.7 514.3L140.7 511.8Q140.7 509.9 139.6 508.7Q138.6 507.5 136.6 507.5L136.6 507.5Q135.8 507.5 135.2 507.7Q134.5 507.9 134.0 508.2Q133.5 508.6 133.2 509.2Q132.9 509.7 132.9 510.4L132.9 510.4L132.9 515.7Q132.9 516.4 133.2 516.9Q133.5 517.5 134.0 517.8Q134.5 518.2 135.2 518.4Q135.8 518.6 136.6 518.6ZM155.4 511.9L157.9 505.8L160.1 505.8L152.9 523.4Q152.7 524.1 152.4 524.5Q152.1 525.0 151.7 525.3Q151.2 525.6 150.7 525.7Q150.1 525.9 149.3 525.9L149.3 525.9L147.1 525.9L147.1 524.0L150.5 524.0L152.1 520.0L146.3 505.8L148.6 505.8L151.0 511.9L153.2 517.4L153.3 517.4L155.4 511.9Z "/><clipPath id="satori_cp-id-1-0-1-0-2"><rect x="178" y="489" width="168" height="36"/></clipPath><mask id="satori_om-id-1-0-1-0-2"><rect x="178" y="489" width="168" height="36" fill="#fff"/></mask><path fill="black" d="M192.7 520.1L180.1 520.1L180.1 517.0L184.3 517.0L184.3 503.7L180.1 503.7L180.1 500.5L192.7 500.5L192.7 503.7L188.5 503.7L188.5 517.0L192.7 517.0L192.7 520.1ZM203.0 520.4L203.0 520.4Q200.6 520.4 198.8 519.7Q197.1 519.0 196.2 517.7L196.2 517.7L198.5 515.6Q199.3 516.5 200.5 517.0Q201.6 517.5 203.1 517.5L203.1 517.5Q204.3 517.5 205.0 517.1Q205.7 516.8 205.7 516.0L205.7 516.0Q205.7 515.4 205.2 515.1Q204.7 514.9 203.9 514.7L203.9 514.7L201.6 514.4Q200.6 514.2 199.8 513.9Q198.9 513.7 198.3 513.1Q197.7 512.6 197.3 511.9Q197.0 511.2 197.0 510.2L197.0 510.2Q197.0 507.9 198.7 506.6Q200.4 505.3 203.6 505.3L203.6 505.3Q205.7 505.3 207.2 505.9Q208.7 506.5 209.6 507.5L209.6 507.5L207.5 509.9Q206.9 509.2 205.9 508.7Q204.9 508.2 203.4 508.2L203.4 508.2Q201.0 508.2 201.0 509.7L201.0 509.7Q201.0 510.3 201.5 510.6Q202.0 510.8 202.8 510.9L202.8 510.9L205.1 511.3Q206.1 511.4 206.9 511.7Q207.8 512.0 208.4 512.5Q209.0 513.0 209.4 513.8Q209.8 514.5 209.8 515.5L209.8 515.5Q209.8 517.8 208.0 519.1Q206.3 520.4 203.0 520.4ZM227.6 520.1L225.2 520.1Q223.9 520.1 223.2 519.4Q222.4 518.8 222.2 517.5L222.2 517.5L222.1 517.5Q221.7 519.0 220.5 519.7Q219.4 520.4 217.7 520.4L217.7 520.4Q215.6 520.4 214.3 519.3Q213.1 518.2 213.1 516.1L213.1 516.1Q213.1 513.8 214.7 512.8Q216.4 511.7 219.6 511.7L219.6 511.7L221.9 511.7L221.9 510.9Q221.9 509.6 221.3 509.0Q220.7 508.3 219.2 508.3L219.2 508.3Q217.9 508.3 217.1 508.8Q216.3 509.3 215.7 510.2L215.7 510.2L213.4 508.1Q214.2 506.9 215.7 506.1Q217.3 505.3 219.7 505.3L219.7 505.3Q222.7 505.3 224.4 506.7Q226.0 508.0 226.0 510.8L226.0 510.8L226.0 517.1L227.6 517.1L227.6 520.1ZM219.3 517.7L219.3 517.7Q220.4 517.7 221.1 517.2Q221.9 516.6 221.9 515.6L221.9 515.6L221.9 513.9L219.7 513.9Q217.1 513.9 217.1 515.6L217.1 515.6L217.1 516.2Q217.1 516.9 217.7 517.3Q218.3 517.7 219.3 517.7ZM244.4 520.1L242.0 520.1Q240.7 520.1 240.0 519.4Q239.2 518.8 239.0 517.5L239.0 517.5L238.9 517.5Q238.5 519.0 237.3 519.7Q236.2 520.4 234.5 520.4L234.5 520.4Q232.4 520.4 231.1 519.3Q229.9 518.2 229.9 516.1L229.9 516.1Q229.9 513.8 231.5 512.8Q233.2 511.7 236.4 511.7L236.4 511.7L238.7 511.7L238.7 510.9Q238.7 509.6 238.1 509.0Q237.5 508.3 236.0 508.3L236.0 508.3Q234.7 508.3 233.9 508.8Q233.1 509.3 232.5 510.2L232.5 510.2L230.2 508.1Q231.0 506.9 232.5 506.1Q234.1 505.3 236.5 505.3L236.5 505.3Q239.5 505.3 241.2 506.7Q242.8 508.0 242.8 510.8L242.8 510.8L242.8 517.1L244.4 517.1L244.4 520.1ZM236.1 517.7L236.1 517.7Q237.2 517.7 237.9 517.2Q238.7 516.6 238.7 515.6L238.7 515.6L238.7 513.9L236.5 513.9Q233.9 513.9 233.9 515.6L233.9 515.6L233.9 516.2Q233.9 516.9 234.5 517.3Q235.1 517.7 236.1 517.7ZM254.2 520.4L254.2 520.4Q252.5 520.4 251.1 519.9Q249.8 519.4 248.8 518.4Q247.9 517.4 247.4 516.0Q246.9 514.6 246.9 512.9L246.9 512.9Q246.9 511.1 247.4 509.7Q247.9 508.3 248.8 507.3Q249.8 506.3 251.1 505.8Q252.5 505.3 254.2 505.3L254.2 505.3Q256.5 505.3 258.0 506.3Q259.4 507.2 260.2 508.8L260.2 508.8L257.0 510.6Q256.6 509.7 256.0 509.2Q255.3 508.6 254.2 508.6L254.2 508.6Q252.7 508.6 252.0 509.4Q251.2 510.3 251.2 511.7L251.2 511.7L251.2 514.0Q251.2 515.5 252.0 516.3Q252.7 517.1 254.2 517.1L254.2 517.1Q255.4 517.1 256.1 516.6Q256.8 516.0 257.3 515.1L257.3 515.1L260.4 516.9Q259.6 518.5 258.1 519.5Q256.6 520.4 254.2 520.4Z M280.6 520.1L280.6 500.5L286.9 500.5Q290.8 500.5 292.7 503.1Q294.6 505.6 294.6 510.3L294.6 510.3Q294.6 515.1 292.7 517.6Q290.8 520.1 286.9 520.1L286.9 520.1L280.6 520.1ZM284.7 516.8L286.6 516.8Q288.5 516.8 289.4 515.6Q290.2 514.4 290.2 512.1L290.2 512.1L290.2 508.5Q290.2 506.3 289.4 505.1Q288.5 503.9 286.6 503.9L286.6 503.9L284.7 503.9L284.7 516.8ZM311.6 520.1L309.2 520.1Q307.9 520.1 307.2 519.4Q306.4 518.8 306.2 517.5L306.2 517.5L306.1 517.5Q305.7 519.0 304.5 519.7Q303.4 520.4 301.7 520.4L301.7 520.4Q299.6 520.4 298.3 519.3Q297.1 518.2 297.1 516.1L297.1 516.1Q297.1 513.8 298.7 512.8Q300.4 511.7 303.6 511.7L303.6 511.7L305.9 511.7L305.9 510.9Q305.9 509.6 305.3 509.0Q304.7 508.3 303.2 508.3L303.2 508.3Q301.9 508.3 301.1 508.8Q300.3 509.3 299.7 510.2L299.7 510.2L297.4 508.1Q298.2 506.9 299.7 506.1Q301.3 505.3 303.7 505.3L303.7 505.3Q306.7 505.3 308.4 506.7Q310.0 508.0 310.0 510.8L310.0 510.8L310.0 517.1L311.6 517.1L311.6 520.1ZM303.3 517.7L303.3 517.7Q304.4 517.7 305.1 517.2Q305.9 516.6 305.9 515.6L305.9 515.6L305.9 513.9L303.7 513.9Q301.1 513.9 301.1 515.6L301.1 515.6L301.1 516.2Q301.1 516.9 301.7 517.3Q302.3 517.7 303.3 517.7ZM328.7 521.5L328.7 521.5Q328.7 523.8 326.8 524.9Q324.9 526.0 320.7 526.0L320.7 526.0Q318.6 526.0 317.3 525.8Q316.0 525.6 315.2 525.1Q314.4 524.7 314.0 524.0Q313.7 523.4 313.7 522.7L313.7 522.7Q313.7 521.5 314.4 520.8Q315.2 520.2 316.5 519.9L316.5 519.9L316.5 519.7Q315.6 519.4 315.0 518.9Q314.5 518.4 314.5 517.4L314.5 517.4Q314.5 516.4 315.2 515.9Q315.9 515.4 317.1 515.1L317.1 515.1L317.1 514.9Q315.8 514.3 315.1 513.2Q314.4 512.1 314.4 510.5L314.4 510.5Q314.4 509.2 314.8 508.2Q315.3 507.3 316.1 506.6Q316.9 506.0 318.1 505.6Q319.2 505.3 320.6 505.3L320.6 505.3Q322.0 505.3 323.2 505.6L323.2 505.6L323.2 504.8Q323.2 504.0 323.8 503.4Q324.4 502.9 325.4 502.9L325.4 502.9L327.9 502.9L327.9 505.9L324.5 505.9L324.5 506.1Q325.6 506.8 326.3 507.8Q327.0 508.9 327.0 510.5L327.0 510.5Q327.0 511.7 326.5 512.7Q326.1 513.6 325.2 514.3Q324.4 514.9 323.2 515.3Q322.1 515.6 320.6 515.6L320.6 515.6Q320.0 515.6 319.4 515.5Q318.8 515.5 318.3 515.3L318.3 515.3Q318.0 515.5 317.8 515.8Q317.6 516.0 317.6 516.4L317.6 516.4Q317.6 516.7 317.7 516.9Q317.9 517.1 318.2 517.2Q318.5 517.3 318.9 517.3Q319.3 517.4 319.7 517.4L319.7 517.4L323.0 517.4Q324.5 517.4 325.6 517.7Q326.7 518.0 327.4 518.6Q328.1 519.1 328.4 519.9Q328.7 520.6 328.7 521.5ZM324.8 521.9L324.8 521.9Q324.8 521.3 324.4 521.0Q323.9 520.7 322.6 520.7L322.6 520.7L317.7 520.7Q317.1 521.1 317.1 521.8L317.1 521.8Q317.1 522.5 317.7 522.9Q318.3 523.4 319.7 523.4L319.7 523.4L322.1 523.4Q323.5 523.4 324.2 523.0Q324.8 522.6 324.8 521.9ZM320.6 513.0L320.6 513.0Q321.9 513.0 322.5 512.4Q323.0 511.7 323.0 510.8L323.0 510.8L323.0 510.1Q323.0 509.2 322.5 508.6Q321.9 507.9 320.6 507.9L320.6 507.9Q319.4 507.9 318.8 508.6Q318.3 509.2 318.3 510.1L318.3 510.1L318.3 510.8Q318.3 511.7 318.8 512.4Q319.4 513.0 320.6 513.0ZM331.3 520.1L331.3 516.9L334.6 516.9L334.6 508.9L331.3 508.9L331.3 505.6L338.7 505.6L338.7 509.7L338.9 509.7Q339.1 508.9 339.5 508.2Q339.8 507.5 340.4 506.9Q340.9 506.3 341.7 506.0Q342.5 505.6 343.6 505.6L343.6 505.6L344.9 505.6L344.9 509.5L341.9 509.5Q340.3 509.5 339.5 510.4Q338.7 511.3 338.7 512.6L338.7 512.6L338.7 516.9L343.5 516.9L343.5 520.1L331.3 520.1Z " clip-path="url(#satori_cp-id-1-0-1-0-2)" mask="url(#satori_om-id-1-0-1-0-2)"/><clipPath id="satori_cp-id-1-0-1-1"><rect x="819" y="489" width="252" height="36"/></clipPath><mask id="satori_om-id-1-0-1-1"><rect x="819" y="489" width="252" height="36" fill="#fff"/></mask><path fill="black" d="M820.8 520.1L820.8 500.5L827.1 500.5Q831.0 500.5 832.9 503.1Q834.8 505.6 834.8 510.3L834.8 510.3Q834.8 515.1 832.9 517.6Q831.0 520.1 827.1 520.1L827.1 520.1L820.8 520.1ZM824.9 516.8L826.8 516.8Q828.7 516.8 829.6 515.6Q830.4 514.4 830.4 512.1L830.4 512.1L830.4 508.5Q830.4 506.3 829.6 505.1Q828.7 503.9 826.8 503.9L826.8 503.9L824.9 503.9L824.9 516.8ZM851.8 520.1L849.4 520.1Q848.1 520.1 847.4 519.4Q846.6 518.8 846.4 517.5L846.4 517.5L846.3 517.5Q845.9 519.0 844.7 519.7Q843.6 520.4 841.9 520.4L841.9 520.4Q839.8 520.4 838.5 519.3Q837.3 518.2 837.3 516.1L837.3 516.1Q837.3 513.8 838.9 512.8Q840.6 511.7 843.8 511.7L843.8 511.7L846.1 511.7L846.1 510.9Q846.1 509.6 845.5 509.0Q844.9 508.3 843.4 508.3L843.4 508.3Q842.1 508.3 841.3 508.8Q840.5 509.3 839.9 510.2L839.9 510.2L837.6 508.1Q838.4 506.9 839.9 506.1Q841.5 505.3 843.9 505.3L843.9 505.3Q846.9 505.3 848.6 506.7Q850.2 508.0 850.2 510.8L850.2 510.8L850.2 517.1L851.8 517.1L851.8 520.1ZM843.5 517.7L843.5 517.7Q844.6 517.7 845.3 517.2Q846.1 516.6 846.1 515.6L846.1 515.6L846.1 513.9L843.9 513.9Q841.3 513.9 841.3 515.6L841.3 515.6L841.3 516.2Q841.3 516.9 841.9 517.3Q842.5 517.7 843.5 517.7ZM868.9 521.5L868.9 521.5Q868.9 523.8 867.0 524.9Q865.1 526.0 860.9 526.0L860.9 526.0Q858.8 526.0 857.5 525.8Q856.2 525.6 855.4 525.1Q854.6 524.7 854.2 524.0Q853.9 523.4 853.9 522.7L853.9 522.7Q853.9 521.5 854.6 520.8Q855.4 520.2 856.7 519.9L856.7 519.9L856.7 519.7Q855.8 519.4 855.2 518.9Q854.7 518.4 854.7 517.4L854.7 517.4Q854.7 516.4 855.4 515.9Q856.1 515.4 857.3 515.1L857.3 515.1L857.3 514.9Q856.0 514.3 855.3 513.2Q854.6 512.1 854.6 510.5L854.6 510.5Q854.6 509.2 855.0 508.2Q855.5 507.3 856.3 506.6Q857.1 506.0 858.3 505.6Q859.4 505.3 860.8 505.3L860.8 505.3Q862.2 505.3 863.4 505.6L863.4 505.6L863.4 504.8Q863.4 504.0 864.0 503.4Q864.6 502.9 865.6 502.9L865.6 502.9L868.1 502.9L868.1 505.9L864.7 505.9L864.7 506.1Q865.8 506.8 866.5 507.8Q867.2 508.9 867.2 510.5L867.2 510.5Q867.2 511.7 866.7 512.7Q866.3 513.6 865.4 514.3Q864.6 514.9 863.4 515.3Q862.3 515.6 860.8 515.6L860.8 515.6Q860.2 515.6 859.6 515.5Q859.0 515.5 858.5 515.3L858.5 515.3Q858.2 515.5 858.0 515.8Q857.8 516.0 857.8 516.4L857.8 516.4Q857.8 516.7 857.9 516.9Q858.1 517.1 858.4 517.2Q858.7 517.3 859.1 517.3Q859.5 517.4 859.9 517.4L859.9 517.4L863.2 517.4Q864.7 517.4 865.8 517.7Q866.9 518.0 867.6 518.6Q868.3 519.1 868.6 519.9Q868.9 520.6 868.9 521.5ZM865.0 521.9L865.0 521.9Q865.0 521.3 864.6 521.0Q864.1 520.7 862.8 520.7L862.8 520.7L857.9 520.7Q857.3 521.1 857.3 521.8L857.3 521.8Q857.3 522.5 857.9 522.9Q858.5 523.4 859.9 523.4L859.9 523.4L862.3 523.4Q863.7 523.4 864.4 523.0Q865.0 522.6 865.0 521.9ZM860.8 513.0L860.8 513.0Q862.1 513.0 862.7 512.4Q863.2 511.7 863.2 510.8L863.2 510.8L863.2 510.1Q863.2 509.2 862.7 508.6Q862.1 507.9 860.8 507.9L860.8 507.9Q859.6 507.9 859.0 508.6Q858.5 509.2 858.5 510.1L858.5 510.1L858.5 510.8Q858.5 511.7 859.0 512.4Q859.6 513.0 860.8 513.0ZM871.5 520.1L871.5 516.9L874.8 516.9L874.8 508.9L871.5 508.9L871.5 505.6L878.9 505.6L878.9 509.7L879.1 509.7Q879.3 508.9 879.7 508.2Q880.0 507.5 880.6 506.9Q881.1 506.3 881.9 506.0Q882.7 505.6 883.8 505.6L883.8 505.6L885.1 505.6L885.1 509.5L882.1 509.5Q880.5 509.5 879.7 510.4Q878.9 511.3 878.9 512.6L878.9 512.6L878.9 516.9L883.7 516.9L883.7 520.1L871.5 520.1Z M919.7 520.1L915.2 520.1L913.9 515.4L908.6 515.4L907.4 520.1L903.1 520.1L908.4 500.5L914.4 500.5L919.7 520.1ZM913.3 512.0L911.4 504.6L911.2 504.6L909.3 512.0L913.3 512.0ZM928.0 520.4L928.0 520.4Q925.6 520.4 923.8 519.7Q922.1 519.0 921.2 517.7L921.2 517.7L923.5 515.6Q924.3 516.5 925.5 517.0Q926.6 517.5 928.1 517.5L928.1 517.5Q929.3 517.5 930.0 517.1Q930.7 516.8 930.7 516.0L930.7 516.0Q930.7 515.4 930.2 515.1Q929.7 514.9 928.9 514.7L928.9 514.7L926.6 514.4Q925.6 514.2 924.8 513.9Q923.9 513.7 923.3 513.1Q922.7 512.6 922.3 511.9Q922.0 511.2 922.0 510.2L922.0 510.2Q922.0 507.9 923.7 506.6Q925.4 505.3 928.6 505.3L928.6 505.3Q930.7 505.3 932.2 505.9Q933.7 506.5 934.6 507.5L934.6 507.5L932.5 509.9Q931.9 509.2 930.9 508.7Q929.9 508.2 928.4 508.2L928.4 508.2Q926.0 508.2 926.0 509.7L926.0 509.7Q926.0 510.3 926.5 510.6Q927.0 510.8 927.8 510.9L927.8 510.9L930.1 511.3Q931.1 511.4 931.9 511.7Q932.8 512.0 933.4 512.5Q934.0 513.0 934.4 513.8Q934.8 514.5 934.8 515.5L934.8 515.5Q934.8 517.8 933.0 519.1Q931.3 520.4 928.0 520.4ZM951.5 520.1L946.1 520.1Q943.9 520.1 942.8 518.9Q941.7 517.7 941.7 515.9L941.7 515.9L941.7 508.9L937.8 508.9L937.8 505.6L940.3 505.6Q941.2 505.6 941.6 505.3Q942.0 504.9 942.0 503.9L942.0 503.9L942.0 500.5L945.8 500.5L945.8 505.6L951.5 505.6L951.5 508.9L945.8 508.9L945.8 516.9L951.5 516.9L951.5 520.1ZM955.5 520.1L955.5 516.9L958.8 516.9L958.8 508.9L955.5 508.9L955.5 505.6L962.9 505.6L962.9 509.7L963.1 509.7Q963.3 508.9 963.7 508.2Q964.0 507.5 964.6 506.9Q965.1 506.3 965.9 506.0Q966.7 505.6 967.8 505.6L967.8 505.6L969.1 505.6L969.1 509.5L966.1 509.5Q964.5 509.5 963.7 510.4Q962.9 511.3 962.9 512.6L962.9 512.6L962.9 516.9L967.7 516.9L967.7 520.1L955.5 520.1ZM978.6 520.4L978.6 520.4Q976.9 520.4 975.6 519.9Q974.2 519.4 973.3 518.4Q972.4 517.4 971.9 516.0Q971.3 514.6 971.3 512.9L971.3 512.9Q971.3 511.1 971.9 509.7Q972.4 508.3 973.3 507.3Q974.2 506.3 975.6 505.8Q976.9 505.3 978.6 505.3L978.6 505.3Q980.3 505.3 981.6 505.8Q983.0 506.3 983.9 507.3Q984.8 508.3 985.3 509.7Q985.9 511.1 985.9 512.9L985.9 512.9Q985.9 514.6 985.3 516.0Q984.8 517.4 983.9 518.4Q983.0 519.4 981.6 519.9Q980.3 520.4 978.6 520.4ZM978.6 517.3L978.6 517.3Q980.0 517.3 980.8 516.5Q981.6 515.6 981.6 514.0L981.6 514.0L981.6 511.7Q981.6 510.1 980.8 509.3Q980.0 508.4 978.6 508.4L978.6 508.4Q977.2 508.4 976.4 509.3Q975.6 510.1 975.6 511.7L975.6 511.7L975.6 514.0Q975.6 515.6 976.4 516.5Q977.2 517.3 978.6 517.3Z M1006.0 520.1L1006.0 500.5L1012.8 500.5Q1015.7 500.5 1017.2 501.9Q1018.8 503.3 1018.8 505.8L1018.8 505.8Q1018.8 507.4 1017.9 508.4Q1017.1 509.4 1015.6 509.9L1015.6 509.9L1015.6 510.0Q1017.4 510.5 1018.4 511.6Q1019.4 512.7 1019.4 514.7L1019.4 514.7Q1019.4 517.2 1017.8 518.6Q1016.3 520.1 1013.5 520.1L1013.5 520.1L1006.0 520.1ZM1010.0 517.2L1012.2 517.2Q1013.7 517.2 1014.4 516.6Q1015.1 516.1 1015.1 514.8L1015.1 514.8L1015.1 514.0Q1015.1 512.6 1014.4 512.1Q1013.7 511.6 1012.2 511.6L1012.2 511.6L1010.0 511.6L1010.0 517.2ZM1010.0 508.8L1011.6 508.8Q1013.1 508.8 1013.8 508.3Q1014.5 507.9 1014.5 506.6L1014.5 506.6L1014.5 505.7Q1014.5 504.4 1013.8 504.0Q1013.1 503.5 1011.6 503.5L1011.6 503.5L1010.0 503.5L1010.0 508.8ZM1022.5 520.1L1022.5 516.9L1026.9 516.9L1026.9 502.6L1022.5 502.6L1022.5 499.4L1031.1 499.4L1031.1 516.9L1035.5 516.9L1035.5 520.1L1022.5 520.1ZM1045.8 520.4L1045.8 520.4Q1044.1 520.4 1042.8 519.9Q1041.4 519.4 1040.5 518.4Q1039.6 517.4 1039.1 516.0Q1038.5 514.6 1038.5 512.9L1038.5 512.9Q1038.5 511.1 1039.1 509.7Q1039.6 508.3 1040.5 507.3Q1041.4 506.3 1042.8 505.8Q1044.1 505.3 1045.8 505.3L1045.8 505.3Q1047.5 505.3 1048.8 505.8Q1050.2 506.3 1051.1 507.3Q1052.0 508.3 1052.5 509.7Q1053.1 511.1 1053.1 512.9L1053.1 512.9Q1053.1 514.6 1052.5 516.0Q1052.0 517.4 1051.1 518.4Q1050.2 519.4 1048.8 519.9Q1047.5 520.4 1045.8 520.4ZM1045.8 517.3L1045.8 517.3Q1047.2 517.3 1048.0 516.5Q1048.8 515.6 1048.8 514.0L1048.8 514.0L1048.8 511.7Q1048.8 510.1 1048.0 509.3Q1047.2 508.4 1045.8 508.4L1045.8 508.4Q1044.4 508.4 1043.6 509.3Q1042.8 510.1 1042.8 511.7L1042.8 511.7L1042.8 514.0Q1042.8 515.6 1043.6 516.5Q1044.4 517.3 1045.8 517.3ZM1070.5 521.5L1070.5 521.5Q1070.5 523.8 1068.6 524.9Q1066.7 526.0 1062.5 526.0L1062.5 526.0Q1060.4 526.0 1059.1 525.8Q1057.8 525.6 1057.0 525.1Q1056.2 524.7 1055.8 524.0Q1055.5 523.4 1055.5 522.7L1055.5 522.7Q1055.5 521.5 1056.2 520.8Q1057.0 520.2 1058.3 519.9L1058.3 519.9L1058.3 519.7Q1057.4 519.4 1056.8 518.9Q1056.3 518.4 1056.3 517.4L1056.3 517.4Q1056.3 516.4 1057.0 515.9Q1057.7 515.4 1058.9 515.1L1058.9 515.1L1058.9 514.9Q1057.6 514.3 1056.9 513.2Q1056.2 512.1 1056.2 510.5L1056.2 510.5Q1056.2 509.2 1056.6 508.2Q1057.1 507.3 1057.9 506.6Q1058.7 506.0 1059.9 505.6Q1061.0 505.3 1062.4 505.3L1062.4 505.3Q1063.8 505.3 1065.0 505.6L1065.0 505.6L1065.0 504.8Q1065.0 504.0 1065.6 503.4Q1066.2 502.9 1067.2 502.9L1067.2 502.9L1069.7 502.9L1069.7 505.9L1066.3 505.9L1066.3 506.1Q1067.4 506.8 1068.1 507.8Q1068.8 508.9 1068.8 510.5L1068.8 510.5Q1068.8 511.7 1068.3 512.7Q1067.9 513.6 1067.0 514.3Q1066.2 514.9 1065.0 515.3Q1063.9 515.6 1062.4 515.6L1062.4 515.6Q1061.8 515.6 1061.2 515.5Q1060.6 515.5 1060.1 515.3L1060.1 515.3Q1059.8 515.5 1059.6 515.8Q1059.4 516.0 1059.4 516.4L1059.4 516.4Q1059.4 516.7 1059.5 516.9Q1059.7 517.1 1060.0 517.2Q1060.3 517.3 1060.7 517.3Q1061.1 517.4 1061.5 517.4L1061.5 517.4L1064.8 517.4Q1066.3 517.4 1067.4 517.7Q1068.5 518.0 1069.2 518.6Q1069.9 519.1 1070.2 519.9Q1070.5 520.6 1070.5 521.5ZM1066.6 521.9L1066.6 521.9Q1066.6 521.3 1066.2 521.0Q1065.7 520.7 1064.4 520.7L1064.4 520.7L1059.5 520.7Q1058.9 521.1 1058.9 521.8L1058.9 521.8Q1058.9 522.5 1059.5 522.9Q1060.1 523.4 1061.5 523.4L1061.5 523.4L1063.9 523.4Q1065.3 523.4 1066.0 523.0Q1066.6 522.6 1066.6 521.9ZM1062.4 513.0L1062.4 513.0Q1063.7 513.0 1064.3 512.4Q1064.8 511.7 1064.8 510.8L1064.8 510.8L1064.8 510.1Q1064.8 509.2 1064.3 508.6Q1063.7 507.9 1062.4 507.9L1062.4 507.9Q1061.2 507.9 1060.6 508.6Q1060.1 509.2 1060.1 510.1L1060.1 510.1L1060.1 510.8Q1060.1 511.7 1060.6 512.4Q1061.2 513.0 1062.4 513.0Z " clip-path="url(#satori_cp-id-1-0-1-1)" mask="url(#satori_om-id-1-0-1-1)"/></svg>