<svg width="1200" height="630" viewBox="0 0 1200 630" xmlns="http://www.w3.org/2000/svg"><rect x="0" y="0" width="1200" height="630" fill="#fefbfb"/><defs><clipPath id="satori_bc-id-0"><path x="105" y="39" width="1056" height="504" d="M109,39 h1048 a4,4 0 0 1 4,4 v496 a4,4 0 0 1 -4,4 h-1048 a4,4 0 0 1 -4,-4 v-496 a4,4 0 0 1 4,-4"/></clipPath></defs><g opacity="0.9"><path x="105" y="39" width="1056" height="504" fill="#ecebeb" d="M109,39 h1048 a4,4 0 0 1 4,4 v496 a4,4 0 0 1 -4,4 h-1048 a4,4 0 0 1 -4,-4 v-496 a4,4 0 0 1 4,-4"/><path width="1056" height="504" clip-path="url(#satori_bc-id-0)" fill="none" stroke="#000" stroke-width="8" d="M106.172,40.172 A4,4 0 0 1 109,39 h1048 a4,4 0 0 1 4,4 v496 a4,4 0 0 1 -4,4 h-1048 a4,4 0 0 1 -4,-4 v-496 A4,4 0 0 1 106.172,40.172"/></g><defs><clipPath id="satori_bc-id-1"><path x="72" y="63" width="1056" height="504" d="M76,63 h1048 a4,4 0 0 1 4,4 v496 a4,4 0 0 1 -4,4 h-1048 a4,4 0 0 1 -4,-4 v-496 a4,4 0 0 1 4,-4"/></clipPath></defs><path x="72" y="63" width="1056" height="504" fill="#fefbfb" d="M76,63 h1048 a4,4 0 0 1 4,4 v496 a4,4 0 0 1 -4,4 h-1048 a4,4 0 0 1 -4,-4 v-496 a4,4 0 0 1 4,-4"/><path width="1056" height="504" clip-path="url(#satori_bc-id-1)" fill="none" stroke="#000" stroke-width="8" d="M73.172,64.172 A4,4 0 0 1 76,63 h1048 a4,4 0 0 1 4,4 v496 a4,4 0 0 1 -4,4 h-1048 a4,4 0 0 1 -4,-4 v-496 A4,4 0 0 1 73.172,64.172"/><clipPath id="satori_cp-id-1-0-0"><rect x="128" y="103" width="944" height="187"/></clipPath><mask id="satori_om-id-1-0-0"><rect x="128" y="103" width="944" height="187" fill="#fff"/></mask><path fill="black" d="M169.5 141.6L155 141.6L155 183.0L144.2 183.0L144.2 141.6L129.7 141.6L129.7 132.7L169.5 132.7L169.5 141.6ZM212.4 183.0L206.3 183.0Q203.0 183.0 200.9 181.3Q198.9 179.6 198.6 176.4L198.6 176.4L198.2 176.4Q197.2 180.1 194.2 181.9Q191.2 183.8 186.9 183.8L186.9 183.8Q181.5 183.8 178.2 180.9Q174.9 178.0 174.9 172.7L174.9 172.7Q174.9 166.9 179.2 164.1Q183.4 161.3 191.6 161.3L191.6 161.3L197.6 161.3L197.6 159.4Q197.6 156.1 196.1 154.4Q194.5 152.7 190.9 152.7L190.9 152.7Q187.5 152.7 185.4 154.0Q183.3 155.3 181.8 157.4L181.8 157.4L176.0 152.2Q177.8 149.0 181.8 147.0Q185.8 144.9 192.1 144.9L192.1 144.9Q199.7 144.9 204.0 148.4Q208.3 151.9 208.3 159.0L208.3 159.0L208.3 175.2L212.4 175.2L212.4 183.0ZM190.9 176.8L190.9 176.8Q193.7 176.8 195.7 175.5Q197.6 174.1 197.6 171.5L197.6 171.5L197.6 167.0L191.9 167.0Q185.4 167.0 185.4 171.4L185.4 171.4L185.4 172.9Q185.4 174.8 186.9 175.8Q188.4 176.8 190.9 176.8ZM238.3 141.0L238.3 141.0Q234.7 141.0 233.3 139.6Q231.9 138.1 231.9 136.0L231.9 136.0L231.9 133.9Q231.9 131.8 233.3 130.3Q234.7 128.9 238.3 128.9L238.3 128.9Q241.9 128.9 243.3 130.3Q244.7 131.8 244.7 133.9L244.7 133.9L244.7 136.0Q244.7 138.1 243.3 139.6Q241.9 141.0 238.3 141.0ZM221.2 183.0L221.2 174.7L233.0 174.7L233.0 154.1L221.2 154.1L221.2 145.8L243.6 145.8L243.6 174.7L254.6 174.7L254.6 183.0L221.2 183.0ZM262.5 183.0L262.5 174.7L273.9 174.7L273.9 138.0L262.5 138.0L262.5 129.7L284.5 129.7L284.5 174.7L295.9 174.7L295.9 183.0L262.5 183.0ZM305.7 183.0L301.3 145.8L310.2 145.8L312.8 175.9L313.5 175.9L317.9 145.8L327.3 145.8L331.6 175.9L332.3 175.9L335.1 145.8L343.5 145.8L339.1 183.0L326.4 183.0L322.8 157.3L322.0 157.3L318.4 183.0L305.7 183.0ZM367.9 141.0L367.9 141.0Q364.3 141.0 362.9 139.6Q361.5 138.1 361.5 136.0L361.5 136.0L361.5 133.9Q361.5 131.8 362.9 130.3Q364.3 128.9 367.9 128.9L367.9 128.9Q371.5 128.9 372.9 130.3Q374.3 131.8 374.3 133.9L374.3 133.9L374.3 136.0Q374.3 138.1 372.9 139.6Q371.5 141.0 367.9 141.0ZM350.8 183.0L350.8 174.7L362.6 174.7L362.6 154.1L350.8 154.1L350.8 145.8L373.2 145.8L373.2 174.7L384.2 174.7L384.2 183.0L350.8 183.0ZM402.5 183.0L391.9 183.0L391.9 145.8L402.5 145.8L402.5 152.6L403.0 152.6Q403.6 151.0 404.6 149.6Q405.5 148.2 406.8 147.2Q408.2 146.2 409.9 145.5Q411.7 144.9 413.9 144.9L413.9 144.9Q416.6 144.9 418.8 145.8Q421.0 146.7 422.6 148.5Q424.2 150.3 425.1 152.9Q426.0 155.5 426.0 158.9L426.0 158.9L426.0 183.0L415.4 183.0L415.4 160.3Q415.4 153.1 409.1 153.1L409.1 153.1Q407.9 153.1 406.7 153.5Q405.5 153.8 404.6 154.5Q403.6 155.2 403.1 156.2Q402.5 157.2 402.5 158.5L402.5 158.5L402.5 183.0ZM458.7 183.0L458.7 176.2L458.2 176.2Q456.8 179.6 454.2 181.7Q451.6 183.8 447.2 183.8L447.2 183.8Q444.1 183.8 441.5 182.7Q439.0 181.5 437.1 179.1Q435.3 176.8 434.3 173.1Q433.2 169.4 433.2 164.4L433.2 164.4Q433.2 159.3 434.3 155.7Q435.3 152.0 437.1 149.6Q439.0 147.2 441.5 146.1Q444.1 144.9 447.2 144.9L447.2 144.9Q449.4 144.9 451.1 145.5Q452.9 146.1 454.2 147.1Q455.5 148.1 456.5 149.5Q457.5 150.9 458.2 152.6L458.2 152.6L458.7 152.6L458.7 129.7L469.4 129.7L469.4 183.0L458.7 183.0ZM451.8 175.5L451.8 175.5Q454.6 175.5 456.6 174.2Q458.7 172.8 458.7 169.8L458.7 169.8L458.7 158.9Q458.7 156.0 456.6 154.6Q454.6 153.2 451.8 153.2L451.8 153.2Q448.2 153.2 446.2 155.4Q444.3 157.6 444.3 161.5L444.3 161.5L444.3 167.3Q444.3 171.1 446.2 173.3Q448.2 175.5 451.8 175.5Z M558.3 141.6L543.8 141.6L543.8 183.0L533 183.0L533 141.6L518.5 141.6L518.5 132.7L558.3 132.7L558.3 141.6ZM585.4 161.4L591.0 145.8L601.8 145.8L584.3 188.9Q582.7 193.0 579.9 195.2Q577.2 197.4 572.5 197.4L572.5 197.4L565.1 197.4L565.1 189.1L574.0 189.1L576.3 182.7L561.4 145.8L572.8 145.8L578.2 161.4L581.6 172.2L582.2 172.2L585.4 161.4ZM607.4 197.4L607.4 145.8L618.1 145.8L618.1 152.6L618.6 152.6Q620.0 149.3 622.6 147.1Q625.2 144.9 629.6 144.9L629.6 144.9Q632.7 144.9 635.3 146.1Q637.8 147.2 639.7 149.6Q641.5 152.0 642.5 155.7Q643.6 159.3 643.6 164.4L643.6 164.4Q643.6 169.4 642.5 173.1Q641.5 176.8 639.7 179.1Q637.8 181.5 635.3 182.7Q632.7 183.8 629.6 183.8L629.6 183.8Q625.2 183.8 622.6 181.7Q620.0 179.6 618.6 176.2L618.6 176.2L618.1 176.2L618.1 197.4L607.4 197.4ZM625.0 175.5L625.0 175.5Q628.6 175.5 630.6 173.3Q632.5 171.1 632.5 167.3L632.5 167.3L632.5 161.5Q632.5 157.6 630.6 155.4Q628.6 153.2 625.0 153.2L625.0 153.2Q622.2 153.2 620.2 154.6Q618.1 156.0 618.1 158.9L618.1 158.9L618.1 169.8Q618.1 172.8 620.2 174.2Q622.2 175.5 625.0 175.5ZM668.0 183.8L668.0 183.8Q663.7 183.8 660.2 182.5Q656.8 181.2 654.4 178.6Q651.9 176.1 650.6 172.5Q649.4 168.9 649.4 164.4L649.4 164.4Q649.4 159.8 650.6 156.2Q651.9 152.6 654.4 150.1Q656.8 147.6 660.2 146.3Q663.7 144.9 668.0 144.9L668.0 144.9Q672.3 144.9 675.8 146.3Q679.2 147.6 681.6 150.1Q684.1 152.6 685.4 156.2Q686.6 159.8 686.6 164.4L686.6 164.4Q686.6 168.9 685.4 172.5Q684.1 176.1 681.6 178.6Q679.2 181.2 675.8 182.5Q672.3 183.8 668.0 183.8ZM668.0 175.9L668.0 175.9Q671.6 175.9 673.6 173.7Q675.6 171.4 675.6 167.3L675.6 167.3L675.6 161.4Q675.6 157.3 673.6 155.1Q671.6 152.9 668.0 152.9L668.0 152.9Q664.4 152.9 662.4 155.1Q660.4 157.3 660.4 161.4L660.4 161.4L660.4 167.3Q660.4 171.4 662.4 173.7Q664.4 175.9 668.0 175.9ZM731.6 186.7L731.6 186.7Q731.6 192.6 726.6 195.4Q721.6 198.2 711.0 198.2L711.0 198.2Q705.7 198.2 702.2 197.6Q698.7 197.0 696.7 195.8Q694.6 194.7 693.8 193.1Q693.0 191.5 693.0 189.6L693.0 189.6Q693.0 186.5 694.9 184.9Q696.7 183.2 700.1 182.4L700.1 182.4L700.1 181.9Q697.7 181.2 696.3 179.9Q694.9 178.6 694.9 176.1L694.9 176.1Q694.9 173.4 696.8 172.1Q698.6 170.8 701.6 170.1L701.6 170.1L701.6 169.6Q698.3 168.0 696.5 165.2Q694.6 162.3 694.6 158.2L694.6 158.2Q694.6 154.9 695.8 152.5Q696.9 150.0 699.1 148.3Q701.2 146.7 704.1 145.8Q707.1 144.9 710.8 144.9L710.8 144.9Q714.3 144.9 717.3 145.7L717.3 145.7L717.3 143.7Q717.3 141.6 718.8 140.1Q720.3 138.7 723.0 138.7L723.0 138.7L729.6 138.7L729.6 146.4L720.6 146.4L720.6 147.1Q723.7 148.7 725.3 151.5Q727.0 154.2 727.0 158.2L727.0 158.2Q727.0 161.4 725.9 163.9Q724.7 166.3 722.6 168.0Q720.4 169.7 717.4 170.6Q714.4 171.4 710.8 171.4L710.8 171.4Q709.1 171.4 707.6 171.3Q706.1 171.1 704.7 170.7L704.7 170.7Q703.9 171.1 703.4 171.8Q702.8 172.4 702.8 173.4L702.8 173.4Q702.8 174.3 703.3 174.8Q703.7 175.3 704.5 175.6Q705.2 175.8 706.2 175.9Q707.2 176.0 708.3 176.0L708.3 176.0L716.8 176.0Q720.8 176.0 723.6 176.8Q726.4 177.6 728.2 179.0Q730.0 180.4 730.8 182.4Q731.6 184.3 731.6 186.7ZM721.5 187.5L721.5 187.5Q721.5 186.0 720.3 185.2Q719.2 184.4 716.0 184.4L716.0 184.4L703.2 184.4Q701.8 185.6 701.8 187.4L701.8 187.4Q701.8 189.1 703.2 190.3Q704.7 191.4 708.2 191.4L708.2 191.4L714.5 191.4Q718.2 191.4 719.8 190.4Q721.5 189.4 721.5 187.5ZM710.8 164.7L710.8 164.7Q714.0 164.7 715.5 163.1Q717.0 161.5 717.0 159.0L717.0 159.0L717.0 157.3Q717.0 154.9 715.5 153.3Q714.0 151.7 710.8 151.7L710.8 151.7Q707.6 151.7 706.2 153.3Q704.7 154.9 704.7 157.3L704.7 157.3L704.7 159.0Q704.7 161.5 706.2 163.1Q707.6 164.7 710.8 164.7ZM738.1 183.0L738.1 174.7L746.7 174.7L746.7 154.1L738.1 154.1L738.1 145.8L757.4 145.8L757.4 156.3L757.9 156.3Q758.4 154.3 759.3 152.4Q760.2 150.5 761.6 149.0Q763.0 147.5 765.0 146.7Q767.0 145.8 769.7 145.8L769.7 145.8L773.3 145.8L773.3 155.6L765.3 155.6Q761.4 155.6 759.4 157.9Q757.4 160.3 757.4 163.7L757.4 163.7L757.4 174.7L769.6 174.7L769.6 183.0L738.1 183.0ZM817.2 183.0L811.1 183.0Q807.8 183.0 805.7 181.3Q803.7 179.6 803.4 176.4L803.4 176.4L803.0 176.4Q802.0 180.1 799.0 181.9Q796.0 183.8 791.7 183.8L791.7 183.8Q786.3 183.8 783.0 180.9Q779.7 178.0 779.7 172.7L779.7 172.7Q779.7 166.9 784.0 164.1Q788.2 161.3 796.4 161.3L796.4 161.3L802.4 161.3L802.4 159.4Q802.4 156.1 800.9 154.4Q799.3 152.7 795.7 152.7L795.7 152.7Q792.3 152.7 790.2 154.0Q788.1 155.3 786.6 157.4L786.6 157.4L780.8 152.2Q782.6 149.0 786.6 147.0Q790.6 144.9 796.9 144.9L796.9 144.9Q804.5 144.9 808.8 148.4Q813.1 151.9 813.1 159.0L813.1 159.0L813.1 175.2L817.2 175.2L817.2 183.0ZM795.7 176.8L795.7 176.8Q798.5 176.8 800.5 175.5Q802.4 174.1 802.4 171.5L802.4 171.5L802.4 167.0L796.7 167.0Q790.2 167.0 790.2 171.4L790.2 171.4L790.2 172.9Q790.2 174.8 791.7 175.8Q793.2 176.8 795.7 176.8ZM823.4 197.4L823.4 145.8L834.1 145.8L834.1 152.6L834.6 152.6Q836.0 149.3 838.6 147.1Q841.2 144.9 845.6 144.9L845.6 144.9Q848.7 144.9 851.3 146.1Q853.8 147.2 855.7 149.6Q857.5 152.0 858.5 155.7Q859.6 159.3 859.6 164.4L859.6 164.4Q859.6 169.4 858.5 173.1Q857.5 176.8 855.7 179.1Q853.8 181.5 851.3 182.7Q848.7 183.8 845.6 183.8L845.6 183.8Q841.2 183.8 838.6 181.7Q836.0 179.6 834.6 176.2L834.6 176.2L834.1 176.2L834.1 197.4L823.4 197.4ZM841.0 175.5L841.0 175.5Q844.6 175.5 846.6 173.3Q848.5 171.1 848.5 167.3L848.5 167.3L848.5 161.5Q848.5 157.6 846.6 155.4Q844.6 153.2 841.0 153.2L841.0 153.2Q838.2 153.2 836.2 154.6Q834.1 156.0 834.1 158.9L834.1 158.9L834.1 169.8Q834.1 172.8 836.2 174.2Q838.2 175.5 841.0 175.5ZM867.1 183.0L867.1 129.7L877.7 129.7L877.7 152.6L878.2 152.6Q878.8 151.0 879.8 149.6Q880.7 148.2 882.0 147.2Q883.4 146.2 885.1 145.5Q886.9 144.9 889.1 144.9L889.1 144.9Q891.8 144.9 894.0 145.8Q896.2 146.7 897.8 148.5Q899.4 150.3 900.3 152.9Q901.2 155.5 901.2 158.9L901.2 158.9L901.2 183.0L890.6 183.0L890.6 160.3Q890.6 153.1 884.3 153.1L884.3 153.1Q883.1 153.1 881.9 153.5Q880.7 153.8 879.8 154.5Q878.8 155.2 878.3 156.2Q877.7 157.2 877.7 158.5L877.7 158.5L877.7 183.0L867.1 183.0ZM931.0 161.4L936.6 145.8L947.4 145.8L929.9 188.9Q928.3 193.0 925.5 195.2Q922.8 197.4 918.1 197.4L918.1 197.4L910.7 197.4L910.7 189.1L919.6 189.1L921.9 182.7L907.0 145.8L918.4 145.8L923.8 161.4L927.2 172.2L927.8 172.2L931.0 161.4Z M144.3 276.6L133.5 276.6L133.5 226.3L152.9 226.3Q156.6 226.3 159.5 227.4Q162.3 228.5 164.3 230.6Q166.3 232.7 167.3 235.7Q168.3 238.6 168.3 242.3L168.3 242.3Q168.3 246.0 167.3 248.9Q166.3 251.9 164.3 253.9Q162.3 256.0 159.5 257.1Q156.6 258.3 152.9 258.3L152.9 258.3L144.3 258.3L144.3 276.6ZM144.3 235.0L144.3 249.6L150.2 249.6Q154.0 249.6 155.5 248.1Q156.9 246.7 156.9 243.4L156.9 243.4L156.9 241.2Q156.9 237.9 155.5 236.4Q154.0 235.0 150.2 235.0L150.2 235.0L144.3 235.0ZM176.1 276.6L176.1 268.3L187.5 268.3L187.5 231.6L176.1 231.6L176.1 223.3L198.1 223.3L198.1 268.3L209.5 268.3L209.5 276.6L176.1 276.6ZM242.3 276.6L242.3 269.8L241.8 269.8Q240.6 273.0 238.0 275.2Q235.4 277.4 230.9 277.4L230.9 277.4Q228.2 277.4 226.0 276.5Q223.8 275.6 222.2 273.8Q220.6 272.0 219.7 269.4Q218.8 266.8 218.8 263.4L218.8 263.4L218.8 239.4L229.4 239.4L229.4 262.0Q229.4 269.2 235.7 269.2L235.7 269.2Q236.9 269.2 238.1 268.9Q239.3 268.6 240.2 267.9Q241.1 267.2 241.7 266.2Q242.3 265.2 242.3 263.8L242.3 263.8L242.3 239.4L252.9 239.4L252.9 276.6L242.3 276.6ZM299.6 280.3L299.6 280.3Q299.6 286.2 294.6 289.0Q289.6 291.8 279.0 291.8L279.0 291.8Q273.7 291.8 270.2 291.2Q266.7 290.6 264.7 289.4Q262.6 288.3 261.8 286.7Q261.0 285.1 261.0 283.2L261.0 283.2Q261.0 280.1 262.9 278.5Q264.7 276.8 268.1 276.0L268.1 276.0L268.1 275.5Q265.7 274.8 264.3 273.5Q262.9 272.2 262.9 269.7L262.9 269.7Q262.9 267.0 264.8 265.7Q266.6 264.4 269.6 263.7L269.6 263.7L269.6 263.2Q266.3 261.6 264.5 258.8Q262.6 255.9 262.6 251.8L262.6 251.8Q262.6 248.5 263.8 246.1Q264.9 243.6 267.1 241.9Q269.2 240.3 272.1 239.4Q275.1 238.5 278.8 238.5L278.8 238.5Q282.3 238.5 285.3 239.3L285.3 239.3L285.3 237.3Q285.3 235.2 286.8 233.7Q288.3 232.3 291.0 232.3L291.0 232.3L297.6 232.3L297.6 240.0L288.6 240.0L288.6 240.7Q291.7 242.3 293.3 245.1Q295.0 247.8 295.0 251.8L295.0 251.8Q295.0 255.0 293.9 257.5Q292.7 259.9 290.6 261.6Q288.4 263.3 285.4 264.2Q282.4 265.0 278.8 265.0L278.8 265.0Q277.1 265.0 275.6 264.9Q274.1 264.7 272.7 264.3L272.7 264.3Q271.9 264.7 271.4 265.4Q270.8 266.0 270.8 267.0L270.8 267.0Q270.8 267.9 271.3 268.4Q271.7 268.9 272.5 269.2Q273.2 269.4 274.2 269.5Q275.2 269.6 276.3 269.6L276.3 269.6L284.8 269.6Q288.8 269.6 291.6 270.4Q294.4 271.2 296.2 272.6Q298.0 274.0 298.8 276.0Q299.6 277.9 299.6 280.3ZM289.5 281.1L289.5 281.1Q289.5 279.6 288.3 278.8Q287.2 278.0 284.0 278.0L284.0 278.0L271.2 278.0Q269.8 279.2 269.8 281.0L269.8 281.0Q269.8 282.7 271.2 283.9Q272.7 285.0 276.2 285.0L276.2 285.0L282.5 285.0Q286.2 285.0 287.8 284.0Q289.5 283.0 289.5 281.1ZM278.8 258.3L278.8 258.3Q282.0 258.3 283.5 256.7Q285.0 255.1 285.0 252.6L285.0 252.6L285.0 250.9Q285.0 248.5 283.5 246.9Q282.0 245.3 278.8 245.3L278.8 245.3Q275.6 245.3 274.2 246.9Q272.7 248.5 272.7 250.9L272.7 250.9L272.7 252.6Q272.7 255.1 274.2 256.7Q275.6 258.3 278.8 258.3ZM324.7 234.6L324.7 234.6Q321.1 234.6 319.7 233.2Q318.3 231.7 318.3 229.6L318.3 229.6L318.3 227.5Q318.3 225.4 319.7 223.9Q321.1 222.5 324.7 222.5L324.7 222.5Q328.3 222.5 329.7 223.9Q331.1 225.4 331.1 227.5L331.1 227.5L331.1 229.6Q331.1 231.7 329.7 233.2Q328.3 234.6 324.7 234.6ZM307.6 276.6L307.6 268.3L319.4 268.3L319.4 247.7L307.6 247.7L307.6 239.4L330.0 239.4L330.0 268.3L341.0 268.3L341.0 276.6L307.6 276.6ZM359.3 276.6L348.7 276.6L348.7 239.4L359.3 239.4L359.3 246.2L359.8 246.2Q360.4 244.6 361.4 243.2Q362.3 241.8 363.6 240.8Q365.0 239.8 366.7 239.1Q368.5 238.5 370.7 238.5L370.7 238.5Q373.4 238.5 375.6 239.4Q377.8 240.3 379.4 242.1Q381.0 243.9 381.9 246.5Q382.8 249.1 382.8 252.5L382.8 252.5L382.8 276.6L372.2 276.6L372.2 253.9Q372.2 246.7 365.9 246.7L365.9 246.7Q364.7 246.7 363.5 247.1Q362.3 247.4 361.4 248.1Q360.4 248.8 359.9 249.8Q359.3 250.8 359.3 252.1L359.3 252.1L359.3 276.6Z " clip-path="url(#satori_cp-id-1-0-0)" mask="url(#satori_om-id-1-0-0)"/><path fill="black" d="M130.7 520.3L130.7 499.6L132.9 499.6L132.9 508.2L133.0 508.2Q134.4 505.5 137.5 505.5L137.5 505.5Q140.1 505.5 141.6 507.5Q143.1 509.5 143.1 513.0L143.1 513.0Q143.1 516.6 141.6 518.6Q140.1 520.6 137.5 520.6L137.5 520.6Q134.4 520.6 133.0 517.9L133.0 517.9L132.9 517.9L132.9 520.3L130.7 520.3ZM136.6 518.6L136.6 518.6Q138.6 518.6 139.6 517.4Q140.7 516.2 140.7 514.3L140.7 514.3L140.7 511.8Q140.7 509.9 139.6 508.7Q138.6 507.5 136.6 507.5L136.6 507.5Q135.8 507.5 135.2 507.7Q134.5 507.9 134.0 508.2Q133.5 508.6 133.2 509.2Q132.9 509.7 132.9 510.4L132.9 510.4L132.9 515.7Q132.9 516.4 133.2 516.9Q133.5 517.5 134.0 517.8Q134.5 518.2 135.2 518.4Q135.8 518.6 136.6 518.6ZM155.4 511.9L157.9 505.8L160.1 505.8L152.9 523.4Q152.7 524.1 152.4 524.5Q152.1 525.0 151.7 525.3Q151.2 525.6 150.7 525.7Q150.1 525.9 149.3 525.9L149.3 525.9L147.1 525.9L147.1 524.0L150.5 524.0L152.1 520.0L146.3 505.8L148.6 505.8L151.0 511.9L153.2 517.4L153.3 517.4L155.4 511.9Z "/><clipPath id="satori_cp-id-1-0-1-0-2"><rect x="178" y="489" width="168" height="36"/></clipPath><mask id="satori_om-id-1-0-1-0-2"><rect x="178" y="489" width="168" height="36" fill="#fff"/></mask><path fill="black" d="M192.7 520.1L180.1 520.1L180.1 517.0L184.3 517.0L184.3 503.7L180.1 503.7L180.1 500.5L192.7 500.5L192.7 503.7L188.5 503.7L188.5 517.0L192.7 517.0L192.7 520.1ZM203.0 520.4L203.0 520.4Q200.6 520.4 198.8 519.7Q197.1 519.0 196.2 517.7L196.2 517.7L198.5 515.6Q199.3 516.5 200.5 517.0Q201.6 517.5 203.1 517.5L203.1 517.5Q204.3 517.5 205.0 517.1Q205.7 516.8 205.7 516.0L205.7 516.0Q205.7 515.4 205.2 515.1Q204.7 514.9 203.9 514.7L203.9 514.7L201.6 514.4Q200.6 514.2 199.8 513.9Q198.9 513.7 198.3 513.1Q197.7 512.6 197.3 511.9Q197.0 511.2 197.0 510.2L197.0 510.2Q197.0 507.9 198.7 506.6Q200.4 505.3 203.6 505.3L203.6 505.3Q205.7 505.3 207.2 505.9Q208.7 506.5 209.6 507.5L209.6 507.5L207.5 509.9Q206.9 509.2 205.9 508.7Q204.9 508.2 203.4 508.2L203.4 508.2Q201.0 508.2 201.0 509.7L201.0 509.7Q201.0 510.3 201.5 510.6Q202.0 510.8 202.8 510.9L202.8 510.9L205.1 511.3Q206.1 511.4 206.9 511.7Q207.8 512.0 208.4 512.5Q209.0 513.0 209.4 513.8Q209.8 514.5 209.8 515.5L209.8 515.5Q209.8 517.8 208.0 519.1Q206.3 520.4 203.0 520.4ZM227.6 520.1L225.2 520.1Q223.9 520.1 223.2 519.4Q222.4 518.8 222.2 517.5L222.2 517.5L222.1 517.5Q221.7 519.0 220.5 519.7Q219.4 520.4 217.7 520.4L217.7 520.4Q215.6 520.4 214.3 519.3Q213.1 518.2 213.1 516.1L213.1 516.1Q213.1 513.8 214.7 512.8Q216.4 511.7 219.6 511.7L219.6 511.7L221.9 511.7L221.9 510.9Q221.9 509.6 221.3 509.0Q220.7 508.3 219.2 508.3L219.2 508.3Q217.9 508.3 217.1 508.8Q216.3 509.3 215.7 510.2L215.7 510.2L213.4 508.1Q214.2 506.9 215.7 506.1Q217.3 505.3 219.7 505.3L219.7 505.3Q222.7 505.3 224.4 506.7Q226.0 508.0 226.0 510.8L226.0 510.8L226.0 517.1L227.6 517.1L227.6 520.1ZM219.3 517.7L219.3 517.7Q220.4 517.7 221.1 517.2Q221.9 516.6 221.9 515.6L221.9 515.6L221.9 513.9L219.7 513.9Q217.1 513.9 217.1 515.6L217.1 515.6L217.1 516.2Q217.1 516.9 217.7 517.3Q218.3 517.7 219.3 517.7ZM244.4 520.1L242.0 520.1Q240.7 520.1 240.0 519.4Q239.2 518.8 239.0 517.5L239.0 517.5L238.9 517.5Q238.5 519.0 237.3 519.7Q236.2 520.4 234.5 520.4L234.5 520.4Q232.4 520.4 231.1 519.3Q229.9 518.2 229.9 516.1L229.9 516.1Q229.9 513.8 231.5 512.8Q233.2 511.7 236.4 511.7L236.4 511.7L238.7 511.7L238.7 510.9Q238.7 509.6 238.1 509.0Q237.5 508.3 236.0 508.3L236.0 508.3Q234.7 508.3 233.9 508.8Q233.1 509.3 232.5 510.2L232.5 510.2L230.2 508.1Q231.0 506.9 232.5 506.1Q234.1 505.3 236.5 505.3L236.5 505.3Q239.5 505.3 241.2 506.7Q242.8 508.0 242.8 510.8L242.8 510.8L242.8 517.1L244.4 517.1L244.4 520.1ZM236.1 517.7L236.1 517.7Q237.2 517.7 237.9 517.2Q238.7 516.6 238.7 515.6L238.7 515.6L238.7 513.9L236.5 513.9Q233.9 513.9 233.9 515.6L233.9 515.6L233.9 516.2Q233.9 516.9 234.5 517.3Q235.1 517.7 236.1 517.7ZM254.2 520.4L254.2 520.4Q252.5 520.4 251.1 519.9Q249.8 519.4 248.8 518.4Q247.9 517.4 247.4 516.0Q246.9 514.6 246.9 512.9L246.9 512.9Q246.9 511.1 247.4 509.7Q247.9 508.3 248.8 507.3Q249.8 506.3 251.1 505.8Q252.5 505.3 254.2 505.3L254.2 505.3Q256.5 505.3 258.0 506.3Q259.4 507.2 260.2 508.8L260.2 508.8L257.0 510.6Q256.6 509.7 256.0 509.2Q255.3 508.6 254.2 508.6L254.2 508.6Q252.7 508.6 252.0 509.4Q251.2 510.3 251.2 511.7L251.2 511.7L251.2 514.0Q251.2 515.5 252.0 516.3Q252.7 517.1 254.2 517.1L254.2 517.1Q255.4 517.1 256.1 516.6Q256.8 516.0 257.3 515.1L257.3 515.1L260.4 516.9Q259.6 518.5 258.1 519.5Q256.6 520.4 254.2 520.4Z M280.6 520.1L280.6 500.5L286.9 500.5Q290.8 500.5 292.7 503.1Q294.6 505.6 294.6 510.3L294.6 510.3Q294.6 515.1 292.7 517.6Q290.8 520.1 286.9 520.1L286.9 520.1L280.6 520.1ZM284.7 516.8L286.6 516.8Q288.5 516.8 289.4 515.6Q290.2 514.4 290.2 512.1L290.2 512.1L290.2 508.5Q290.2 506.3 289.4 505.1Q288.5 503.9 286.6 503.9L286.6 503.9L284.7 503.9L284.7 516.8ZM311.6 520.1L309.2 520.1Q307.9 520.1 307.2 519.4Q306.4 518.8 306.2 517.5L306.2 517.5L306.1 517.5Q305.7 519.0 304.5 519.7Q303.4 520.4 301.7 520.4L301.7 520.4Q299.6 520.4 298.3 519.3Q297.1 518.2 297.1 516.1L297.1 516.1Q297.1 513.8 298.7 512.8Q300.4 511.7 303.6 511.7L303.6 511.7L305.9 511.7L305.9 510.9Q305.9 509.6 305.3 509.0Q304.7 508.3 303.2 508.3L303.2 508.3Q301.9 508.3 301.1 508.8Q300.3 509.3 299.7 510.2L299.7 510.2L297.4 508.1Q298.2 506.9 299.7 506.1Q301.3 505.3 303.7 505.3L303.7 505.3Q306.7 505.3 308.4 506.7Q310.0 508.0 310.0 510.8L310.0 510.8L310.0 517.1L311.6 517.1L311.6 520.1ZM303.3 517.7L303.3 517.7Q304.4 517.7 305.1 517.2Q305.9 516.6 305.9 515.6L305.9 515.6L305.9 513.9L303.7 513.9Q301.1 513.9 301.1 515.6L301.1 515.6L301.1 516.2Q301.1 516.9 301.7 517.3Q302.3 517.7 303.3 517.7ZM328.7 521.5L328.7 521.5Q328.7 523.8 326.8 524.9Q324.9 526.0 320.7 526.0L320.7 526.0Q318.6 526.0 317.3 525.8Q316.0 525.6 315.2 525.1Q314.4 524.7 314.0 524.0Q313.7 523.4 313.7 522.7L313.7 522.7Q313.7 521.5 314.4 520.8Q315.2 520.2 316.5 519.9L316.5 519.9L316.5 519.7Q315.6 519.4 315.0 518.9Q314.5 518.4 314.5 517.4L314.5 517.4Q314.5 516.4 315.2 515.9Q315.9 515.4 317.1 515.1L317.1 515.1L317.1 514.9Q315.8 514.3 315.1 513.2Q314.4 512.1 314.4 510.5L314.4 510.5Q314.4 509.2 314.8 508.2Q315.3 507.3 316.1 506.6Q316.9 506.0 318.1 505.6Q319.2 505.3 320.6 505.3L320.6 505.3Q322.0 505.3 323.2 505.6L323.2 505.6L323.2 504.8Q323.2 504.0 323.8 503.4Q324.4 502.9 325.4 502.9L325.4 502.9L327.9 502.9L327.9 505.9L324.5 505.9L324.5 506.1Q325.6 506.8 326.3 507.8Q327.0 508.9 327.0 510.5L327.0 510.5Q327.0 511.7 326.5 512.7Q326.1 513.6 325.2 514.3Q324.4 514.9 323.2 515.3Q322.1 515.6 320.6 515.6L320.6 515.6Q320.0 515.6 319.4 515.5Q318.8 515.5 318.3 515.3L318.3 515.3Q318.0 515.5 317.8 515.8Q317.6 516.0 317.6 516.4L317.6 516.4Q317.6 516.7 317.7 516.9Q317.9 517.1 318.2 517.2Q318.5 517.3 318.9 517.3Q319.3 517.4 319.7 517.4L319.7 517.4L323.0 517.4Q324.5 517.4 325.6 517.7Q326.7 518.0 327.4 518.6Q328.1 519.1 328.4 519.9Q328.7 520.6 328.7 521.5ZM324.8 521.9L324.8 521.9Q324.8 521.3 324.4 521.0Q323.9 520.7 322.6 520.7L322.6 520.7L317.7 520.7Q317.1 521.1 317.1 521.8L317.1 521.8Q317.1 522.5 317.7 522.9Q318.3 523.4 319.7 523.4L319.7 523.4L322.1 523.4Q323.5 523.4 324.2 523.0Q324.8 522.6 324.8 521.9ZM320.6 513.0L320.6 513.0Q321.9 513.0 322.5 512.4Q323.0 511.7 323.0 510.8L323.0 510.8L323.0 510.1Q323.0 509.2 322.5 508.6Q321.9 507.9 320.6 507.9L320.6 507.9Q319.4 507.9 318.8 508.6Q318.3 509.2 318.3 510.1L318.3 510.1L318.3 510.8Q318.3 511.7 318.8 512.4Q319.4 513.0 320.6 513.0ZM331.3 520.1L331.3 516.9L334.6 516.9L334.6 508.9L331.3 508.9L331.3 505.6L338.7 505.6L338.7 509.7L338.9 509.7Q339.1 508.9 339.5 508.2Q339.8 507.5 340.4 506.9Q340.9 506.3 341.7 506.0Q342.5 505.6 343.6 505.6L343.6 505.6L344.9 505.6L344.9 509.5L341.9 509.5Q340.3 509.5 339.5 510.4Q338.7 511.3 338.7 512.6L338.7 512.6L338.7 516.9L343.5 516.9L343.5 520.1L331.3 520.1Z " clip-path="url(#satori_cp-id-1-0-1-0-2)" mask="url(#satori_om-id-1-0-1-0-2)"/><clipPath id="satori_cp-id-1-0-1-1"><rect x="819" y="489" width="252" height="36"/></clipPath><mask id="satori_om-id-1-0-1-1"><rect x="819" y="489" width="252" height="36" fill="#fff"/></mask><path fill="black" d="M820.8 520.1L820.8 500.5L827.1 500.5Q831.0 500.5 832.9 503.1Q834.8 505.6 834.8 510.3L834.8 510.3Q834.8 515.1 832.9 517.6Q831.0 520.1 827.1 520.1L827.1 520.1L820.8 520.1ZM824.9 516.8L826.8 516.8Q828.7 516.8 829.6 515.6Q830.4 514.4 830.4 512.1L830.4 512.1L830.4 508.5Q830.4 506.3 829.6 505.1Q828.7 503.9 826.8 503.9L826.8 503.9L824.9 503.9L824.9 516.8ZM851.8 520.1L849.4 520.1Q848.1 520.1 847.4 519.4Q846.6 518.8 846.4 517.5L846.4 517.5L846.3 517.5Q845.9 519.0 844.7 519.7Q843.6 520.4 841.9 520.4L841.9 520.4Q839.8 520.4 838.5 519.3Q837.3 518.2 837.3 516.1L837.3 516.1Q837.3 513.8 838.9 512.8Q840.6 511.7 843.8 511.7L843.8 511.7L846.1 511.7L846.1 510.9Q846.1 509.6 845.5 509.0Q844.9 508.3 843.4 508.3L843.4 508.3Q842.1 508.3 841.3 508.8Q840.5 509.3 839.9 510.2L839.9 510.2L837.6 508.1Q838.4 506.9 839.9 506.1Q841.5 505.3 843.9 505.3L843.9 505.3Q846.9 505.3 848.6 506.7Q850.2 508.0 850.2 510.8L850.2 510.8L850.2 517.1L851.8 517.1L851.8 520.1ZM843.5 517.7L843.5 517.7Q844.6 517.7 845.3 517.2Q846.1 516.6 846.1 515.6L846.1 515.6L846.1 513.9L843.9 513.9Q841.3 513.9 841.3 515.6L841.3 515.6L841.3 516.2Q841.3 516.9 841.9 517.3Q842.5 517.7 843.5 517.7ZM868.9 521.5L868.9 521.5Q868.9 523.8 867.0 524.9Q865.1 526.0 860.9 526.0L860.9 526.0Q858.8 526.0 857.5 525.8Q856.2 525.6 855.4 525.1Q854.6 524.7 854.2 524.0Q853.9 523.4 853.9 522.7L853.9 522.7Q853.9 521.5 854.6 520.8Q855.4 520.2 856.7 519.9L856.7 519.9L856.7 519.7Q855.8 519.4 855.2 518.9Q854.7 518.4 854.7 517.4L854.7 517.4Q854.7 516.4 855.4 515.9Q856.1 515.4 857.3 515.1L857.3 515.1L857.3 514.9Q856.0 514.3 855.3 513.2Q854.6 512.1 854.6 510.5L854.6 510.5Q854.6 509.2 855.0 508.2Q855.5 507.3 856.3 506.6Q857.1 506.0 858.3 505.6Q859.4 505.3 860.8 505.3L860.8 505.3Q862.2 505.3 863.4 505.6L863.4 505.6L863.4 504.8Q863.4 504.0 864.0 503.4Q864.6 502.9 865.6 502.9L865.6 502.9L868.1 502.9L868.1 505.9L864.7 505.9L864.7 506.1Q865.8 506.8 866.5 507.8Q867.2 508.9 867.2 510.5L867.2 510.5Q867.2 511.7 866.7 512.7Q866.3 513.6 865.4 514.3Q864.6 514.9 863.4 515.3Q862.3 515.6 860.8 515.6L860.8 515.6Q860.2 515.6 859.6 515.5Q859.0 515.5 858.5 515.3L858.5 515.3Q858.2 515.5 858.0 515.8Q857.8 516.0 857.8 516.4L857.8 516.4Q857.8 516.7 857.9 516.9Q858.1 517.1 858.4 517.2Q858.7 517.3 859.1 517.3Q859.5 517.4 859.9 517.4L859.9 517.4L863.2 517.4Q864.7 517.4 865.8 517.7Q866.9 518.0 867.6 518.6Q868.3 519.1 868.6 519.9Q868.9 520.6 868.9 521.5ZM865.0 521.9L865.0 521.9Q865.0 521.3 864.6 521.0Q864.1 520.7 862.8 520.7L862.8 520.7L857.9 520.7Q857.3 521.1 857.3 521.8L857.3 521.8Q857.3 522.5 857.9 522.9Q858.5 523.4 859.9 523.4L859.9 523.4L862.3 523.4Q863.7 523.4 864.4 523.0Q865.0 522.6 865.0 521.9ZM860.8 513.0L860.8 513.0Q862.1 513.0 862.7 512.4Q863.2 511.7 863.2 510.8L863.2 510.8L863.2 510.1Q863.2 509.2 862.7 508.6Q862.1 507.9 860.8 507.9L860.8 507.9Q859.6 507.9 859.0 508.6Q858.5 509.2 858.5 510.1L858.5 510.1L858.5 510.8Q858.5 511.7 859.0 512.4Q859.6 513.0 860.8 513.0ZM871.5 520.1L871.5 516.9L874.8 516.9L874.8 508.9L871.5 508.9L871.5 505.6L878.9 505.6L878.9 509.7L879.1 509.7Q879.3 508.9 879.7 508.2Q880.0 507.5 880.6 506.9Q881.1 506.3 881.9 506.0Q882.7 505.6 883.8 505.6L883.8 505.6L885.1 505.6L885.1 509.5L882.1 509.5Q880.5 509.5 879.7 510.4Q878.9 511.3 878.9 512.6L878.9 512.6L878.9 516.9L883.7 516.9L883.7 520.1L871.5 520.1Z M919.7 520.1L915.2 520.1L913.9 515.4L908.6 515.4L907.4 520.1L903.1 520.1L908.4 500.5L914.4 500.5L919.7 520.1ZM913.3 512.0L911.4 504.6L911.2 504.6L909.3 512.0L913.3 512.0ZM928.0 520.4L928.0 520.4Q925.6 520.4 923.8 519.7Q922.1 519.0 921.2 517.7L921.2 517.7L923.5 515.6Q924.3 516.5 925.5 517.0Q926.6 517.5 928.1 517.5L928.1 517.5Q929.3 517.5 930.0 517.1Q930.7 516.8 930.7 516.0L930.7 516.0Q930.7 515.4 930.2 515.1Q929.7 514.9 928.9 514.7L928.9 514.7L926.6 514.4Q925.6 514.2 924.8 513.9Q923.9 513.7 923.3 513.1Q922.7 512.6 922.3 511.9Q922.0 511.2 922.0 510.2L922.0 510.2Q922.0 507.9 923.7 506.6Q925.4 505.3 928.6 505.3L928.6 505.3Q930.7 505.3 932.2 505.9Q933.7 506.5 934.6 507.5L934.6 507.5L932.5 509.9Q931.9 509.2 930.9 508.7Q929.9 508.2 928.4 508.2L928.4 508.2Q926.0 508.2 926.0 509.7L926.0 509.7Q926.0 510.3 926.5 510.6Q927.0 510.8 927.8 510.9L927.8 510.9L930.1 511.3Q931.1 511.4 931.9 511.7Q932.8 512.0 933.4 512.5Q934.0 513.0 934.4 513.8Q934.8 514.5 934.8 515.5L934.8 515.5Q934.8 517.8 933.0 519.1Q931.3 520.4 928.0 520.4ZM951.5 520.1L946.1 520.1Q943.9 520.1 942.8 518.9Q941.7 517.7 941.7 515.9L941.7 515.9L941.7 508.9L937.8 508.9L937.8 505.6L940.3 505.6Q941.2 505.6 941.6 505.3Q942.0 504.9 942.0 503.9L942.0 503.9L942.0 500.5L945.8 500.5L945.8 505.6L951.5 505.6L951.5 508.9L945.8 508.9L945.8 516.9L951.5 516.9L951.5 520.1ZM955.5 520.1L955.5 516.9L958.8 516.9L958.8 508.9L955.5 508.9L955.5 505.6L962.9 505.6L962.9 509.7L963.1 509.7Q963.3 508.9 963.7 508.2Q964.0 507.5 964.6 506.9Q965.1 506.3 965.9 506.0Q966.7 505.6 967.8 505.6L967.8 505.6L969.1 505.6L969.1 509.5L966.1 509.5Q964.5 509.5 963.7 510.4Q962.9 511.3 962.9 512.6L962.9 512.6L962.9 516.9L967.7 516.9L967.7 520.1L955.5 520.1ZM978.6 520.4L978.6 520.4Q976.9 520.4 975.6 519.9Q974.2 519.4 973.3 518.4Q972.4 517.4 971.9 516.0Q971.3 514.6 971.3 512.9L971.3 512.9Q971.3 511.1 971.9 509.7Q972.4 508.3 973.3 507.3Q974.2 506.3 975.6 505.8Q976.9 505.3 978.6 505.3L978.6 505.3Q980.3 505.3 981.6 505.8Q983.0 506.3 983.9 507.3Q984.8 508.3 985.3 509.7Q985.9 511.1 985.9 512.9L985.9 512.9Q985.9 514.6 985.3 516.0Q984.8 517.4 983.9 518.4Q983.0 519.4 981.6 519.9Q980.3 520.4 978.6 520.4ZM978.6 517.3L978.6 517.3Q980.0 517.3 980.8 516.5Q981.6 515.6 981.6 514.0L981.6 514.0L981.6 511.7Q981.6 510.1 980.8 509.3Q980.0 508.4 978.6 508.4L978.6 508.4Q977.2 508.4 976.4 509.3Q975.6 510.1 975.6 511.7L975.6 511.7L975.6 514.0Q975.6 515.6 976.4 516.5Q977.2 517.3 978.6 517.3Z M1006.0 520.1L1006.0 500.5L1012.8 500.5Q1015.7 500.5 1017.2 501.9Q1018.8 503.3 1018.8 505.8L1018.8 505.8Q1018.8 507.4 1017.9 508.4Q1017.1 509.4 1015.6 509.9L1015.6 509.9L1015.6 510.0Q1017.4 510.5 1018.4 511.6Q1019.4 512.7 1019.4 514.7L1019.4 514.7Q1019.4 517.2 1017.8 518.6Q1016.3 520.1 1013.5 520.1L1013.5 520.1L1006.0 520.1ZM1010.0 517.2L1012.2 517.2Q1013.7 517.2 1014.4 516.6Q1015.1 516.1 1015.1 514.8L1015.1 514.8L1015.1 514.0Q1015.1 512.6 1014.4 512.1Q1013.7 511.6 1012.2 511.6L1012.2 511.6L1010.0 511.6L1010.0 517.2ZM1010.0 508.8L1011.6 508.8Q1013.1 508.8 1013.8 508.3Q1014.5 507.9 1014.5 506.6L1014.5 506.6L1014.5 505.7Q1014.5 504.4 1013.8 504.0Q1013.1 503.5 1011.6 503.5L1011.6 503.5L1010.0 503.5L1010.0 508.8ZM1022.5 520.1L1022.5 516.9L1026.9 516.9L1026.9 502.6L1022.5 502.6L1022.5 499.4L1031.1 499.4L1031.1 516.9L1035.5 516.9L1035.5 520.1L1022.5 520.1ZM1045.8 520.4L1045.8 520.4Q1044.1 520.4 1042.8 519.9Q1041.4 519.4 1040.5 518.4Q1039.6 517.4 1039.1 516.0Q1038.5 514.6 1038.5 512.9L1038.5 512.9Q1038.5 511.1 1039.1 509.7Q1039.6 508.3 1040.5 507.3Q1041.4 506.3 1042.8 505.8Q1044.1 505.3 1045.8 505.3L1045.8 505.3Q1047.5 505.3 1048.8 505.8Q1050.2 506.3 1051.1 507.3Q1052.0 508.3 1052.5 509.7Q1053.1 511.1 1053.1 512.9L1053.1 512.9Q1053.1 514.6 1052.5 516.0Q1052.0 517.4 1051.1 518.4Q1050.2 519.4 1048.8 519.9Q1047.5 520.4 1045.8 520.4ZM1045.8 517.3L1045.8 517.3Q1047.2 517.3 1048.0 516.5Q1048.8 515.6 1048.8 514.0L1048.8 514.0L1048.8 511.7Q1048.8 510.1 1048.0 509.3Q1047.2 508.4 1045.8 508.4L1045.8 508.4Q1044.4 508.4 1043.6 509.3Q1042.8 510.1 1042.8 511.7L1042.8 511.7L1042.8 514.0Q1042.8 515.6 1043.6 516.5Q1044.4 517.3 1045.8 517.3ZM1070.5 521.5L1070.5 521.5Q1070.5 523.8 1068.6 524.9Q1066.7 526.0 1062.5 526.0L1062.5 526.0Q1060.4 526.0 1059.1 525.8Q1057.8 525.6 1057.0 525.1Q1056.2 524.7 1055.8 524.0Q1055.5 523.4 1055.5 522.7L1055.5 522.7Q1055.5 521.5 1056.2 520.8Q1057.0 520.2 1058.3 519.9L1058.3 519.9L1058.3 519.7Q1057.4 519.4 1056.8 518.9Q1056.3 518.4 1056.3 517.4L1056.3 517.4Q1056.3 516.4 1057.0 515.9Q1057.7 515.4 1058.9 515.1L1058.9 515.1L1058.9 514.9Q1057.6 514.3 1056.9 513.2Q1056.2 512.1 1056.2 510.5L1056.2 510.5Q1056.2 509.2 1056.6 508.2Q1057.1 507.3 1057.9 506.6Q1058.7 506.0 1059.9 505.6Q1061.0 505.3 1062.4 505.3L1062.4 505.3Q1063.8 505.3 1065.0 505.6L1065.0 505.6L1065.0 504.8Q1065.0 504.0 1065.6 503.4Q1066.2 502.9 1067.2 502.9L1067.2 502.9L1069.7 502.9L1069.7 505.9L1066.3 505.9L1066.3 506.1Q1067.4 506.8 1068.1 507.8Q1068.8 508.9 1068.8 510.5L1068.8 510.5Q1068.8 511.7 1068.3 512.7Q1067.9 513.6 1067.0 514.3Q1066.2 514.9 1065.0 515.3Q1063.9 515.6 1062.4 515.6L1062.4 515.6Q1061.8 515.6 1061.2 515.5Q1060.6 515.5 1060.1 515.3L1060.1 515.3Q1059.8 515.5 1059.6 515.8Q1059.4 516.0 1059.4 516.4L1059.4 516.4Q1059.4 516.7 1059.5 516.9Q1059.7 517.1 1060.0 517.2Q1060.3 517.3 1060.7 517.3Q1061.1 517.4 1061.5 517.4L1061.5 517.4L1064.8 517.4Q1066.3 517.4 1067.4 517.7Q1068.5 518.0 1069.2 518.6Q1069.9 519.1 1070.2 519.9Q1070.5 520.6 1070.5 521.5ZM1066.6 521.9L1066.6 521.9Q1066.6 521.3 1066.2 521.0Q1065.7 520.7 1064.4 520.7L1064.4 520.7L1059.5 520.7Q1058.9 521.1 1058.9 521.8L1058.9 521.8Q1058.9 522.5 1059.5 522.9Q1060.1 523.4 1061.5 523.4L1061.5 523.4L1063.9 523.4Q1065.3 523.4 1066.0 523.0Q1066.6 522.6 1066.6 521.9ZM1062.4 513.0L1062.4 513.0Q1063.7 513.0 1064.3 512.4Q1064.8 511.7 1064.8 510.8L1064.8 510.8L1064.8 510.1Q1064.8 509.2 1064.3 508.6Q1063.7 507.9 1062.4 507.9L1062.4 507.9Q1061.2 507.9 1060.6 508.6Q1060.1 509.2 1060.1 510.1L1060.1 510.1L1060.1 510.8Q1060.1 511.7 1060.6 512.4Q1061.2 513.0 1062.4 513.0Z " clip-path="url(#satori_cp-id-1-0-1-1)" mask="url(#satori_om-id-1-0-1-1)"/></svg>